G75*
%MOIN*%
%OFA0B0*%
%FSLAX24Y24*%
%IPPOS*%
%LPD*%
%AMOC8*
5,1,8,0,0,1.08239X$1,22.5*
%
%ADD10R,0.0016X0.0004*%
%ADD11R,0.0055X0.0004*%
%ADD12R,0.0087X0.0004*%
%ADD13R,0.0114X0.0004*%
%ADD14R,0.0146X0.0004*%
%ADD15R,0.0173X0.0004*%
%ADD16R,0.0201X0.0004*%
%ADD17R,0.0224X0.0004*%
%ADD18R,0.0248X0.0004*%
%ADD19R,0.0276X0.0004*%
%ADD20R,0.0299X0.0004*%
%ADD21R,0.0323X0.0004*%
%ADD22R,0.0350X0.0004*%
%ADD23R,0.0374X0.0004*%
%ADD24R,0.0394X0.0004*%
%ADD25R,0.0417X0.0004*%
%ADD26R,0.0445X0.0004*%
%ADD27R,0.0469X0.0004*%
%ADD28R,0.0488X0.0004*%
%ADD29R,0.0512X0.0004*%
%ADD30R,0.0535X0.0004*%
%ADD31R,0.0563X0.0004*%
%ADD32R,0.0587X0.0004*%
%ADD33R,0.0606X0.0004*%
%ADD34R,0.0630X0.0004*%
%ADD35R,0.0654X0.0004*%
%ADD36R,0.0681X0.0004*%
%ADD37R,0.0701X0.0004*%
%ADD38R,0.0724X0.0004*%
%ADD39R,0.0748X0.0004*%
%ADD40R,0.0776X0.0004*%
%ADD41R,0.0795X0.0004*%
%ADD42R,0.0819X0.0004*%
%ADD43R,0.0843X0.0004*%
%ADD44R,0.0102X0.0004*%
%ADD45R,0.0717X0.0004*%
%ADD46R,0.0106X0.0004*%
%ADD47R,0.0705X0.0004*%
%ADD48R,0.0709X0.0004*%
%ADD49R,0.0098X0.0004*%
%ADD50R,0.0689X0.0004*%
%ADD51R,0.0665X0.0004*%
%ADD52R,0.0650X0.0004*%
%ADD53R,0.0634X0.0004*%
%ADD54R,0.0622X0.0004*%
%ADD55R,0.0602X0.0004*%
%ADD56R,0.0583X0.0004*%
%ADD57R,0.0551X0.0004*%
%ADD58R,0.0531X0.0004*%
%ADD59R,0.0508X0.0004*%
%ADD60R,0.0492X0.0004*%
%ADD61R,0.0472X0.0004*%
%ADD62R,0.0453X0.0004*%
%ADD63R,0.0433X0.0004*%
%ADD64R,0.0413X0.0004*%
%ADD65R,0.0335X0.0004*%
%ADD66R,0.0315X0.0004*%
%ADD67R,0.0295X0.0004*%
%ADD68R,0.0094X0.0004*%
%ADD69R,0.0272X0.0004*%
%ADD70R,0.0252X0.0004*%
%ADD71R,0.0232X0.0004*%
%ADD72R,0.0213X0.0004*%
%ADD73R,0.0189X0.0004*%
%ADD74R,0.0193X0.0004*%
%ADD75R,0.0197X0.0004*%
%ADD76R,0.0205X0.0004*%
%ADD77R,0.0209X0.0004*%
%ADD78R,0.0217X0.0004*%
%ADD79R,0.0228X0.0004*%
%ADD80R,0.0130X0.0004*%
%ADD81R,0.0134X0.0004*%
%ADD82R,0.0024X0.0004*%
%ADD83R,0.0004X0.0004*%
%ADD84R,0.0083X0.0004*%
%ADD85R,0.0063X0.0004*%
%ADD86R,0.0921X0.0004*%
%ADD87R,0.0091X0.0004*%
%ADD88R,0.0886X0.0004*%
%ADD89R,0.0685X0.0004*%
%ADD90R,0.0071X0.0004*%
%ADD91R,0.0110X0.0004*%
%ADD92R,0.0972X0.0004*%
%ADD93R,0.0937X0.0004*%
%ADD94R,0.0744X0.0004*%
%ADD95R,0.0126X0.0004*%
%ADD96R,0.0157X0.0004*%
%ADD97R,0.1000X0.0004*%
%ADD98R,0.0122X0.0004*%
%ADD99R,0.0150X0.0004*%
%ADD100R,0.0976X0.0004*%
%ADD101R,0.0783X0.0004*%
%ADD102R,0.0138X0.0004*%
%ADD103R,0.0142X0.0004*%
%ADD104R,0.1028X0.0004*%
%ADD105R,0.0165X0.0004*%
%ADD106R,0.1004X0.0004*%
%ADD107R,0.0815X0.0004*%
%ADD108R,0.0185X0.0004*%
%ADD109R,0.1047X0.0004*%
%ADD110R,0.0181X0.0004*%
%ADD111R,0.1031X0.0004*%
%ADD112R,0.0846X0.0004*%
%ADD113R,0.0154X0.0004*%
%ADD114R,0.1063X0.0004*%
%ADD115R,0.1051X0.0004*%
%ADD116R,0.0870X0.0004*%
%ADD117R,0.0161X0.0004*%
%ADD118R,0.1079X0.0004*%
%ADD119R,0.1067X0.0004*%
%ADD120R,0.0894X0.0004*%
%ADD121R,0.0169X0.0004*%
%ADD122R,0.1091X0.0004*%
%ADD123R,0.1083X0.0004*%
%ADD124R,0.0917X0.0004*%
%ADD125R,0.1102X0.0004*%
%ADD126R,0.0220X0.0004*%
%ADD127R,0.1094X0.0004*%
%ADD128R,0.0933X0.0004*%
%ADD129R,0.0177X0.0004*%
%ADD130R,0.1110X0.0004*%
%ADD131R,0.0957X0.0004*%
%ADD132R,0.0240X0.0004*%
%ADD133R,0.1122X0.0004*%
%ADD134R,0.0236X0.0004*%
%ADD135R,0.1130X0.0004*%
%ADD136R,0.0244X0.0004*%
%ADD137R,0.1134X0.0004*%
%ADD138R,0.0988X0.0004*%
%ADD139R,0.1138X0.0004*%
%ADD140R,0.1142X0.0004*%
%ADD141R,0.0264X0.0004*%
%ADD142R,0.1146X0.0004*%
%ADD143R,0.0260X0.0004*%
%ADD144R,0.1150X0.0004*%
%ADD145R,0.1016X0.0004*%
%ADD146R,0.1154X0.0004*%
%ADD147R,0.0268X0.0004*%
%ADD148R,0.1157X0.0004*%
%ADD149R,0.1161X0.0004*%
%ADD150R,0.1165X0.0004*%
%ADD151R,0.1039X0.0004*%
%ADD152R,0.0283X0.0004*%
%ADD153R,0.1169X0.0004*%
%ADD154R,0.1177X0.0004*%
%ADD155R,0.1055X0.0004*%
%ADD156R,0.0287X0.0004*%
%ADD157R,0.1173X0.0004*%
%ADD158R,0.1181X0.0004*%
%ADD159R,0.1189X0.0004*%
%ADD160R,0.0303X0.0004*%
%ADD161R,0.1185X0.0004*%
%ADD162R,0.1197X0.0004*%
%ADD163R,0.0307X0.0004*%
%ADD164R,0.1201X0.0004*%
%ADD165R,0.1098X0.0004*%
%ADD166R,0.0311X0.0004*%
%ADD167R,0.1205X0.0004*%
%ADD168R,0.0319X0.0004*%
%ADD169R,0.1213X0.0004*%
%ADD170R,0.0327X0.0004*%
%ADD171R,0.1217X0.0004*%
%ADD172R,0.0331X0.0004*%
%ADD173R,0.1209X0.0004*%
%ADD174R,0.1220X0.0004*%
%ADD175R,0.1224X0.0004*%
%ADD176R,0.0339X0.0004*%
%ADD177R,0.0343X0.0004*%
%ADD178R,0.1228X0.0004*%
%ADD179R,0.0346X0.0004*%
%ADD180R,0.1232X0.0004*%
%ADD181R,0.1236X0.0004*%
%ADD182R,0.0354X0.0004*%
%ADD183R,0.1240X0.0004*%
%ADD184R,0.0358X0.0004*%
%ADD185R,0.1244X0.0004*%
%ADD186R,0.0362X0.0004*%
%ADD187R,0.0366X0.0004*%
%ADD188R,0.0370X0.0004*%
%ADD189R,0.1248X0.0004*%
%ADD190R,0.0378X0.0004*%
%ADD191R,0.1252X0.0004*%
%ADD192R,0.0382X0.0004*%
%ADD193R,0.0386X0.0004*%
%ADD194R,0.1256X0.0004*%
%ADD195R,0.0390X0.0004*%
%ADD196R,0.1260X0.0004*%
%ADD197R,0.0291X0.0004*%
%ADD198R,0.0256X0.0004*%
%ADD199R,0.0579X0.0004*%
%ADD200R,0.0571X0.0004*%
%ADD201R,0.0559X0.0004*%
%ADD202R,0.0543X0.0004*%
%ADD203R,0.0539X0.0004*%
%ADD204R,0.0524X0.0004*%
%ADD205R,0.0520X0.0004*%
%ADD206R,0.0504X0.0004*%
%ADD207R,0.0500X0.0004*%
%ADD208R,0.0480X0.0004*%
%ADD209R,0.0461X0.0004*%
%ADD210R,0.0457X0.0004*%
%ADD211R,0.0449X0.0004*%
%ADD212R,0.0441X0.0004*%
%ADD213R,0.0437X0.0004*%
%ADD214R,0.0429X0.0004*%
%ADD215R,0.0118X0.0004*%
%ADD216R,0.0425X0.0004*%
%ADD217R,0.0406X0.0004*%
%ADD218R,0.0402X0.0004*%
%ADD219R,0.0398X0.0004*%
%ADD220R,0.0409X0.0004*%
%ADD221R,0.0421X0.0004*%
%ADD222R,0.0591X0.0004*%
%ADD223R,0.0567X0.0004*%
%ADD224R,0.1280X0.0004*%
%ADD225R,0.0555X0.0004*%
%ADD226R,0.0465X0.0004*%
%ADD227R,0.1276X0.0004*%
%ADD228R,0.0547X0.0004*%
%ADD229R,0.0476X0.0004*%
%ADD230R,0.1272X0.0004*%
%ADD231R,0.0484X0.0004*%
%ADD232R,0.0528X0.0004*%
%ADD233R,0.0827X0.0004*%
%ADD234R,0.1268X0.0004*%
%ADD235R,0.0496X0.0004*%
%ADD236R,0.0945X0.0004*%
%ADD237R,0.1264X0.0004*%
%ADD238R,0.0516X0.0004*%
%ADD239R,0.0980X0.0004*%
%ADD240R,0.1059X0.0004*%
%ADD241R,0.1071X0.0004*%
%ADD242R,0.1075X0.0004*%
%ADD243R,0.0575X0.0004*%
%ADD244R,0.1087X0.0004*%
%ADD245R,0.1114X0.0004*%
%ADD246R,0.1035X0.0004*%
%ADD247R,0.1043X0.0004*%
%ADD248R,0.0992X0.0004*%
%ADD249R,0.0965X0.0004*%
%ADD250R,0.1020X0.0004*%
%ADD251R,0.1008X0.0004*%
%ADD252R,0.0996X0.0004*%
%ADD253R,0.0614X0.0004*%
%ADD254R,0.0969X0.0004*%
%ADD255R,0.0646X0.0004*%
%ADD256R,0.0949X0.0004*%
%ADD257R,0.0677X0.0004*%
%ADD258R,0.0693X0.0004*%
%ADD259R,0.0280X0.0004*%
%ADD260R,0.0618X0.0004*%
%ADD261R,0.0642X0.0004*%
%ADD262R,0.0657X0.0004*%
%ADD263R,0.1193X0.0004*%
%ADD264R,0.0902X0.0004*%
%ADD265R,0.0669X0.0004*%
%ADD266R,0.0913X0.0004*%
%ADD267R,0.0925X0.0004*%
%ADD268R,0.0594X0.0004*%
%ADD269R,0.0598X0.0004*%
%ADD270R,0.0929X0.0004*%
%ADD271R,0.0713X0.0004*%
%ADD272R,0.0610X0.0004*%
%ADD273R,0.0720X0.0004*%
%ADD274R,0.0909X0.0004*%
%ADD275R,0.0906X0.0004*%
%ADD276R,0.0898X0.0004*%
%ADD277R,0.0890X0.0004*%
%ADD278R,0.0051X0.0004*%
%ADD279R,0.0882X0.0004*%
%ADD280R,0.0878X0.0004*%
%ADD281R,0.0874X0.0004*%
%ADD282R,0.0862X0.0004*%
%ADD283R,0.0858X0.0004*%
%ADD284R,0.0850X0.0004*%
%ADD285R,0.0839X0.0004*%
%ADD286R,0.0831X0.0004*%
%ADD287R,0.0811X0.0004*%
%ADD288R,0.0803X0.0004*%
%ADD289R,0.0697X0.0004*%
%ADD290R,0.0780X0.0004*%
%ADD291R,0.0768X0.0004*%
%ADD292R,0.0752X0.0004*%
%ADD293R,0.0673X0.0004*%
%ADD294R,0.0740X0.0004*%
%ADD295R,0.0661X0.0004*%
%ADD296R,0.1024X0.0004*%
%ADD297R,0.0059X0.0004*%
%ADD298R,0.0008X0.0004*%
%ADD299R,0.0028X0.0004*%
%ADD300R,0.0075X0.0004*%
%ADD301R,0.0067X0.0004*%
%ADD302R,0.0866X0.0004*%
%ADD303R,0.0043X0.0004*%
%ADD304R,0.0047X0.0004*%
%ADD305R,0.0020X0.0004*%
%ADD306R,0.0854X0.0004*%
%ADD307R,0.0835X0.0004*%
%ADD308R,0.0799X0.0004*%
%ADD309R,0.0791X0.0004*%
%ADD310R,0.0760X0.0004*%
%ADD311R,0.0039X0.0004*%
%ADD312R,0.0035X0.0004*%
%ADD313R,0.0079X0.0004*%
%ADD314R,0.0031X0.0004*%
%ADD315R,0.0012X0.0004*%
%ADD316C,0.0050*%
%ADD317C,0.0080*%
D10*
X019103Y010117D03*
X022741Y010826D03*
X022997Y011011D03*
X023028Y008357D03*
D11*
X023032Y008361D03*
X024595Y010424D03*
X023910Y010806D03*
X021292Y011629D03*
X019784Y011826D03*
D12*
X019135Y011861D03*
X019064Y012054D03*
X020804Y011519D03*
X021300Y011617D03*
X022414Y011617D03*
X022485Y011424D03*
X022938Y011208D03*
X023036Y011822D03*
X023513Y010818D03*
X023379Y010003D03*
X023383Y009987D03*
X023387Y009971D03*
X023391Y009956D03*
X023391Y009952D03*
X023395Y009936D03*
X023399Y009920D03*
X023399Y009916D03*
X023402Y009904D03*
X023402Y009900D03*
X023406Y009889D03*
X023406Y009885D03*
X023406Y009881D03*
X023410Y009869D03*
X023410Y009865D03*
X023410Y009861D03*
X023414Y009853D03*
X023414Y009849D03*
X023414Y009845D03*
X023414Y009841D03*
X023418Y009834D03*
X023418Y009830D03*
X023418Y009826D03*
X023422Y009818D03*
X023422Y009814D03*
X023422Y009810D03*
X023422Y009806D03*
X023426Y009802D03*
X023426Y009798D03*
X023426Y009794D03*
X023426Y009790D03*
X023426Y009786D03*
X023430Y009782D03*
X023430Y009778D03*
X023430Y009774D03*
X023430Y009771D03*
X023434Y009767D03*
X023434Y009763D03*
X023434Y009759D03*
X023434Y009755D03*
X023434Y009751D03*
X023438Y009747D03*
X023438Y009743D03*
X023438Y009739D03*
X023438Y009735D03*
X023442Y009731D03*
X023442Y009727D03*
X023442Y009723D03*
X023442Y009719D03*
X023446Y009711D03*
X023446Y009708D03*
X023446Y009704D03*
X023446Y009700D03*
X023450Y009696D03*
X023450Y009692D03*
X023450Y009688D03*
X023450Y009684D03*
X022910Y009979D03*
X023036Y008365D03*
X024591Y010420D03*
X015958Y010034D03*
X014528Y010125D03*
D13*
X014526Y010121D03*
X015916Y009845D03*
X019121Y011865D03*
X020353Y011881D03*
X021830Y011223D03*
X022873Y010168D03*
X022900Y009987D03*
X022822Y009420D03*
X023046Y008369D03*
X024774Y009290D03*
X024774Y009294D03*
X024586Y010416D03*
D14*
X024487Y010251D03*
X024483Y010247D03*
X024479Y010243D03*
X024475Y010239D03*
X024141Y009818D03*
X024137Y009814D03*
X023507Y010645D03*
X022755Y010774D03*
X022889Y009999D03*
X021853Y010113D03*
X021314Y011448D03*
X021314Y011593D03*
X023066Y011645D03*
X023727Y011578D03*
X023054Y008373D03*
X018542Y009810D03*
X017700Y010109D03*
X017700Y008798D03*
X015940Y009731D03*
X015562Y010121D03*
X014526Y010113D03*
D15*
X014528Y010097D03*
X015926Y010007D03*
X015938Y009869D03*
X015946Y009700D03*
X015946Y008822D03*
X015591Y008794D03*
X017698Y008822D03*
X017698Y008826D03*
X017698Y008830D03*
X017698Y010078D03*
X017698Y010082D03*
X017698Y010086D03*
X019745Y011652D03*
X020332Y011904D03*
X020343Y012042D03*
X020804Y011495D03*
X020804Y011491D03*
X020804Y011487D03*
X020804Y011483D03*
X020804Y011479D03*
X020804Y011475D03*
X020804Y011369D03*
X020804Y011365D03*
X020804Y011361D03*
X020804Y011357D03*
X020804Y011353D03*
X020804Y011349D03*
X021308Y011463D03*
X021320Y011582D03*
X021851Y011397D03*
X021981Y011652D03*
X022548Y011089D03*
X022965Y011188D03*
X023513Y010979D03*
X023513Y010975D03*
X023513Y010853D03*
X023513Y010849D03*
X023513Y010845D03*
X023958Y010774D03*
X023946Y010633D03*
X023320Y010058D03*
X022883Y010011D03*
X022847Y009436D03*
X021851Y008826D03*
X021851Y008822D03*
X023064Y008377D03*
X024111Y009798D03*
X023068Y011794D03*
D16*
X023074Y011774D03*
X023074Y011771D03*
X023070Y011763D03*
X023070Y011759D03*
X023054Y011692D03*
X023054Y011688D03*
X023054Y011684D03*
X022967Y011156D03*
X022967Y011152D03*
X022967Y011149D03*
X022967Y011145D03*
X022967Y011141D03*
X022963Y011137D03*
X022963Y011133D03*
X022963Y011129D03*
X022963Y011125D03*
X022963Y011121D03*
X022960Y011117D03*
X022960Y011113D03*
X022960Y011109D03*
X022960Y011105D03*
X022960Y011101D03*
X022956Y011089D03*
X022956Y011086D03*
X022956Y011082D03*
X022747Y010664D03*
X022900Y010133D03*
X022897Y010125D03*
X022897Y010121D03*
X022897Y010117D03*
X022893Y010105D03*
X022881Y010054D03*
X022881Y010050D03*
X022881Y010046D03*
X022881Y010042D03*
X022877Y010038D03*
X022877Y010034D03*
X022877Y010030D03*
X023314Y010034D03*
X023499Y010554D03*
X023499Y010558D03*
X023499Y010562D03*
X023499Y010566D03*
X023499Y010570D03*
X023944Y010664D03*
X023944Y010668D03*
X023944Y010672D03*
X023944Y010676D03*
X023948Y010680D03*
X023948Y010684D03*
X023948Y010688D03*
X023948Y010692D03*
X023952Y010704D03*
X023952Y010708D03*
X023952Y010711D03*
X023952Y010715D03*
X023956Y010719D03*
X023956Y010723D03*
X023956Y010727D03*
X023956Y010731D03*
X023960Y010743D03*
X021853Y011306D03*
X021853Y011310D03*
X021853Y011314D03*
X021853Y011318D03*
X021853Y011322D03*
X021849Y011345D03*
X021975Y011676D03*
X021979Y011692D03*
X021979Y011696D03*
X021979Y011700D03*
X021979Y011704D03*
X021983Y011711D03*
X021983Y011715D03*
X021983Y011719D03*
X021983Y011723D03*
X021987Y011731D03*
X021987Y011735D03*
X021987Y011739D03*
X021987Y011743D03*
X021991Y011751D03*
X021991Y011755D03*
X021991Y011759D03*
X021326Y011566D03*
X021326Y011562D03*
X021306Y011479D03*
X020330Y011928D03*
X020330Y011932D03*
X020334Y011944D03*
X020334Y011948D03*
X020334Y011952D03*
X020334Y011956D03*
X020337Y011963D03*
X020337Y011967D03*
X020337Y011971D03*
X020341Y011983D03*
X020341Y011987D03*
X020341Y011991D03*
X020341Y011995D03*
X020345Y011999D03*
X020345Y012003D03*
X020345Y012007D03*
X019731Y011771D03*
X019731Y011767D03*
X019735Y011755D03*
X019735Y011751D03*
X019735Y011747D03*
X019739Y011739D03*
X019739Y011735D03*
X019739Y011731D03*
X019739Y011727D03*
X019739Y011723D03*
X019743Y011715D03*
X019743Y011711D03*
X019743Y011708D03*
X019743Y011704D03*
X019747Y011692D03*
X019747Y011688D03*
X019747Y011684D03*
X019503Y011361D03*
X019499Y011349D03*
X019499Y011345D03*
X019499Y011341D03*
X019499Y011337D03*
X019495Y011334D03*
X019495Y011330D03*
X019495Y011326D03*
X019495Y011322D03*
X019491Y011310D03*
X019491Y011306D03*
X019491Y011302D03*
X019491Y011298D03*
X019487Y011290D03*
X019487Y011286D03*
X019487Y011282D03*
X019487Y011278D03*
X019097Y011944D03*
X018530Y009794D03*
X019987Y009255D03*
X019987Y009251D03*
X019987Y009247D03*
X019987Y009243D03*
X019987Y009239D03*
X019987Y009097D03*
X019987Y009093D03*
X019987Y009089D03*
X019987Y009086D03*
X020334Y009058D03*
X020334Y009054D03*
X020337Y009046D03*
X020330Y009231D03*
X020330Y009235D03*
X020334Y009243D03*
X020334Y009247D03*
X021444Y009042D03*
X021444Y009038D03*
X021444Y009566D03*
X021444Y009570D03*
X023074Y008381D03*
X016278Y009062D03*
X016278Y009066D03*
X016278Y009070D03*
X016278Y009562D03*
X016278Y009566D03*
X015940Y009897D03*
X015940Y009900D03*
X015940Y009904D03*
X015936Y009916D03*
X015936Y009920D03*
X015932Y009936D03*
X015932Y009940D03*
X015928Y009952D03*
X015928Y009956D03*
X015928Y009960D03*
X015924Y009967D03*
X015924Y009971D03*
X015924Y009975D03*
X014530Y009330D03*
X014530Y009326D03*
X014530Y009322D03*
X014530Y009318D03*
X014530Y009314D03*
D17*
X015550Y010097D03*
X016298Y009605D03*
X016294Y009026D03*
X015582Y008814D03*
X018900Y009641D03*
X018900Y009645D03*
X018904Y009637D03*
X018908Y009861D03*
X018912Y009869D03*
X019971Y009302D03*
X019975Y009042D03*
X020353Y009019D03*
X020357Y009015D03*
X020349Y009278D03*
X020353Y009282D03*
X021428Y009007D03*
X021428Y009597D03*
X022751Y010684D03*
X022751Y010688D03*
X024334Y008727D03*
X023086Y008385D03*
D18*
X023093Y008389D03*
X021412Y008987D03*
X021412Y009617D03*
X020373Y008999D03*
X019960Y009019D03*
X019956Y009322D03*
X019952Y009326D03*
X018519Y009774D03*
X016314Y009621D03*
X015542Y010086D03*
X015574Y008826D03*
X024534Y010393D03*
D19*
X023103Y008393D03*
X021395Y008975D03*
X019942Y009003D03*
X019934Y009341D03*
X018938Y009593D03*
X018505Y009759D03*
X018521Y008841D03*
X016332Y009633D03*
X015532Y010070D03*
X015564Y008841D03*
D20*
X015524Y010058D03*
X018493Y009743D03*
X018954Y009582D03*
X018505Y008857D03*
X023115Y008397D03*
X023458Y010137D03*
D21*
X023481Y010145D03*
X023127Y008400D03*
X019902Y009357D03*
X018477Y009727D03*
X015536Y008873D03*
D22*
X015487Y010019D03*
X018452Y009704D03*
X018983Y009574D03*
X018471Y008893D03*
X019900Y008979D03*
X023137Y008404D03*
X024215Y008652D03*
X023507Y010152D03*
X024491Y010373D03*
D23*
X024204Y008649D03*
X023149Y008408D03*
X018436Y008920D03*
X018097Y009487D03*
X018078Y009475D03*
X018050Y009460D03*
X018030Y009448D03*
X018023Y009444D03*
X018011Y009436D03*
X018003Y009432D03*
X018125Y009503D03*
X018345Y009633D03*
X018365Y009645D03*
X018385Y009656D03*
X018404Y009668D03*
X018412Y009672D03*
X018416Y009676D03*
X015456Y009991D03*
X015452Y009987D03*
X015467Y008932D03*
X015471Y008928D03*
X015479Y008924D03*
D24*
X014832Y009330D03*
X014627Y009460D03*
X014627Y009467D03*
X017800Y009302D03*
X018005Y009176D03*
X018013Y009172D03*
X019879Y008975D03*
X023158Y008412D03*
X024190Y008645D03*
X023958Y009739D03*
X024473Y010365D03*
D25*
X023587Y010176D03*
X022973Y009491D03*
X023170Y008416D03*
X017812Y009286D03*
D26*
X017826Y009345D03*
X014652Y009428D03*
X023180Y008420D03*
D27*
X023192Y008424D03*
X023003Y009503D03*
X017837Y009255D03*
X014664Y009412D03*
D28*
X017847Y009243D03*
X019052Y009566D03*
X023013Y009507D03*
X023202Y008428D03*
D29*
X023213Y008432D03*
X024418Y010341D03*
X017859Y009227D03*
X014686Y009385D03*
D30*
X014698Y009369D03*
X017871Y009400D03*
X019080Y009562D03*
X023040Y009519D03*
X023225Y008436D03*
D31*
X023235Y008440D03*
X024074Y008609D03*
X023479Y009617D03*
X023298Y009578D03*
X023278Y009574D03*
X017885Y009416D03*
X017885Y009196D03*
X014711Y009582D03*
D32*
X014723Y009337D03*
X023247Y008444D03*
X023637Y009652D03*
D33*
X023257Y008448D03*
D34*
X023269Y008452D03*
X023836Y009688D03*
X024363Y010318D03*
D35*
X023280Y008456D03*
X020914Y009826D03*
D36*
X021971Y009802D03*
X021975Y009660D03*
X023290Y008460D03*
X023971Y008582D03*
X019381Y010109D03*
D37*
X021973Y009786D03*
X021973Y009676D03*
X021973Y009672D03*
X023300Y008463D03*
X023505Y008499D03*
X023528Y008503D03*
X023552Y008507D03*
X023576Y008511D03*
X023595Y008515D03*
X023619Y008519D03*
X023847Y008558D03*
X023938Y008574D03*
D38*
X023312Y008467D03*
X021973Y009731D03*
X021973Y009735D03*
X020938Y009814D03*
X019375Y010101D03*
D39*
X023324Y008471D03*
D40*
X023334Y008475D03*
D41*
X023343Y008479D03*
X020961Y009794D03*
D42*
X020973Y009782D03*
X019351Y010070D03*
X023355Y008483D03*
D43*
X023367Y008487D03*
D44*
X022997Y008491D03*
X022993Y008499D03*
X022993Y008503D03*
X022993Y008507D03*
X022993Y008511D03*
X022989Y008515D03*
X022989Y008519D03*
X022989Y008523D03*
X022989Y008526D03*
X022985Y008534D03*
X022985Y008538D03*
X022985Y008542D03*
X022981Y008554D03*
X022981Y008558D03*
X022977Y008574D03*
X022973Y008593D03*
X022918Y008873D03*
X022906Y008936D03*
X022902Y008956D03*
X022828Y009334D03*
X022828Y009337D03*
X022824Y009353D03*
X022824Y009357D03*
X022820Y009373D03*
X022820Y009377D03*
X022820Y009381D03*
X022816Y009397D03*
X022816Y009400D03*
X022816Y009404D03*
X022816Y009416D03*
X022906Y009983D03*
X022584Y011105D03*
X023080Y011629D03*
X024635Y010271D03*
X024635Y010267D03*
X024635Y010263D03*
X024639Y010255D03*
X024639Y010251D03*
X024639Y010247D03*
X024639Y010243D03*
X024639Y010239D03*
X024639Y010235D03*
X024643Y010231D03*
X024643Y010227D03*
X024643Y010223D03*
X024643Y010219D03*
X024643Y010215D03*
X024643Y010211D03*
X024643Y010208D03*
X024647Y010204D03*
X024647Y010200D03*
X024647Y010196D03*
X024647Y010192D03*
X024647Y010188D03*
X024647Y010184D03*
X024650Y010176D03*
X024650Y010172D03*
X024650Y010168D03*
X024650Y010164D03*
X024650Y010160D03*
X024650Y010156D03*
X024654Y010149D03*
X024654Y010145D03*
X024654Y010141D03*
X024654Y010137D03*
X024654Y010133D03*
X024658Y010125D03*
X024658Y010121D03*
X024658Y010117D03*
X024658Y010113D03*
X024658Y010109D03*
X024658Y010105D03*
X024662Y010097D03*
X024662Y010093D03*
X024662Y010089D03*
X024662Y010086D03*
X024662Y010082D03*
X024666Y010070D03*
X024666Y010066D03*
X024666Y010062D03*
X024666Y010058D03*
X024666Y010054D03*
X024670Y010046D03*
X024670Y010042D03*
X024670Y010038D03*
X024670Y010034D03*
X024670Y010030D03*
X024674Y010019D03*
X024674Y010015D03*
X024674Y010011D03*
X024674Y010007D03*
X024674Y010003D03*
X024678Y009995D03*
X024678Y009991D03*
X024678Y009987D03*
X024678Y009983D03*
X024678Y009979D03*
X024682Y009967D03*
X024682Y009963D03*
X024682Y009960D03*
X024682Y009956D03*
X024682Y009952D03*
X024686Y009940D03*
X024686Y009936D03*
X024686Y009932D03*
X024686Y009928D03*
X024690Y009916D03*
X024690Y009912D03*
X024690Y009908D03*
X024690Y009904D03*
X024690Y009900D03*
X024694Y009893D03*
X024694Y009889D03*
X024694Y009885D03*
X024694Y009881D03*
X024694Y009877D03*
X024698Y009865D03*
X024698Y009861D03*
X024698Y009857D03*
X024698Y009853D03*
X024698Y009849D03*
X024702Y009841D03*
X024702Y009837D03*
X024702Y009834D03*
X024702Y009830D03*
X024702Y009826D03*
X024706Y009814D03*
X024706Y009810D03*
X024706Y009806D03*
X024706Y009802D03*
X024706Y009798D03*
X024710Y009790D03*
X024710Y009786D03*
X024710Y009782D03*
X024710Y009778D03*
X024710Y009774D03*
X024713Y009763D03*
X024713Y009759D03*
X024713Y009755D03*
X024713Y009751D03*
X024713Y009747D03*
X024717Y009739D03*
X024717Y009735D03*
X024717Y009731D03*
X024717Y009727D03*
X024717Y009723D03*
X024721Y009715D03*
X024721Y009711D03*
X024721Y009708D03*
X024721Y009704D03*
X024721Y009700D03*
X024721Y009696D03*
X024725Y009688D03*
X024725Y009684D03*
X024725Y009680D03*
X024725Y009676D03*
X024725Y009672D03*
X024729Y009664D03*
X024729Y009660D03*
X024729Y009656D03*
X024729Y009652D03*
X024729Y009649D03*
X024729Y009645D03*
X024733Y009637D03*
X024733Y009633D03*
X024733Y009629D03*
X024733Y009625D03*
X024733Y009621D03*
X024737Y009613D03*
X024737Y009609D03*
X024737Y009605D03*
X024737Y009601D03*
X024737Y009597D03*
X024737Y009593D03*
X024741Y009586D03*
X024741Y009582D03*
X024741Y009578D03*
X024741Y009574D03*
X024741Y009570D03*
X024745Y009562D03*
X024745Y009558D03*
X024745Y009554D03*
X024745Y009550D03*
X024745Y009546D03*
X024745Y009542D03*
X024749Y009534D03*
X024749Y009530D03*
X024749Y009526D03*
X024749Y009523D03*
X024749Y009519D03*
X024753Y009511D03*
X024753Y009507D03*
X024753Y009503D03*
X024753Y009499D03*
X024753Y009495D03*
X024753Y009491D03*
X024757Y009483D03*
X024757Y009479D03*
X024757Y009475D03*
X024757Y009471D03*
X024757Y009467D03*
X024761Y009460D03*
X024761Y009456D03*
X024761Y009452D03*
X024761Y009448D03*
X024761Y009444D03*
X024765Y009432D03*
X024765Y009428D03*
X024765Y009424D03*
X024765Y009420D03*
X024765Y009416D03*
X024769Y009404D03*
X024769Y009400D03*
X024769Y009397D03*
X024769Y009393D03*
X024773Y009381D03*
X024773Y009377D03*
X024773Y009373D03*
X024773Y009369D03*
X024773Y009365D03*
X024776Y009349D03*
X024776Y009345D03*
X024776Y009341D03*
X024776Y009337D03*
X024182Y009243D03*
X024182Y009239D03*
X024186Y009219D03*
X024190Y009196D03*
X024194Y009176D03*
X024198Y009152D03*
X024178Y009263D03*
X024178Y009267D03*
X024174Y009282D03*
X024174Y009286D03*
X024174Y009290D03*
X024170Y009306D03*
X024170Y009310D03*
X024166Y009326D03*
X024166Y009330D03*
X024166Y009334D03*
X024162Y009345D03*
X024162Y009349D03*
X024162Y009353D03*
X024162Y009357D03*
X024158Y009369D03*
X024158Y009373D03*
X024158Y009377D03*
X024158Y009381D03*
X024154Y009389D03*
X024154Y009393D03*
X024154Y009397D03*
X024154Y009400D03*
X024150Y009412D03*
X024150Y009416D03*
X024150Y009420D03*
X024150Y009424D03*
X024147Y009432D03*
X024147Y009436D03*
X024147Y009440D03*
X024147Y009444D03*
X024147Y009448D03*
X024143Y009452D03*
X024143Y009456D03*
X024143Y009460D03*
X024143Y009463D03*
X024143Y009467D03*
X024143Y009471D03*
X024139Y009475D03*
X024139Y009479D03*
X024139Y009483D03*
X024139Y009487D03*
X024139Y009491D03*
X024135Y009495D03*
X024135Y009499D03*
X024135Y009503D03*
X024135Y009507D03*
X024135Y009511D03*
X024131Y009519D03*
X024131Y009523D03*
X024131Y009526D03*
X024131Y009530D03*
X024131Y009534D03*
X024127Y009538D03*
X024127Y009542D03*
X024127Y009546D03*
X024127Y009550D03*
X024127Y009554D03*
X024123Y009562D03*
X024123Y009566D03*
X024123Y009570D03*
X024123Y009574D03*
X024119Y009582D03*
X024119Y009586D03*
X024119Y009589D03*
X024119Y009593D03*
X024119Y009597D03*
X024115Y009601D03*
X024115Y009605D03*
X024115Y009609D03*
X024115Y009613D03*
X024115Y009617D03*
X024111Y009621D03*
X024111Y009625D03*
X024111Y009629D03*
X024111Y009633D03*
X024111Y009637D03*
X024111Y009641D03*
X024107Y009645D03*
X024107Y009649D03*
X024107Y009652D03*
X024107Y009656D03*
X024107Y009660D03*
X024103Y009664D03*
X024103Y009668D03*
X024103Y009672D03*
X024103Y009676D03*
X024233Y008956D03*
X024241Y008912D03*
X024245Y008893D03*
X024245Y008889D03*
X024249Y008873D03*
X024249Y008869D03*
X024249Y008865D03*
X024253Y008853D03*
X024253Y008849D03*
X024253Y008845D03*
X024257Y008834D03*
X024257Y008830D03*
X024257Y008826D03*
X024257Y008822D03*
X024261Y008814D03*
X024261Y008810D03*
X024261Y008806D03*
X024261Y008802D03*
X024261Y008798D03*
X024265Y008794D03*
X024265Y008790D03*
X024265Y008786D03*
X024265Y008782D03*
X024265Y008778D03*
X024269Y008771D03*
X024269Y008767D03*
X024269Y008763D03*
X024273Y008747D03*
X024273Y008743D03*
X021324Y011428D03*
X015954Y010030D03*
D45*
X021973Y009767D03*
X021973Y009700D03*
X021973Y009696D03*
X023454Y008491D03*
D46*
X022995Y008495D03*
X024271Y008751D03*
X024271Y008755D03*
X024271Y008759D03*
X024267Y008774D03*
X024778Y009318D03*
X024778Y009322D03*
X024778Y009326D03*
X024778Y009330D03*
X024778Y009334D03*
X024774Y009353D03*
X024774Y009357D03*
X024774Y009361D03*
X024771Y009385D03*
X024771Y009389D03*
X024767Y009408D03*
X024767Y009412D03*
X024763Y009436D03*
X024763Y009440D03*
X024759Y009463D03*
X024755Y009487D03*
X024751Y009515D03*
X024747Y009538D03*
X024743Y009566D03*
X024739Y009589D03*
X024735Y009617D03*
X024731Y009641D03*
X024727Y009668D03*
X024723Y009692D03*
X024719Y009719D03*
X024715Y009743D03*
X024711Y009767D03*
X024711Y009771D03*
X024708Y009794D03*
X024704Y009818D03*
X024704Y009822D03*
X024700Y009845D03*
X024696Y009869D03*
X024696Y009873D03*
X024692Y009897D03*
X024688Y009920D03*
X024688Y009924D03*
X024684Y009944D03*
X024684Y009948D03*
X024680Y009971D03*
X024680Y009975D03*
X024676Y009999D03*
X024672Y010023D03*
X024672Y010026D03*
X024668Y010050D03*
X024664Y010074D03*
X024664Y010078D03*
X024660Y010101D03*
X024656Y010129D03*
X024652Y010152D03*
X024649Y010180D03*
X024121Y009578D03*
X024125Y009558D03*
X024133Y009515D03*
X023971Y010613D03*
X023526Y010652D03*
X023747Y011586D03*
X022003Y011633D03*
X021306Y011609D03*
D47*
X021971Y009782D03*
X023152Y009562D03*
X023916Y008570D03*
X023893Y008566D03*
X023869Y008562D03*
X023826Y008554D03*
X023802Y008550D03*
X023778Y008546D03*
X023755Y008542D03*
X023731Y008538D03*
X023708Y008534D03*
X023641Y008523D03*
X023479Y008495D03*
X019711Y009365D03*
D48*
X019379Y010105D03*
X020930Y009818D03*
X021973Y009778D03*
X021973Y009688D03*
X021973Y009684D03*
X021973Y009680D03*
X023662Y008526D03*
X023686Y008530D03*
D49*
X022987Y008530D03*
X022983Y008546D03*
X022983Y008550D03*
X022979Y008562D03*
X022979Y008566D03*
X022979Y008570D03*
X022975Y008578D03*
X022975Y008582D03*
X022975Y008586D03*
X022975Y008589D03*
X022971Y008597D03*
X022971Y008601D03*
X022971Y008605D03*
X022971Y008609D03*
X022967Y008613D03*
X022967Y008617D03*
X022967Y008621D03*
X022967Y008625D03*
X022967Y008629D03*
X022963Y008633D03*
X022963Y008637D03*
X022963Y008641D03*
X022963Y008645D03*
X022963Y008649D03*
X022960Y008652D03*
X022960Y008656D03*
X022960Y008660D03*
X022960Y008664D03*
X022956Y008672D03*
X022956Y008676D03*
X022956Y008680D03*
X022956Y008684D03*
X022952Y008692D03*
X022952Y008696D03*
X022952Y008700D03*
X022952Y008704D03*
X022948Y008711D03*
X022948Y008715D03*
X022948Y008719D03*
X022948Y008723D03*
X022944Y008731D03*
X022944Y008735D03*
X022944Y008739D03*
X022944Y008743D03*
X022944Y008747D03*
X022940Y008751D03*
X022940Y008755D03*
X022940Y008759D03*
X022940Y008763D03*
X022940Y008767D03*
X022936Y008771D03*
X022936Y008774D03*
X022936Y008778D03*
X022936Y008782D03*
X022936Y008786D03*
X022932Y008794D03*
X022932Y008798D03*
X022932Y008802D03*
X022932Y008806D03*
X022928Y008814D03*
X022928Y008818D03*
X022928Y008822D03*
X022928Y008826D03*
X022928Y008830D03*
X022924Y008834D03*
X022924Y008837D03*
X022924Y008841D03*
X022924Y008845D03*
X022924Y008849D03*
X022920Y008853D03*
X022920Y008857D03*
X022920Y008861D03*
X022920Y008865D03*
X022920Y008869D03*
X022916Y008877D03*
X022916Y008881D03*
X022916Y008885D03*
X022916Y008889D03*
X022916Y008893D03*
X022912Y008897D03*
X022912Y008900D03*
X022912Y008904D03*
X022912Y008908D03*
X022912Y008912D03*
X022908Y008916D03*
X022908Y008920D03*
X022908Y008924D03*
X022908Y008928D03*
X022908Y008932D03*
X022904Y008940D03*
X022904Y008944D03*
X022904Y008948D03*
X022904Y008952D03*
X022900Y008960D03*
X022900Y008963D03*
X022900Y008967D03*
X022900Y008971D03*
X022900Y008975D03*
X022897Y008979D03*
X022897Y008983D03*
X022897Y008987D03*
X022897Y008991D03*
X022897Y008995D03*
X022893Y008999D03*
X022893Y009003D03*
X022893Y009007D03*
X022893Y009011D03*
X022893Y009015D03*
X022889Y009019D03*
X022889Y009023D03*
X022889Y009026D03*
X022889Y009030D03*
X022889Y009034D03*
X022885Y009038D03*
X022885Y009042D03*
X022885Y009046D03*
X022885Y009050D03*
X022885Y009054D03*
X022881Y009058D03*
X022881Y009062D03*
X022881Y009066D03*
X022881Y009070D03*
X022881Y009074D03*
X022877Y009078D03*
X022877Y009082D03*
X022877Y009086D03*
X022877Y009089D03*
X022877Y009093D03*
X022877Y009097D03*
X022873Y009101D03*
X022873Y009105D03*
X022873Y009109D03*
X022873Y009113D03*
X022873Y009117D03*
X022869Y009121D03*
X022869Y009125D03*
X022869Y009129D03*
X022869Y009133D03*
X022869Y009137D03*
X022865Y009141D03*
X022865Y009145D03*
X022865Y009149D03*
X022865Y009152D03*
X022865Y009156D03*
X022861Y009160D03*
X022861Y009164D03*
X022861Y009168D03*
X022861Y009172D03*
X022861Y009176D03*
X022857Y009180D03*
X022857Y009184D03*
X022857Y009188D03*
X022857Y009192D03*
X022853Y009200D03*
X022853Y009204D03*
X022853Y009208D03*
X022853Y009211D03*
X022849Y009219D03*
X022849Y009223D03*
X022849Y009227D03*
X022849Y009231D03*
X022845Y009239D03*
X022845Y009243D03*
X022845Y009247D03*
X022845Y009251D03*
X022845Y009255D03*
X022841Y009259D03*
X022841Y009263D03*
X022841Y009267D03*
X022841Y009271D03*
X022841Y009274D03*
X022837Y009278D03*
X022837Y009282D03*
X022837Y009286D03*
X022837Y009290D03*
X022837Y009294D03*
X022834Y009298D03*
X022834Y009302D03*
X022834Y009306D03*
X022834Y009310D03*
X022834Y009314D03*
X022830Y009318D03*
X022830Y009322D03*
X022830Y009326D03*
X022830Y009330D03*
X022826Y009341D03*
X022826Y009345D03*
X022826Y009349D03*
X022822Y009361D03*
X022822Y009365D03*
X022822Y009369D03*
X022818Y009385D03*
X022818Y009389D03*
X022818Y009393D03*
X022814Y009408D03*
X022814Y009412D03*
X022869Y010172D03*
X022763Y010613D03*
X022751Y010794D03*
X021845Y010121D03*
X021849Y008786D03*
X024188Y009200D03*
X024188Y009204D03*
X024188Y009208D03*
X024188Y009211D03*
X024188Y009215D03*
X024184Y009223D03*
X024184Y009227D03*
X024184Y009231D03*
X024184Y009235D03*
X024180Y009247D03*
X024180Y009251D03*
X024180Y009255D03*
X024180Y009259D03*
X024176Y009271D03*
X024176Y009274D03*
X024176Y009278D03*
X024172Y009294D03*
X024172Y009298D03*
X024172Y009302D03*
X024168Y009314D03*
X024168Y009318D03*
X024168Y009322D03*
X024164Y009337D03*
X024164Y009341D03*
X024160Y009361D03*
X024160Y009365D03*
X024156Y009385D03*
X024152Y009404D03*
X024152Y009408D03*
X024149Y009428D03*
X024192Y009192D03*
X024192Y009188D03*
X024192Y009184D03*
X024192Y009180D03*
X024196Y009172D03*
X024196Y009168D03*
X024196Y009164D03*
X024196Y009160D03*
X024196Y009156D03*
X024200Y009149D03*
X024200Y009145D03*
X024200Y009141D03*
X024200Y009137D03*
X024200Y009133D03*
X024204Y009129D03*
X024204Y009125D03*
X024204Y009121D03*
X024204Y009117D03*
X024204Y009113D03*
X024204Y009109D03*
X024208Y009105D03*
X024208Y009101D03*
X024208Y009097D03*
X024208Y009093D03*
X024208Y009089D03*
X024211Y009086D03*
X024211Y009082D03*
X024211Y009078D03*
X024211Y009074D03*
X024211Y009070D03*
X024211Y009066D03*
X024215Y009062D03*
X024215Y009058D03*
X024215Y009054D03*
X024215Y009050D03*
X024215Y009046D03*
X024219Y009038D03*
X024219Y009034D03*
X024219Y009030D03*
X024219Y009026D03*
X024219Y009023D03*
X024223Y009019D03*
X024223Y009015D03*
X024223Y009011D03*
X024223Y009007D03*
X024223Y009003D03*
X024227Y008995D03*
X024227Y008991D03*
X024227Y008987D03*
X024227Y008983D03*
X024227Y008979D03*
X024231Y008975D03*
X024231Y008971D03*
X024231Y008967D03*
X024231Y008963D03*
X024231Y008960D03*
X024235Y008952D03*
X024235Y008948D03*
X024235Y008944D03*
X024235Y008940D03*
X024235Y008936D03*
X024239Y008932D03*
X024239Y008928D03*
X024239Y008924D03*
X024239Y008920D03*
X024239Y008916D03*
X024243Y008908D03*
X024243Y008904D03*
X024243Y008900D03*
X024243Y008897D03*
X024247Y008885D03*
X024247Y008881D03*
X024247Y008877D03*
X024251Y008861D03*
X024251Y008857D03*
X024255Y008841D03*
X024255Y008837D03*
X024259Y008818D03*
X024637Y010259D03*
X023042Y011818D03*
X021302Y011613D03*
X019767Y011818D03*
X019719Y011629D03*
X019471Y011408D03*
X019515Y011223D03*
X017696Y010121D03*
X015908Y009841D03*
X015948Y008786D03*
X015593Y008782D03*
D50*
X021975Y009664D03*
X023956Y008578D03*
D51*
X023987Y008586D03*
X023121Y009550D03*
D52*
X024003Y008589D03*
X024353Y010314D03*
D53*
X023727Y009676D03*
X023101Y009542D03*
X024019Y008593D03*
D54*
X024032Y008597D03*
D55*
X024046Y008601D03*
X023082Y009534D03*
D56*
X023072Y009530D03*
X023619Y009649D03*
X024060Y008605D03*
X017895Y009184D03*
D57*
X017879Y009204D03*
X014706Y009574D03*
X023052Y009523D03*
X023871Y009704D03*
X024399Y010334D03*
X024087Y008613D03*
D58*
X024101Y008617D03*
X023881Y009708D03*
X024408Y010337D03*
X017869Y009215D03*
X014696Y009562D03*
D59*
X014684Y009546D03*
X017857Y009385D03*
X024113Y008621D03*
D60*
X024125Y008625D03*
X024428Y010345D03*
X017849Y009373D03*
X017849Y009239D03*
X014676Y009397D03*
X014676Y009534D03*
D61*
X014666Y009523D03*
X014666Y009408D03*
X017839Y009361D03*
X017839Y009251D03*
X024139Y008629D03*
X024438Y010349D03*
D62*
X024444Y010353D03*
X024152Y008633D03*
X019034Y009570D03*
X017830Y009349D03*
X014656Y009511D03*
D63*
X014647Y009436D03*
X017820Y009337D03*
X020477Y009345D03*
X020828Y009837D03*
X023619Y010184D03*
X023729Y010208D03*
X023749Y010211D03*
X023769Y010215D03*
X023804Y010223D03*
X023824Y010227D03*
X023977Y010259D03*
X024111Y010286D03*
X024131Y010290D03*
X024150Y010294D03*
X024170Y010298D03*
X024454Y010357D03*
X024166Y008637D03*
D64*
X024176Y008641D03*
X023948Y009735D03*
X024463Y010361D03*
X017810Y009326D03*
X017810Y009290D03*
X014637Y009448D03*
X014637Y009483D03*
D65*
X015530Y008881D03*
X018483Y008881D03*
X023495Y010149D03*
X024227Y008656D03*
D66*
X024241Y008660D03*
X021367Y009645D03*
X018481Y009731D03*
X016355Y009645D03*
X015517Y010046D03*
X015544Y008865D03*
D67*
X015554Y008853D03*
X018511Y008853D03*
X018495Y009747D03*
X019920Y009349D03*
X024255Y008664D03*
D68*
X024225Y008999D03*
X024217Y009042D03*
X023469Y010463D03*
X023926Y010798D03*
X022517Y010916D03*
X021887Y011412D03*
X021961Y011818D03*
X022847Y009235D03*
X022851Y009215D03*
X022855Y009196D03*
X022930Y008810D03*
X022934Y008790D03*
X022946Y008727D03*
X022950Y008708D03*
X022954Y008688D03*
X022958Y008668D03*
X018544Y009818D03*
X017694Y008786D03*
D69*
X018944Y009904D03*
X019948Y009007D03*
X020389Y008987D03*
X020385Y009314D03*
X022897Y009460D03*
X024042Y009771D03*
X024526Y010389D03*
X024267Y008668D03*
X016326Y008991D03*
X015566Y008837D03*
D70*
X015572Y008830D03*
X016312Y009003D03*
X018528Y008830D03*
X018922Y009609D03*
X018930Y009893D03*
X020371Y009302D03*
X021406Y008983D03*
X023422Y010125D03*
X024560Y010278D03*
X024560Y010282D03*
X024280Y008672D03*
D71*
X024294Y008676D03*
X024337Y008735D03*
X024337Y008739D03*
X024566Y010302D03*
X022767Y010723D03*
X022763Y010715D03*
X022759Y010708D03*
X022759Y010704D03*
X022755Y010700D03*
X021853Y009830D03*
X021424Y009605D03*
X020357Y009290D03*
X020361Y009011D03*
X019971Y009034D03*
X019967Y009030D03*
X018908Y009629D03*
X018916Y009877D03*
X018523Y009782D03*
X018538Y008818D03*
X016302Y009015D03*
X016298Y009019D03*
X016302Y009609D03*
X015550Y010093D03*
D72*
X016288Y009589D03*
X016284Y009046D03*
X016284Y009042D03*
X016288Y009038D03*
X018544Y008810D03*
X018895Y009660D03*
X018895Y009664D03*
X018895Y009668D03*
X018891Y009672D03*
X018891Y009676D03*
X018891Y009680D03*
X018891Y009684D03*
X018891Y009688D03*
X018891Y009692D03*
X018902Y009845D03*
X018902Y009849D03*
X018528Y009790D03*
X019977Y009290D03*
X019977Y009286D03*
X019981Y009278D03*
X019981Y009062D03*
X019981Y009058D03*
X020347Y009026D03*
X020343Y009267D03*
X021434Y009019D03*
X021438Y009582D03*
X022749Y010672D03*
X022749Y010676D03*
X022765Y010739D03*
X023308Y010023D03*
X024332Y008715D03*
X024308Y008680D03*
X021304Y011491D03*
X021324Y011546D03*
X021324Y011550D03*
D73*
X021324Y011574D03*
X021308Y011471D03*
X021847Y011381D03*
X021847Y011377D03*
X021847Y011373D03*
X021847Y011369D03*
X021847Y011365D03*
X021859Y011263D03*
X021859Y011259D03*
X021859Y011255D03*
X021859Y011251D03*
X021977Y011664D03*
X022458Y011589D03*
X022458Y011586D03*
X022458Y011582D03*
X022458Y011578D03*
X022446Y011475D03*
X022446Y011471D03*
X022446Y011467D03*
X022446Y011463D03*
X022544Y011074D03*
X022544Y011070D03*
X022560Y010952D03*
X022560Y010948D03*
X022560Y010944D03*
X022560Y010940D03*
X022761Y010751D03*
X022749Y010656D03*
X022954Y011050D03*
X023052Y011668D03*
X023710Y011550D03*
X023725Y011432D03*
X023725Y011428D03*
X023725Y011424D03*
X023725Y011420D03*
X023942Y010645D03*
X023493Y010625D03*
X023493Y010621D03*
X023493Y010617D03*
X023493Y010613D03*
X023505Y010507D03*
X023505Y010503D03*
X023505Y010499D03*
X023505Y010495D03*
X023316Y010042D03*
X022899Y010141D03*
X022855Y009440D03*
X021851Y008861D03*
X021851Y008857D03*
X021851Y008853D03*
X021851Y008849D03*
X021851Y008845D03*
X021450Y009070D03*
X021450Y009074D03*
X021450Y009078D03*
X021450Y009082D03*
X021450Y009318D03*
X021450Y009322D03*
X021450Y009326D03*
X021450Y009330D03*
X021450Y009334D03*
X021450Y009542D03*
X021450Y009546D03*
X021450Y009550D03*
X021851Y010034D03*
X021851Y010038D03*
X021851Y010042D03*
X021851Y010046D03*
X021851Y010050D03*
X021851Y010054D03*
X019485Y011255D03*
X019505Y011381D03*
X019733Y011782D03*
X019095Y011904D03*
X019107Y012015D03*
X019107Y012019D03*
X019107Y012023D03*
X019107Y012026D03*
X019107Y012030D03*
X015942Y009877D03*
X015942Y009668D03*
X015942Y009664D03*
X015942Y009660D03*
X015942Y009656D03*
X015942Y009652D03*
X015942Y008865D03*
X015942Y008861D03*
X015942Y008857D03*
X015942Y008853D03*
X014524Y008841D03*
X014524Y008837D03*
X024320Y008684D03*
X024324Y008688D03*
D74*
X024326Y008692D03*
X024326Y008696D03*
X023314Y010038D03*
X023377Y010109D03*
X023503Y010511D03*
X023503Y010515D03*
X023503Y010519D03*
X023503Y010523D03*
X023503Y010526D03*
X023495Y010593D03*
X023495Y010597D03*
X023495Y010601D03*
X023495Y010605D03*
X023495Y010609D03*
X023963Y010763D03*
X023963Y010767D03*
X023723Y011436D03*
X023723Y011440D03*
X023723Y011444D03*
X023723Y011448D03*
X023723Y011452D03*
X023723Y011456D03*
X023719Y011467D03*
X023719Y011471D03*
X023719Y011475D03*
X023719Y011479D03*
X023715Y011507D03*
X023715Y011511D03*
X023715Y011515D03*
X023715Y011519D03*
X023715Y011523D03*
X023715Y011526D03*
X023711Y011530D03*
X023711Y011534D03*
X023711Y011538D03*
X023711Y011542D03*
X023711Y011546D03*
X023074Y011786D03*
X022967Y011168D03*
X022967Y011164D03*
X022952Y011062D03*
X022952Y011058D03*
X022952Y011054D03*
X022554Y010999D03*
X022554Y010995D03*
X022554Y010991D03*
X022554Y010987D03*
X022558Y010971D03*
X022558Y010967D03*
X022558Y010963D03*
X022558Y010960D03*
X022558Y010956D03*
X022550Y011023D03*
X022550Y011026D03*
X022550Y011030D03*
X022550Y011034D03*
X022550Y011038D03*
X022546Y011050D03*
X022546Y011054D03*
X022546Y011058D03*
X022546Y011062D03*
X022546Y011066D03*
X022444Y011479D03*
X022448Y011503D03*
X022456Y011558D03*
X022456Y011562D03*
X022456Y011566D03*
X022456Y011570D03*
X022456Y011574D03*
X021975Y011668D03*
X021999Y011786D03*
X021857Y011282D03*
X021857Y011278D03*
X021857Y011274D03*
X021857Y011271D03*
X021857Y011267D03*
X021306Y011475D03*
X021326Y011570D03*
X020330Y011916D03*
X019731Y011778D03*
X019731Y011774D03*
X019751Y011664D03*
X019751Y011660D03*
X019507Y011377D03*
X019483Y011263D03*
X019483Y011259D03*
X019093Y011908D03*
X019093Y011912D03*
X019093Y011916D03*
X019093Y011920D03*
X019105Y011999D03*
X019105Y012003D03*
X019105Y012007D03*
X019105Y012011D03*
X018534Y009798D03*
X017700Y010026D03*
X017700Y010030D03*
X017700Y010034D03*
X017700Y010038D03*
X017700Y010042D03*
X017700Y010046D03*
X017700Y008885D03*
X017700Y008881D03*
X017700Y008877D03*
X017700Y008873D03*
X017700Y008869D03*
X017700Y008865D03*
X017700Y008861D03*
X018546Y008802D03*
X020326Y009089D03*
X020326Y009093D03*
X020326Y009097D03*
X020326Y009101D03*
X020326Y009105D03*
X020326Y009109D03*
X020326Y009113D03*
X020326Y009117D03*
X020326Y009121D03*
X020330Y009074D03*
X020326Y009192D03*
X020326Y009196D03*
X020326Y009200D03*
X020326Y009204D03*
X020326Y009208D03*
X021448Y009337D03*
X021448Y009554D03*
X021448Y009558D03*
X021853Y009558D03*
X021853Y009562D03*
X021853Y009566D03*
X021853Y009570D03*
X021853Y009574D03*
X021853Y009578D03*
X021853Y009582D03*
X021853Y009586D03*
X021853Y009589D03*
X021853Y009593D03*
X021853Y009597D03*
X021853Y009601D03*
X021853Y009605D03*
X021853Y009609D03*
X021853Y009613D03*
X021853Y009617D03*
X021853Y009621D03*
X021853Y009625D03*
X021853Y009554D03*
X021853Y009550D03*
X021853Y009546D03*
X021853Y009542D03*
X021853Y009538D03*
X021853Y009534D03*
X021853Y009530D03*
X021853Y009526D03*
X021853Y009523D03*
X021853Y009519D03*
X021853Y009515D03*
X021853Y009511D03*
X021853Y009507D03*
X021853Y009503D03*
X021853Y009499D03*
X021853Y009495D03*
X021853Y009491D03*
X021853Y009487D03*
X021853Y009483D03*
X021853Y009479D03*
X021853Y009475D03*
X021853Y009471D03*
X021853Y009467D03*
X021853Y009463D03*
X021853Y009460D03*
X021853Y009456D03*
X021853Y009452D03*
X021853Y009448D03*
X021853Y009444D03*
X021853Y009440D03*
X021853Y009436D03*
X021853Y009432D03*
X021853Y009428D03*
X021853Y009424D03*
X021853Y009420D03*
X021853Y009416D03*
X021853Y009412D03*
X021853Y009408D03*
X021853Y009404D03*
X021853Y009400D03*
X021853Y009397D03*
X021853Y009393D03*
X021853Y009389D03*
X021853Y009385D03*
X021853Y009381D03*
X021853Y009377D03*
X021853Y009373D03*
X021853Y009369D03*
X021853Y009365D03*
X021853Y009361D03*
X021853Y009357D03*
X021853Y009353D03*
X021853Y009349D03*
X021853Y009345D03*
X021853Y009341D03*
X021853Y009337D03*
X021853Y009334D03*
X021853Y009330D03*
X021853Y009326D03*
X021853Y009322D03*
X021853Y009318D03*
X021853Y009314D03*
X021853Y009310D03*
X021853Y009306D03*
X021853Y009302D03*
X021853Y009298D03*
X021853Y009294D03*
X021853Y009290D03*
X021853Y009286D03*
X021853Y009282D03*
X021853Y009278D03*
X021853Y009274D03*
X021853Y009271D03*
X021853Y009267D03*
X021853Y009263D03*
X021853Y009259D03*
X021853Y009255D03*
X021853Y009251D03*
X021853Y009247D03*
X021853Y009243D03*
X021853Y009239D03*
X021853Y009235D03*
X021853Y009231D03*
X021853Y009227D03*
X021853Y009223D03*
X021853Y009219D03*
X021853Y009215D03*
X021853Y009211D03*
X021853Y009208D03*
X021853Y009204D03*
X021853Y009200D03*
X021853Y009196D03*
X021853Y009192D03*
X021853Y009188D03*
X021853Y009184D03*
X021853Y009180D03*
X021853Y009176D03*
X021853Y009172D03*
X021853Y009168D03*
X021853Y009164D03*
X021853Y009160D03*
X021853Y009156D03*
X021853Y009152D03*
X021853Y009149D03*
X021853Y009145D03*
X021853Y009141D03*
X021853Y009137D03*
X021853Y009133D03*
X021853Y009129D03*
X021853Y009125D03*
X021853Y009121D03*
X021853Y009117D03*
X021853Y009113D03*
X021853Y009109D03*
X021853Y009105D03*
X021853Y009101D03*
X021853Y009097D03*
X021853Y009093D03*
X021853Y009089D03*
X021853Y009086D03*
X021853Y009082D03*
X021853Y009078D03*
X021853Y009074D03*
X021853Y009070D03*
X021853Y009066D03*
X021853Y009062D03*
X021853Y009058D03*
X021853Y009054D03*
X021853Y009050D03*
X021853Y009046D03*
X021853Y009042D03*
X021853Y009038D03*
X021853Y009034D03*
X021853Y009030D03*
X021853Y009026D03*
X021853Y009023D03*
X021853Y009019D03*
X021853Y009015D03*
X021853Y009011D03*
X021853Y009007D03*
X021853Y009003D03*
X021853Y008999D03*
X021853Y008995D03*
X021853Y008991D03*
X021853Y008987D03*
X021853Y008983D03*
X021853Y008979D03*
X021853Y008975D03*
X021853Y008971D03*
X021853Y008967D03*
X021853Y008963D03*
X021853Y008960D03*
X021853Y008956D03*
X021853Y008952D03*
X021853Y008948D03*
X021853Y008944D03*
X021853Y008940D03*
X021853Y008936D03*
X021853Y008932D03*
X021853Y008928D03*
X021853Y008924D03*
X021853Y008920D03*
X021853Y008916D03*
X021853Y008912D03*
X021853Y008908D03*
X021853Y008904D03*
X021853Y008900D03*
X021853Y008897D03*
X021853Y008893D03*
X021853Y008889D03*
X021853Y008885D03*
X021853Y008881D03*
X021853Y008877D03*
X021853Y008873D03*
X021853Y008869D03*
X021853Y008865D03*
X021448Y009058D03*
X021448Y009062D03*
X021448Y009066D03*
X021853Y009853D03*
X021853Y009857D03*
X021853Y009861D03*
X021853Y009865D03*
X021853Y009869D03*
X021853Y009873D03*
X021853Y009877D03*
X021853Y009881D03*
X021853Y009885D03*
X021853Y009889D03*
X021853Y009893D03*
X021853Y009897D03*
X021853Y009900D03*
X021853Y009904D03*
X021853Y009908D03*
X021853Y009912D03*
X021853Y009916D03*
X021853Y009920D03*
X021853Y009924D03*
X021853Y009928D03*
X021853Y009987D03*
X021853Y009991D03*
X021853Y009995D03*
X021853Y009999D03*
X021853Y010003D03*
X021853Y010007D03*
X021853Y010011D03*
X021853Y010015D03*
X021853Y010019D03*
X021853Y010023D03*
X021853Y010026D03*
X021853Y010030D03*
X022877Y010023D03*
X016274Y009542D03*
X016274Y009538D03*
X016274Y009534D03*
X016274Y009530D03*
X016274Y009526D03*
X016274Y009523D03*
X016274Y009519D03*
X016274Y009515D03*
X016274Y009511D03*
X016274Y009507D03*
X016274Y009503D03*
X016274Y009499D03*
X016274Y009495D03*
X016274Y009491D03*
X016274Y009487D03*
X016274Y009483D03*
X016274Y009479D03*
X016274Y009475D03*
X016274Y009471D03*
X016274Y009467D03*
X016274Y009463D03*
X016274Y009460D03*
X016274Y009456D03*
X016274Y009452D03*
X016274Y009448D03*
X016274Y009444D03*
X016274Y009440D03*
X016274Y009436D03*
X016274Y009432D03*
X016274Y009428D03*
X016274Y009424D03*
X016274Y009420D03*
X016274Y009416D03*
X016274Y009412D03*
X016274Y009408D03*
X016274Y009404D03*
X016274Y009400D03*
X016274Y009397D03*
X016274Y009393D03*
X016274Y009389D03*
X016274Y009385D03*
X016274Y009381D03*
X016274Y009377D03*
X016274Y009373D03*
X016274Y009369D03*
X016274Y009365D03*
X016274Y009361D03*
X016274Y009357D03*
X016274Y009353D03*
X016274Y009349D03*
X016274Y009345D03*
X016274Y009341D03*
X016274Y009337D03*
X016274Y009334D03*
X016274Y009330D03*
X016274Y009326D03*
X016274Y009322D03*
X016274Y009318D03*
X016274Y009314D03*
X016274Y009310D03*
X016274Y009306D03*
X016274Y009302D03*
X016274Y009298D03*
X016274Y009294D03*
X016274Y009290D03*
X016274Y009286D03*
X016274Y009282D03*
X016274Y009278D03*
X016274Y009274D03*
X016274Y009271D03*
X016274Y009267D03*
X016274Y009263D03*
X016274Y009259D03*
X016274Y009255D03*
X016274Y009251D03*
X016274Y009247D03*
X016274Y009243D03*
X016274Y009239D03*
X016274Y009235D03*
X016274Y009231D03*
X016274Y009227D03*
X016274Y009223D03*
X016274Y009219D03*
X016274Y009215D03*
X016274Y009211D03*
X016274Y009208D03*
X016274Y009204D03*
X016274Y009200D03*
X016274Y009196D03*
X016274Y009192D03*
X016274Y009188D03*
X016274Y009184D03*
X016274Y009180D03*
X016274Y009176D03*
X016274Y009172D03*
X016274Y009168D03*
X016274Y009164D03*
X016274Y009160D03*
X016274Y009156D03*
X016274Y009152D03*
X016274Y009149D03*
X016274Y009145D03*
X016274Y009141D03*
X016274Y009137D03*
X016274Y009133D03*
X016274Y009129D03*
X016274Y009125D03*
X016274Y009121D03*
X016274Y009117D03*
X016274Y009113D03*
X016274Y009109D03*
X016274Y009105D03*
X016274Y009101D03*
X016274Y009097D03*
X016274Y009093D03*
X016274Y009089D03*
X015940Y009089D03*
X015940Y009086D03*
X015940Y009082D03*
X015940Y009078D03*
X015940Y009074D03*
X015940Y009070D03*
X015940Y009066D03*
X015940Y009062D03*
X015940Y009058D03*
X015940Y009054D03*
X015940Y009050D03*
X015940Y009046D03*
X015940Y009042D03*
X015940Y009038D03*
X015940Y009034D03*
X015940Y009030D03*
X015940Y009026D03*
X015940Y009023D03*
X015940Y009019D03*
X015940Y009015D03*
X015940Y009011D03*
X015940Y009007D03*
X015940Y009003D03*
X015940Y008999D03*
X015940Y008995D03*
X015940Y008991D03*
X015940Y008987D03*
X015940Y008983D03*
X015940Y008979D03*
X015940Y008975D03*
X015940Y008971D03*
X015940Y008967D03*
X015940Y008963D03*
X015940Y008960D03*
X015940Y008956D03*
X015940Y008952D03*
X015940Y008948D03*
X015940Y008944D03*
X015940Y008940D03*
X015940Y008936D03*
X015940Y008932D03*
X015940Y008928D03*
X015940Y008924D03*
X015940Y008920D03*
X015940Y008916D03*
X015940Y008912D03*
X015940Y008908D03*
X015940Y008904D03*
X015940Y008900D03*
X015940Y008897D03*
X015940Y008893D03*
X015940Y008889D03*
X015940Y008885D03*
X015940Y008881D03*
X015940Y008877D03*
X015940Y008873D03*
X015940Y008869D03*
X015940Y009093D03*
X015940Y009097D03*
X015940Y009101D03*
X015940Y009105D03*
X015940Y009109D03*
X015940Y009113D03*
X015940Y009117D03*
X015940Y009121D03*
X015940Y009125D03*
X015940Y009129D03*
X015940Y009133D03*
X015940Y009137D03*
X015940Y009141D03*
X015940Y009145D03*
X015940Y009149D03*
X015940Y009152D03*
X015940Y009156D03*
X015940Y009160D03*
X015940Y009164D03*
X015940Y009168D03*
X015940Y009172D03*
X015940Y009176D03*
X015940Y009180D03*
X015940Y009184D03*
X015940Y009188D03*
X015940Y009192D03*
X015940Y009196D03*
X015940Y009200D03*
X015940Y009204D03*
X015940Y009208D03*
X015940Y009211D03*
X015940Y009215D03*
X015940Y009219D03*
X015940Y009223D03*
X015940Y009227D03*
X015940Y009231D03*
X015940Y009235D03*
X015940Y009239D03*
X015940Y009243D03*
X015940Y009247D03*
X015940Y009251D03*
X015940Y009255D03*
X015940Y009259D03*
X015940Y009263D03*
X015940Y009267D03*
X015940Y009271D03*
X015940Y009274D03*
X015940Y009278D03*
X015940Y009282D03*
X015940Y009286D03*
X015940Y009290D03*
X015940Y009294D03*
X015940Y009298D03*
X015940Y009302D03*
X015940Y009306D03*
X015940Y009310D03*
X015940Y009314D03*
X015940Y009318D03*
X015940Y009322D03*
X015940Y009326D03*
X015940Y009330D03*
X015940Y009334D03*
X015940Y009337D03*
X015940Y009341D03*
X015940Y009345D03*
X015940Y009349D03*
X015940Y009353D03*
X015940Y009357D03*
X015940Y009361D03*
X015940Y009365D03*
X015940Y009369D03*
X015940Y009373D03*
X015940Y009377D03*
X015940Y009381D03*
X015940Y009385D03*
X015940Y009389D03*
X015940Y009393D03*
X015940Y009397D03*
X015940Y009400D03*
X015940Y009404D03*
X015940Y009408D03*
X015940Y009412D03*
X015940Y009416D03*
X015940Y009420D03*
X015940Y009424D03*
X015940Y009428D03*
X015940Y009432D03*
X015940Y009436D03*
X015940Y009440D03*
X015940Y009444D03*
X015940Y009448D03*
X015940Y009452D03*
X015940Y009456D03*
X015940Y009460D03*
X015940Y009463D03*
X015940Y009467D03*
X015940Y009471D03*
X015940Y009475D03*
X015940Y009479D03*
X015940Y009483D03*
X015940Y009487D03*
X015940Y009491D03*
X015940Y009495D03*
X015940Y009499D03*
X015940Y009503D03*
X015940Y009507D03*
X015940Y009511D03*
X015940Y009515D03*
X015940Y009519D03*
X015940Y009523D03*
X015940Y009526D03*
X015940Y009530D03*
X015940Y009534D03*
X015940Y009538D03*
X015940Y009542D03*
X015940Y009546D03*
X015940Y009550D03*
X015940Y009554D03*
X015940Y009558D03*
X015940Y009562D03*
X015940Y009566D03*
X015940Y009570D03*
X015940Y009574D03*
X015940Y009578D03*
X015940Y009582D03*
X015940Y009586D03*
X015940Y009589D03*
X015940Y009593D03*
X015940Y009597D03*
X015940Y009601D03*
X015940Y009605D03*
X015940Y009609D03*
X015940Y009613D03*
X015940Y009617D03*
X015940Y009621D03*
X015940Y009625D03*
X015940Y009629D03*
X015940Y009633D03*
X015940Y009637D03*
X015940Y009641D03*
X015940Y009645D03*
X015940Y009649D03*
X015944Y009881D03*
X015920Y009999D03*
X015558Y010109D03*
X014526Y010070D03*
X014526Y010066D03*
X014526Y010062D03*
X014526Y010058D03*
X014526Y010054D03*
X014526Y010050D03*
X014526Y010046D03*
X014526Y010042D03*
X014526Y010038D03*
X014526Y010034D03*
X014526Y010030D03*
X014526Y010026D03*
X014526Y010023D03*
X014526Y010019D03*
X014526Y010015D03*
X014526Y010011D03*
X014526Y010007D03*
X014526Y010003D03*
X014526Y009999D03*
X014526Y009995D03*
X014526Y009991D03*
X014526Y009987D03*
X014526Y009983D03*
X014526Y009979D03*
X014526Y009975D03*
X014526Y009971D03*
X014526Y009967D03*
X014526Y009963D03*
X014526Y009960D03*
X014526Y009956D03*
X014526Y009952D03*
X014526Y009948D03*
X014526Y009944D03*
X014526Y009940D03*
X014526Y009936D03*
X014526Y009932D03*
X014526Y009928D03*
X014526Y009924D03*
X014526Y009920D03*
X014526Y009916D03*
X014526Y009912D03*
X014526Y009908D03*
X014526Y009904D03*
X014526Y009900D03*
X014526Y009897D03*
X014526Y009893D03*
X014526Y009889D03*
X014526Y009885D03*
X014526Y009881D03*
X014526Y009877D03*
X014526Y009873D03*
X014526Y009869D03*
X014526Y009865D03*
X014526Y009861D03*
X014526Y009857D03*
X014526Y009853D03*
X014526Y009849D03*
X014526Y009845D03*
X014526Y009841D03*
X014526Y009837D03*
X014526Y009834D03*
X014526Y009830D03*
X014526Y009826D03*
X014526Y009822D03*
X014526Y009818D03*
X014526Y009814D03*
X014526Y009810D03*
X014526Y009806D03*
X014526Y009802D03*
X014526Y009798D03*
X014526Y009794D03*
X014526Y009790D03*
X014526Y009786D03*
X014526Y009782D03*
X014526Y009778D03*
X014526Y009774D03*
X014526Y009771D03*
X014526Y009767D03*
X014526Y009763D03*
X014526Y009759D03*
X014526Y009755D03*
X014526Y009751D03*
X014526Y009747D03*
X014526Y009743D03*
X014526Y009739D03*
X014526Y009735D03*
X014526Y009731D03*
X014526Y009727D03*
X014526Y009723D03*
X014526Y009719D03*
X014526Y009715D03*
X014526Y009711D03*
X014526Y009708D03*
X014526Y009704D03*
X014526Y009700D03*
X014526Y009696D03*
X014526Y009692D03*
X014526Y009688D03*
X014526Y009684D03*
X014526Y009680D03*
X014526Y009676D03*
X014526Y009672D03*
X014526Y009668D03*
X014526Y009664D03*
X014526Y009660D03*
X014526Y009656D03*
X014526Y009652D03*
X014526Y009649D03*
X014526Y009243D03*
X014526Y009239D03*
X014526Y009235D03*
X014526Y009231D03*
X014526Y009227D03*
X014526Y009223D03*
X014526Y009219D03*
X014526Y009215D03*
X014526Y009211D03*
X014526Y009208D03*
X014526Y009204D03*
X014526Y009200D03*
X014526Y009196D03*
X014526Y009192D03*
X014526Y009188D03*
X014526Y009184D03*
X014526Y009180D03*
X014526Y009176D03*
X014526Y009172D03*
X014526Y009168D03*
X014526Y009164D03*
X014526Y009160D03*
X014526Y009156D03*
X014526Y009152D03*
X014526Y009149D03*
X014526Y009145D03*
X014526Y009141D03*
X014526Y009137D03*
X014526Y009133D03*
X014526Y009129D03*
X014526Y009125D03*
X014526Y009121D03*
X014526Y009117D03*
X014526Y009113D03*
X014526Y009109D03*
X014526Y009105D03*
X014526Y009101D03*
X014526Y009097D03*
X014526Y009093D03*
X014526Y009089D03*
X014526Y009086D03*
X014526Y009082D03*
X014526Y009078D03*
X014526Y009074D03*
X014526Y009070D03*
X014526Y009066D03*
X014526Y009062D03*
X014526Y009058D03*
X014526Y009054D03*
X014526Y009050D03*
X014526Y009046D03*
X014526Y009042D03*
X014526Y009038D03*
X014526Y009034D03*
X014526Y009030D03*
X014526Y009026D03*
X014526Y009023D03*
X014526Y009019D03*
X014526Y009015D03*
X014526Y009011D03*
X014526Y009007D03*
X014526Y009003D03*
X014526Y008999D03*
X014526Y008995D03*
X014526Y008991D03*
X014526Y008987D03*
X014526Y008983D03*
X014526Y008979D03*
X014526Y008975D03*
X014526Y008971D03*
X014526Y008967D03*
X014526Y008963D03*
X014526Y008960D03*
X014526Y008956D03*
X014526Y008952D03*
X014526Y008948D03*
X014526Y008944D03*
X014526Y008940D03*
X014526Y008936D03*
X014526Y008932D03*
X014526Y008928D03*
X014526Y008924D03*
X014526Y008920D03*
X014526Y008916D03*
X014526Y008912D03*
X014526Y008908D03*
X014526Y008904D03*
X014526Y008900D03*
X014526Y008897D03*
X014526Y008893D03*
X014526Y008889D03*
X014526Y008885D03*
X014526Y008881D03*
X014526Y008877D03*
X014526Y008873D03*
X014526Y008869D03*
X014526Y008865D03*
X014526Y008861D03*
X014526Y008857D03*
X014526Y008853D03*
X014526Y008849D03*
X014526Y008845D03*
D75*
X014528Y009247D03*
X014528Y009251D03*
X014528Y009255D03*
X014528Y009259D03*
X014528Y009263D03*
X014528Y009267D03*
X014528Y009271D03*
X014528Y009274D03*
X014528Y009278D03*
X014528Y009282D03*
X014528Y009286D03*
X014528Y009290D03*
X014528Y009294D03*
X014528Y009298D03*
X014528Y009302D03*
X014528Y009306D03*
X014528Y009310D03*
X014528Y009593D03*
X014528Y009597D03*
X014528Y009601D03*
X014528Y009605D03*
X014528Y009609D03*
X014528Y009613D03*
X014528Y009617D03*
X014528Y009621D03*
X014528Y009625D03*
X014528Y009629D03*
X014528Y009633D03*
X014528Y009637D03*
X014528Y009641D03*
X014528Y009645D03*
X015587Y008802D03*
X016276Y009074D03*
X016276Y009078D03*
X016276Y009082D03*
X016276Y009086D03*
X016276Y009546D03*
X016276Y009550D03*
X016276Y009554D03*
X016276Y009558D03*
X015942Y009885D03*
X015942Y009889D03*
X015942Y009893D03*
X015922Y009979D03*
X015922Y009983D03*
X015922Y009987D03*
X015918Y009991D03*
X015918Y009995D03*
X017702Y009995D03*
X017702Y009999D03*
X017702Y010003D03*
X017702Y010007D03*
X017702Y010011D03*
X017702Y010015D03*
X017702Y010019D03*
X017702Y010023D03*
X017702Y009991D03*
X017702Y009987D03*
X017702Y009983D03*
X017702Y009979D03*
X017702Y009975D03*
X017702Y009971D03*
X017702Y009967D03*
X017702Y009963D03*
X017702Y009960D03*
X017702Y009956D03*
X017702Y009952D03*
X017702Y009948D03*
X017702Y009944D03*
X017702Y009940D03*
X017702Y009936D03*
X017702Y009932D03*
X017702Y009928D03*
X017702Y009924D03*
X017702Y009920D03*
X017702Y009916D03*
X017702Y009912D03*
X017702Y009908D03*
X017702Y009904D03*
X017702Y009900D03*
X017702Y009897D03*
X017702Y009893D03*
X017702Y009889D03*
X017702Y009885D03*
X017702Y009881D03*
X017702Y009877D03*
X017702Y009873D03*
X017702Y009869D03*
X017702Y009865D03*
X017702Y009861D03*
X017702Y009857D03*
X017702Y009853D03*
X017702Y009849D03*
X017702Y009845D03*
X017702Y009841D03*
X017702Y009837D03*
X017702Y009834D03*
X017702Y009830D03*
X017702Y009826D03*
X017702Y009822D03*
X017702Y009818D03*
X017702Y009814D03*
X017702Y009810D03*
X017702Y009806D03*
X017702Y009802D03*
X017702Y009798D03*
X017702Y009794D03*
X017702Y009790D03*
X017702Y009786D03*
X017702Y009782D03*
X017702Y009778D03*
X017702Y009774D03*
X017702Y009771D03*
X017702Y009767D03*
X017702Y009763D03*
X017702Y009759D03*
X017702Y009755D03*
X017702Y009751D03*
X017702Y009747D03*
X017702Y009743D03*
X017702Y009739D03*
X017702Y009735D03*
X017702Y009731D03*
X017702Y009727D03*
X017702Y009723D03*
X017702Y009719D03*
X017702Y009715D03*
X017702Y009711D03*
X017702Y009708D03*
X017702Y009704D03*
X017702Y009700D03*
X017702Y009696D03*
X017702Y009692D03*
X017702Y009688D03*
X017702Y009684D03*
X017702Y009680D03*
X017702Y009676D03*
X017702Y009672D03*
X017702Y009668D03*
X017702Y009664D03*
X017702Y009660D03*
X017702Y009656D03*
X017702Y009652D03*
X017702Y009649D03*
X017702Y009645D03*
X017702Y009641D03*
X017702Y009637D03*
X017702Y009633D03*
X017702Y009629D03*
X017702Y009625D03*
X017702Y009621D03*
X017702Y009617D03*
X017702Y009613D03*
X017702Y009609D03*
X017702Y009605D03*
X017702Y009601D03*
X017702Y009597D03*
X017702Y009593D03*
X017702Y009589D03*
X017702Y009586D03*
X017702Y009582D03*
X017702Y009578D03*
X017702Y009574D03*
X017702Y009570D03*
X017702Y009566D03*
X017702Y009562D03*
X017702Y009558D03*
X017702Y009554D03*
X017702Y009550D03*
X017702Y009546D03*
X017702Y009542D03*
X017702Y009538D03*
X017702Y009534D03*
X017702Y009530D03*
X017702Y009526D03*
X017702Y009523D03*
X017702Y009519D03*
X017702Y009515D03*
X017702Y009511D03*
X017702Y009507D03*
X017702Y009503D03*
X017702Y009499D03*
X017702Y009495D03*
X017702Y009491D03*
X017702Y009487D03*
X017702Y009483D03*
X017702Y009479D03*
X017702Y009475D03*
X017702Y009471D03*
X017702Y009467D03*
X017702Y009463D03*
X017702Y009460D03*
X017702Y009456D03*
X017702Y009452D03*
X017702Y009448D03*
X017702Y009444D03*
X017702Y009440D03*
X017702Y009436D03*
X017702Y009432D03*
X017702Y009428D03*
X017702Y009180D03*
X017702Y009176D03*
X017702Y009172D03*
X017702Y009168D03*
X017702Y009164D03*
X017702Y009160D03*
X017702Y009156D03*
X017702Y009152D03*
X017702Y009149D03*
X017702Y009145D03*
X017702Y009141D03*
X017702Y009137D03*
X017702Y009133D03*
X017702Y009129D03*
X017702Y009125D03*
X017702Y009121D03*
X017702Y009117D03*
X017702Y009113D03*
X017702Y009109D03*
X017702Y009105D03*
X017702Y009101D03*
X017702Y009097D03*
X017702Y009093D03*
X017702Y009089D03*
X017702Y009086D03*
X017702Y009082D03*
X017702Y009078D03*
X017702Y009074D03*
X017702Y009070D03*
X017702Y009066D03*
X017702Y009062D03*
X017702Y009058D03*
X017702Y009054D03*
X017702Y009050D03*
X017702Y009046D03*
X017702Y009042D03*
X017702Y009038D03*
X017702Y009034D03*
X017702Y009030D03*
X017702Y009026D03*
X017702Y009023D03*
X017702Y009019D03*
X017702Y009015D03*
X017702Y009011D03*
X017702Y009007D03*
X017702Y009003D03*
X017702Y008999D03*
X017702Y008995D03*
X017702Y008991D03*
X017702Y008987D03*
X017702Y008983D03*
X017702Y008979D03*
X017702Y008975D03*
X017702Y008971D03*
X017702Y008967D03*
X017702Y008963D03*
X017702Y008960D03*
X017702Y008956D03*
X017702Y008952D03*
X017702Y008948D03*
X017702Y008944D03*
X017702Y008940D03*
X017702Y008936D03*
X017702Y008932D03*
X017702Y008928D03*
X017702Y008924D03*
X017702Y008920D03*
X017702Y008916D03*
X017702Y008912D03*
X017702Y008908D03*
X017702Y008904D03*
X017702Y008900D03*
X017702Y008897D03*
X017702Y008893D03*
X017702Y008889D03*
X019989Y009101D03*
X019989Y009105D03*
X019989Y009109D03*
X019989Y009113D03*
X019989Y009117D03*
X019989Y009121D03*
X019989Y009125D03*
X019989Y009129D03*
X019989Y009133D03*
X019989Y009137D03*
X019989Y009141D03*
X019989Y009145D03*
X019989Y009149D03*
X019989Y009152D03*
X019989Y009156D03*
X019989Y009160D03*
X019989Y009164D03*
X019989Y009168D03*
X019989Y009172D03*
X019989Y009176D03*
X019989Y009180D03*
X019989Y009184D03*
X019989Y009188D03*
X019989Y009192D03*
X019989Y009196D03*
X019989Y009200D03*
X019989Y009204D03*
X019989Y009208D03*
X019989Y009211D03*
X019989Y009215D03*
X019989Y009219D03*
X019989Y009223D03*
X019989Y009227D03*
X019989Y009231D03*
X019989Y009235D03*
X020324Y009188D03*
X020324Y009184D03*
X020324Y009180D03*
X020324Y009176D03*
X020324Y009172D03*
X020324Y009168D03*
X020324Y009164D03*
X020324Y009160D03*
X020324Y009156D03*
X020324Y009152D03*
X020324Y009149D03*
X020324Y009145D03*
X020324Y009141D03*
X020324Y009137D03*
X020324Y009133D03*
X020324Y009129D03*
X020324Y009125D03*
X020328Y009086D03*
X020328Y009082D03*
X020328Y009078D03*
X020332Y009070D03*
X020332Y009066D03*
X020332Y009062D03*
X020328Y009211D03*
X020328Y009215D03*
X020328Y009219D03*
X020328Y009223D03*
X020328Y009227D03*
X020332Y009239D03*
X021446Y009054D03*
X021446Y009050D03*
X021446Y009046D03*
X021446Y009562D03*
X021855Y009629D03*
X021855Y009633D03*
X021851Y009834D03*
X021851Y009837D03*
X021851Y009841D03*
X021851Y009845D03*
X021851Y009849D03*
X021855Y009932D03*
X021855Y009936D03*
X021855Y009940D03*
X021855Y009944D03*
X021855Y009948D03*
X021855Y009952D03*
X021855Y009956D03*
X021855Y009960D03*
X021855Y009963D03*
X021855Y009967D03*
X021855Y009971D03*
X021855Y009975D03*
X021855Y009979D03*
X021855Y009983D03*
X022875Y010026D03*
X022899Y010129D03*
X022902Y010137D03*
X022749Y010660D03*
X022761Y010747D03*
X022556Y010975D03*
X022556Y010979D03*
X022556Y010983D03*
X022552Y011003D03*
X022552Y011007D03*
X022552Y011011D03*
X022552Y011015D03*
X022552Y011019D03*
X022548Y011042D03*
X022548Y011046D03*
X022954Y011066D03*
X022954Y011070D03*
X022954Y011074D03*
X022954Y011078D03*
X022958Y011093D03*
X022958Y011097D03*
X022969Y011160D03*
X023052Y011672D03*
X023052Y011676D03*
X023052Y011680D03*
X023076Y011778D03*
X023076Y011782D03*
X023717Y011503D03*
X023717Y011499D03*
X023717Y011495D03*
X023717Y011491D03*
X023717Y011487D03*
X023717Y011483D03*
X023721Y011463D03*
X023721Y011460D03*
X023961Y010759D03*
X023961Y010755D03*
X023961Y010751D03*
X023961Y010747D03*
X023958Y010739D03*
X023958Y010735D03*
X023942Y010660D03*
X023942Y010656D03*
X023942Y010652D03*
X023942Y010649D03*
X023497Y010589D03*
X023497Y010586D03*
X023497Y010582D03*
X023497Y010578D03*
X023497Y010574D03*
X023501Y010550D03*
X023501Y010546D03*
X023501Y010542D03*
X023501Y010538D03*
X023501Y010534D03*
X023501Y010530D03*
X022446Y011483D03*
X022446Y011487D03*
X022446Y011491D03*
X022446Y011495D03*
X022446Y011499D03*
X022450Y011507D03*
X022450Y011511D03*
X022450Y011515D03*
X022450Y011519D03*
X022450Y011523D03*
X022450Y011526D03*
X022450Y011530D03*
X022450Y011534D03*
X022454Y011538D03*
X022454Y011542D03*
X022454Y011546D03*
X022454Y011550D03*
X022454Y011554D03*
X021977Y011680D03*
X021977Y011684D03*
X021977Y011688D03*
X021973Y011672D03*
X021989Y011747D03*
X021993Y011763D03*
X021993Y011767D03*
X021993Y011771D03*
X021997Y011774D03*
X021997Y011778D03*
X021997Y011782D03*
X021847Y011361D03*
X021847Y011357D03*
X021847Y011353D03*
X021847Y011349D03*
X021851Y011341D03*
X021851Y011337D03*
X021851Y011334D03*
X021851Y011330D03*
X021851Y011326D03*
X021855Y011302D03*
X021855Y011298D03*
X021855Y011294D03*
X021855Y011290D03*
X021855Y011286D03*
X020328Y011920D03*
X020328Y011924D03*
X020332Y011936D03*
X020332Y011940D03*
X020347Y012011D03*
X020347Y012015D03*
X020347Y012019D03*
X020347Y012023D03*
X020351Y012026D03*
X020351Y012030D03*
X020351Y012034D03*
X019733Y011763D03*
X019733Y011759D03*
X019737Y011743D03*
X019741Y011719D03*
X019745Y011700D03*
X019745Y011696D03*
X019749Y011680D03*
X019749Y011676D03*
X019749Y011672D03*
X019749Y011668D03*
X019505Y011373D03*
X019505Y011369D03*
X019505Y011365D03*
X019501Y011357D03*
X019501Y011353D03*
X019485Y011274D03*
X019485Y011271D03*
X019485Y011267D03*
X019095Y011924D03*
X019095Y011928D03*
X019095Y011932D03*
X019095Y011936D03*
X019095Y011940D03*
X019099Y011948D03*
X019099Y011952D03*
X019099Y011956D03*
X019099Y011960D03*
X019099Y011963D03*
X019099Y011967D03*
X019099Y011971D03*
X019099Y011975D03*
X019103Y011979D03*
X019103Y011983D03*
X019103Y011987D03*
X019103Y011991D03*
X019103Y011995D03*
X024328Y008700D03*
D76*
X024328Y008704D03*
X024091Y009790D03*
X023387Y010113D03*
X023312Y010030D03*
X022895Y010109D03*
X022895Y010113D03*
X022891Y010101D03*
X022891Y010097D03*
X022891Y010093D03*
X022891Y010089D03*
X022887Y010086D03*
X022887Y010082D03*
X022887Y010078D03*
X022887Y010074D03*
X022883Y010066D03*
X022883Y010062D03*
X022883Y010058D03*
X022863Y009444D03*
X022749Y010668D03*
X022765Y010743D03*
X023056Y011696D03*
X023056Y011700D03*
X023056Y011704D03*
X023056Y011708D03*
X023060Y011711D03*
X023060Y011715D03*
X023060Y011719D03*
X023060Y011723D03*
X023064Y011731D03*
X023064Y011735D03*
X023064Y011739D03*
X023064Y011743D03*
X023068Y011747D03*
X023068Y011751D03*
X023068Y011755D03*
X023072Y011767D03*
X021985Y011727D03*
X021981Y011708D03*
X021304Y011483D03*
X020336Y011960D03*
X020339Y011975D03*
X020339Y011979D03*
X019493Y011318D03*
X019493Y011314D03*
X019489Y011294D03*
X018895Y009822D03*
X018895Y009818D03*
X018895Y009814D03*
X018895Y009810D03*
X018891Y009798D03*
X018891Y009794D03*
X018891Y009790D03*
X018891Y009786D03*
X018891Y009782D03*
X018891Y009778D03*
X018544Y008806D03*
X019985Y009074D03*
X019985Y009078D03*
X019985Y009082D03*
X019985Y009259D03*
X019985Y009263D03*
X019985Y009267D03*
X020336Y009255D03*
X020336Y009251D03*
X020336Y009050D03*
X020339Y009042D03*
X021442Y009034D03*
X021442Y009574D03*
X023950Y010696D03*
X023950Y010700D03*
X016284Y009578D03*
X016280Y009574D03*
X016280Y009570D03*
X015938Y009908D03*
X015938Y009912D03*
X015934Y009924D03*
X015934Y009928D03*
X015934Y009932D03*
X015930Y009944D03*
X015930Y009948D03*
X015926Y009963D03*
X015556Y010105D03*
X016280Y009058D03*
X016280Y009054D03*
X015587Y008806D03*
D77*
X016282Y009050D03*
X016286Y009582D03*
X016286Y009586D03*
X018889Y009696D03*
X018889Y009700D03*
X018889Y009704D03*
X018889Y009708D03*
X018889Y009711D03*
X018889Y009715D03*
X018889Y009719D03*
X018889Y009723D03*
X018889Y009727D03*
X018889Y009731D03*
X018889Y009735D03*
X018889Y009739D03*
X018889Y009743D03*
X018889Y009747D03*
X018889Y009751D03*
X018889Y009755D03*
X018889Y009759D03*
X018889Y009763D03*
X018889Y009767D03*
X018889Y009771D03*
X018889Y009774D03*
X018893Y009802D03*
X018893Y009806D03*
X018897Y009826D03*
X018897Y009830D03*
X018897Y009834D03*
X018900Y009837D03*
X018900Y009841D03*
X019979Y009282D03*
X019983Y009274D03*
X019983Y009271D03*
X019983Y009070D03*
X019983Y009066D03*
X020341Y009038D03*
X020341Y009034D03*
X020345Y009030D03*
X020337Y009259D03*
X020341Y009263D03*
X021436Y009023D03*
X021440Y009026D03*
X021440Y009030D03*
X021440Y009578D03*
X022885Y010070D03*
X023310Y010026D03*
X024330Y008711D03*
X024330Y008708D03*
X024554Y010400D03*
X023062Y011727D03*
X021326Y011558D03*
X021326Y011554D03*
X021306Y011487D03*
D78*
X021306Y011495D03*
X021306Y011499D03*
X021310Y011503D03*
X021310Y011507D03*
X021314Y011515D03*
X021314Y011519D03*
X021318Y011526D03*
X021322Y011538D03*
X021322Y011542D03*
X022763Y010735D03*
X022751Y010680D03*
X023310Y010019D03*
X024082Y009786D03*
X024334Y008723D03*
X024334Y008719D03*
X021432Y009011D03*
X021432Y009015D03*
X021436Y009586D03*
X020345Y009271D03*
X020349Y009023D03*
X019979Y009050D03*
X019979Y009054D03*
X019975Y009294D03*
X018897Y009652D03*
X018897Y009656D03*
X018904Y009853D03*
X016290Y009593D03*
X016290Y009034D03*
X015586Y008810D03*
X015554Y010101D03*
D79*
X016296Y009023D03*
X015580Y008818D03*
X018906Y009633D03*
X018914Y009873D03*
X019965Y009310D03*
X019969Y009306D03*
X019973Y009038D03*
X020355Y009286D03*
X021422Y008999D03*
X021426Y009003D03*
X021426Y009601D03*
X021839Y009637D03*
X022753Y010692D03*
X022753Y010696D03*
X022765Y010727D03*
X024072Y009782D03*
X024568Y010306D03*
X024544Y010397D03*
X024336Y008731D03*
D80*
X024393Y008743D03*
X024397Y008751D03*
X024400Y008755D03*
X024404Y008759D03*
X024408Y008767D03*
X024412Y008771D03*
X024416Y008774D03*
X024416Y008778D03*
X024420Y008782D03*
X024424Y008786D03*
X024428Y008794D03*
X024432Y008798D03*
X024436Y008802D03*
X024436Y008806D03*
X024440Y008810D03*
X024444Y008814D03*
X024448Y008818D03*
X024448Y008822D03*
X024452Y008826D03*
X024456Y008830D03*
X024460Y008837D03*
X024463Y008841D03*
X024467Y008845D03*
X024467Y008849D03*
X024471Y008853D03*
X024475Y008857D03*
X024479Y008865D03*
X024483Y008869D03*
X024487Y008873D03*
X024491Y008881D03*
X024495Y008885D03*
X024499Y008893D03*
X024503Y008897D03*
X024507Y008900D03*
X024511Y008908D03*
X024515Y008912D03*
X024519Y008920D03*
X024523Y008924D03*
X024526Y008928D03*
X024530Y008936D03*
X024534Y008940D03*
X024538Y008948D03*
X024542Y008952D03*
X024550Y008963D03*
X024554Y008967D03*
X024562Y008979D03*
X024570Y008991D03*
X024574Y008995D03*
X024582Y009007D03*
X024589Y009019D03*
X024593Y009023D03*
X024601Y009034D03*
X024609Y009046D03*
X024617Y009058D03*
X024621Y009062D03*
X024629Y009074D03*
X024637Y009086D03*
X024641Y009089D03*
X024649Y009101D03*
X024656Y009113D03*
X024668Y009129D03*
X024676Y009141D03*
X024684Y009152D03*
X024688Y009156D03*
X024696Y009168D03*
X024704Y009180D03*
X024711Y009192D03*
X024715Y009196D03*
X024723Y009208D03*
X024731Y009219D03*
X024735Y009223D03*
X024739Y009231D03*
X024743Y009235D03*
X024751Y009247D03*
X024755Y009251D03*
X024759Y009259D03*
X023227Y009975D03*
X023223Y009971D03*
X023219Y009967D03*
X023215Y009963D03*
X023211Y009960D03*
X023196Y009940D03*
X023192Y009936D03*
X023188Y009932D03*
X023184Y009928D03*
X023164Y009904D03*
X023160Y009900D03*
X023156Y009897D03*
X023152Y009893D03*
X023137Y009873D03*
X023133Y009869D03*
X023129Y009865D03*
X023125Y009861D03*
X023121Y009857D03*
X023109Y009841D03*
X023105Y009837D03*
X023101Y009834D03*
X023097Y009830D03*
X023093Y009826D03*
X023086Y009814D03*
X023082Y009810D03*
X023078Y009806D03*
X023074Y009802D03*
X023070Y009798D03*
X023066Y009794D03*
X023062Y009790D03*
X023058Y009782D03*
X023054Y009778D03*
X023050Y009774D03*
X023046Y009771D03*
X023042Y009767D03*
X023038Y009763D03*
X023034Y009759D03*
X023034Y009755D03*
X023030Y009751D03*
X023026Y009747D03*
X023023Y009743D03*
X023019Y009739D03*
X023015Y009735D03*
X023011Y009731D03*
X023003Y009719D03*
X022999Y009715D03*
X022995Y009711D03*
X022991Y009708D03*
X022987Y009704D03*
X022975Y009688D03*
X022971Y009684D03*
X022967Y009680D03*
X022963Y009676D03*
X022948Y009656D03*
X022944Y009652D03*
X022897Y009991D03*
X022755Y010782D03*
X022975Y011023D03*
X022436Y011609D03*
X021318Y011440D03*
X019483Y011400D03*
X018554Y008786D03*
D81*
X019501Y011231D03*
X019729Y011637D03*
X019749Y011810D03*
X019084Y012046D03*
X021312Y011597D03*
X021839Y011227D03*
X022757Y010629D03*
X023241Y009987D03*
X023237Y009983D03*
X023233Y009979D03*
X023009Y009727D03*
X023005Y009723D03*
X022985Y009700D03*
X022981Y009696D03*
X022977Y009692D03*
X022961Y009672D03*
X022958Y009668D03*
X022954Y009664D03*
X022950Y009660D03*
X022942Y009649D03*
X022938Y009645D03*
X022934Y009641D03*
X022930Y009637D03*
X022926Y009633D03*
X022922Y009629D03*
X022922Y009625D03*
X022918Y009621D03*
X022914Y009617D03*
X022910Y009613D03*
X022906Y009609D03*
X022902Y009605D03*
X022899Y009597D03*
X022895Y009593D03*
X022891Y009589D03*
X022887Y009586D03*
X022875Y009570D03*
X022871Y009566D03*
X021851Y008794D03*
X024162Y009841D03*
X024166Y009845D03*
X024174Y009857D03*
X024178Y009861D03*
X024190Y009877D03*
X024336Y010062D03*
X024347Y010078D03*
X024351Y010082D03*
X024363Y010097D03*
X024367Y010101D03*
X024375Y010113D03*
X024379Y010117D03*
X024383Y010121D03*
X024391Y010133D03*
X024395Y010137D03*
X024406Y010152D03*
X024410Y010156D03*
X024422Y010172D03*
X023702Y011400D03*
X023068Y011641D03*
X024426Y008790D03*
X024406Y008763D03*
X024395Y008747D03*
X015595Y008786D03*
X014528Y010117D03*
D82*
X014528Y008778D03*
X018552Y008778D03*
X022741Y010822D03*
D83*
X022739Y010830D03*
X022475Y010912D03*
X022944Y009967D03*
X020397Y011861D03*
X015589Y008778D03*
D84*
X014526Y008782D03*
X019463Y011412D03*
X019523Y011219D03*
X021814Y011219D03*
X022747Y010802D03*
X022861Y010176D03*
X023377Y010011D03*
X023377Y010007D03*
X023381Y009999D03*
X023381Y009995D03*
X023381Y009991D03*
X023385Y009983D03*
X023385Y009979D03*
X023385Y009975D03*
X023389Y009967D03*
X023389Y009963D03*
X023389Y009960D03*
X023393Y009948D03*
X023393Y009944D03*
X023393Y009940D03*
X023397Y009932D03*
X023397Y009928D03*
X023397Y009924D03*
X023400Y009912D03*
X023400Y009908D03*
X023404Y009897D03*
X023404Y009893D03*
X023408Y009877D03*
X023408Y009873D03*
X023412Y009857D03*
X023416Y009837D03*
X023420Y009822D03*
X023680Y011397D03*
X023086Y011625D03*
D85*
X022934Y011211D03*
X022745Y010810D03*
X019458Y011416D03*
X017690Y010125D03*
X017690Y008782D03*
X015954Y008782D03*
D86*
X016946Y008782D03*
X019280Y009940D03*
X019304Y009979D03*
X019304Y009983D03*
X019308Y009987D03*
X021021Y009708D03*
X021024Y009704D03*
D87*
X020841Y009849D03*
X021326Y011424D03*
X022011Y011629D03*
X022751Y010798D03*
X022763Y010609D03*
X022991Y011015D03*
X023975Y010609D03*
X023444Y009715D03*
X020361Y011877D03*
X020314Y012066D03*
X018554Y008782D03*
X015948Y009743D03*
D88*
X019330Y010026D03*
X019298Y008782D03*
D89*
X020910Y008782D03*
X020922Y009822D03*
X021973Y009798D03*
D90*
X022918Y009975D03*
X022765Y010601D03*
X022745Y010806D03*
X022017Y011625D03*
X020371Y011873D03*
X019717Y011625D03*
X018965Y008975D03*
X021851Y008782D03*
X015965Y010038D03*
D91*
X015560Y010125D03*
X014524Y008786D03*
X019076Y012050D03*
X020320Y012062D03*
X021320Y011432D03*
X021965Y011814D03*
X022426Y011613D03*
X022942Y011204D03*
X022981Y011019D03*
X022753Y010790D03*
X022761Y010617D03*
X023076Y011633D03*
X023934Y010794D03*
X024776Y009314D03*
X024776Y009310D03*
X024776Y009306D03*
X024776Y009302D03*
X024776Y009298D03*
D92*
X020912Y008822D03*
X016940Y008786D03*
X016936Y009830D03*
D93*
X016946Y009834D03*
X019308Y008786D03*
D94*
X019373Y010097D03*
X020912Y008786D03*
X023782Y009680D03*
D95*
X023210Y009956D03*
X023206Y009952D03*
X023202Y009948D03*
X023198Y009944D03*
X023182Y009924D03*
X023178Y009920D03*
X023174Y009916D03*
X023170Y009912D03*
X023166Y009908D03*
X023150Y009889D03*
X023147Y009885D03*
X023143Y009881D03*
X023139Y009877D03*
X023119Y009853D03*
X023115Y009849D03*
X023111Y009845D03*
X023091Y009822D03*
X023087Y009818D03*
X023060Y009786D03*
X022879Y010164D03*
X022828Y009424D03*
X021851Y010117D03*
X022572Y011101D03*
X022946Y011200D03*
X023072Y011637D03*
X023052Y011810D03*
X023737Y011582D03*
X023938Y010790D03*
X023517Y010649D03*
X021997Y011637D03*
X021973Y011810D03*
X021308Y011601D03*
X020347Y011885D03*
X018544Y009814D03*
X017702Y010117D03*
X015942Y010023D03*
X015922Y009849D03*
X015942Y008790D03*
X014524Y008790D03*
X024458Y008834D03*
X024477Y008861D03*
X024489Y008877D03*
X024497Y008889D03*
X024509Y008904D03*
X024517Y008916D03*
X024528Y008932D03*
X024536Y008944D03*
X024544Y008956D03*
X024548Y008960D03*
X024556Y008971D03*
X024560Y008975D03*
X024564Y008983D03*
X024568Y008987D03*
X024576Y008999D03*
X024580Y009003D03*
X024584Y009011D03*
X024587Y009015D03*
X024595Y009026D03*
X024599Y009030D03*
X024603Y009038D03*
X024607Y009042D03*
X024611Y009050D03*
X024615Y009054D03*
X024623Y009066D03*
X024627Y009070D03*
X024631Y009078D03*
X024635Y009082D03*
X024643Y009093D03*
X024647Y009097D03*
X024650Y009105D03*
X024654Y009109D03*
X024658Y009117D03*
X024662Y009121D03*
X024666Y009125D03*
X024670Y009133D03*
X024674Y009137D03*
X024678Y009145D03*
X024682Y009149D03*
X024690Y009160D03*
X024694Y009164D03*
X024698Y009172D03*
X024702Y009176D03*
X024706Y009184D03*
X024710Y009188D03*
X024717Y009200D03*
X024721Y009204D03*
X024725Y009211D03*
X024729Y009215D03*
X024737Y009227D03*
X024745Y009239D03*
X024749Y009243D03*
X024757Y009255D03*
X024761Y009263D03*
X024765Y009267D03*
X024765Y009271D03*
D96*
X024127Y009806D03*
X023339Y010089D03*
X023324Y010070D03*
X022887Y010003D03*
X022839Y009432D03*
X021851Y008806D03*
X022753Y010641D03*
X022961Y011030D03*
X022556Y011093D03*
X022454Y011436D03*
X021312Y011452D03*
X019493Y011393D03*
X019493Y011239D03*
X019103Y011873D03*
X017698Y010101D03*
X017698Y010097D03*
X017698Y008810D03*
X017698Y008806D03*
X015595Y008790D03*
X014528Y010109D03*
D97*
X016930Y009826D03*
X016934Y008790D03*
X020910Y008830D03*
D98*
X021849Y008790D03*
X023479Y010467D03*
X023963Y010617D03*
X023515Y011007D03*
X022759Y010625D03*
X021318Y011436D03*
X020326Y012058D03*
X017700Y008790D03*
X015940Y009739D03*
X024767Y009274D03*
D99*
X024131Y009810D03*
X024489Y010255D03*
X024493Y010259D03*
X024497Y010263D03*
X024501Y010267D03*
X023950Y010782D03*
X023328Y010082D03*
X023328Y010078D03*
X022887Y010156D03*
X021851Y010109D03*
X021851Y008802D03*
X019497Y011235D03*
X020339Y011893D03*
X020336Y012050D03*
X020804Y011515D03*
X022442Y011605D03*
X023060Y011802D03*
X018552Y008790D03*
X015942Y008798D03*
X015942Y009727D03*
X015930Y009857D03*
X014524Y008798D03*
D100*
X019316Y008790D03*
D101*
X019668Y009369D03*
X020912Y008790D03*
D102*
X022877Y009574D03*
X022881Y009578D03*
X022885Y009582D03*
X022900Y009601D03*
X022893Y009995D03*
X022881Y010160D03*
X023243Y009991D03*
X023247Y009995D03*
X023251Y009999D03*
X023255Y010003D03*
X023259Y010007D03*
X023263Y010011D03*
X022755Y010778D03*
X022538Y010920D03*
X022952Y011196D03*
X023058Y011806D03*
X021979Y011806D03*
X021991Y011641D03*
X021865Y011404D03*
X021314Y011444D03*
X020330Y012054D03*
X023944Y010786D03*
X024463Y010223D03*
X024460Y010219D03*
X024452Y010208D03*
X024448Y010204D03*
X024444Y010200D03*
X024440Y010196D03*
X024436Y010192D03*
X024436Y010188D03*
X024432Y010184D03*
X024428Y010180D03*
X024424Y010176D03*
X024420Y010168D03*
X024416Y010164D03*
X024412Y010160D03*
X024404Y010149D03*
X024400Y010145D03*
X024397Y010141D03*
X024389Y010129D03*
X024385Y010125D03*
X024373Y010109D03*
X024369Y010105D03*
X024361Y010093D03*
X024357Y010089D03*
X024353Y010086D03*
X024345Y010074D03*
X024341Y010070D03*
X024337Y010066D03*
X024334Y010058D03*
X024330Y010054D03*
X024326Y010050D03*
X024322Y010046D03*
X024318Y010042D03*
X024318Y010038D03*
X024314Y010034D03*
X024310Y010030D03*
X024306Y010026D03*
X024302Y010023D03*
X024302Y010019D03*
X024298Y010015D03*
X024294Y010011D03*
X024290Y010007D03*
X024286Y010003D03*
X024286Y009999D03*
X024282Y009995D03*
X024278Y009991D03*
X024274Y009987D03*
X024267Y009975D03*
X024263Y009971D03*
X024251Y009956D03*
X024247Y009952D03*
X024231Y009932D03*
X024208Y009900D03*
X024204Y009897D03*
X024200Y009889D03*
X024196Y009885D03*
X024192Y009881D03*
X024188Y009873D03*
X024184Y009869D03*
X024180Y009865D03*
X024172Y009853D03*
X024168Y009849D03*
X024160Y009837D03*
X024156Y009834D03*
X024152Y009830D03*
X024149Y009826D03*
X024578Y010412D03*
X015940Y009735D03*
X014526Y008794D03*
D103*
X015942Y008794D03*
X015926Y009853D03*
X015938Y010019D03*
X017702Y010113D03*
X017702Y008794D03*
X019489Y011397D03*
X019733Y011641D03*
X019111Y011869D03*
X020343Y011889D03*
X022461Y011432D03*
X022564Y011097D03*
X022969Y011026D03*
X022757Y010633D03*
X023489Y010471D03*
X023513Y010822D03*
X023958Y010621D03*
X024465Y010227D03*
X024469Y010231D03*
X024473Y010235D03*
X024458Y010215D03*
X024454Y010211D03*
X024273Y009983D03*
X024269Y009979D03*
X024261Y009967D03*
X024257Y009963D03*
X024253Y009960D03*
X024245Y009948D03*
X024241Y009944D03*
X024237Y009940D03*
X024233Y009936D03*
X024229Y009928D03*
X024225Y009924D03*
X024221Y009920D03*
X024217Y009916D03*
X024217Y009912D03*
X024213Y009908D03*
X024210Y009904D03*
X024202Y009893D03*
X024147Y009822D03*
X022836Y009428D03*
X021851Y008798D03*
D104*
X019530Y009393D03*
X019341Y009526D03*
X016928Y008794D03*
D105*
X017698Y008814D03*
X017698Y008818D03*
X018552Y008794D03*
X018540Y009806D03*
X017698Y010089D03*
X017698Y010093D03*
X015930Y010011D03*
X015946Y009711D03*
X015946Y008814D03*
X015946Y008810D03*
X014528Y010101D03*
X019497Y011389D03*
X019741Y011649D03*
X020804Y011511D03*
X020804Y011507D03*
X020804Y011503D03*
X020804Y011345D03*
X020804Y011341D03*
X020804Y011337D03*
X020804Y011334D03*
X022450Y011601D03*
X022552Y010924D03*
X022753Y010645D03*
X023501Y010641D03*
X023513Y010826D03*
X023513Y010999D03*
X023954Y010778D03*
X023950Y010629D03*
X024572Y010408D03*
X023347Y010093D03*
X023324Y010066D03*
X021851Y008814D03*
X023060Y011652D03*
D106*
X019550Y009385D03*
X019326Y008794D03*
D107*
X020912Y008794D03*
D108*
X021452Y009086D03*
X021452Y009089D03*
X021452Y009093D03*
X021452Y009097D03*
X021452Y009101D03*
X021452Y009105D03*
X021452Y009109D03*
X021452Y009274D03*
X021452Y009278D03*
X021452Y009282D03*
X021452Y009286D03*
X021452Y009290D03*
X021452Y009294D03*
X021452Y009298D03*
X021452Y009302D03*
X021452Y009306D03*
X021452Y009310D03*
X021452Y009314D03*
X021452Y009534D03*
X021452Y009538D03*
X021849Y010058D03*
X022558Y010936D03*
X022546Y011078D03*
X022546Y011082D03*
X022546Y011086D03*
X022444Y011448D03*
X022444Y011452D03*
X022444Y011456D03*
X022444Y011460D03*
X022460Y011593D03*
X021995Y011790D03*
X021845Y011393D03*
X021845Y011389D03*
X021845Y011385D03*
X022967Y011176D03*
X022967Y011172D03*
X023054Y011664D03*
X023711Y011566D03*
X023711Y011562D03*
X023711Y011558D03*
X023711Y011554D03*
X023515Y010924D03*
X023515Y010920D03*
X023515Y010916D03*
X023515Y010912D03*
X023515Y010908D03*
X023515Y010904D03*
X023491Y010633D03*
X023491Y010629D03*
X023507Y010491D03*
X023369Y010105D03*
X023318Y010046D03*
X024101Y009794D03*
X024562Y010404D03*
X023944Y010641D03*
X021853Y008841D03*
X019747Y011656D03*
X019735Y011786D03*
X019093Y011885D03*
X019093Y011889D03*
X019093Y011893D03*
X019093Y011897D03*
X019093Y011900D03*
X020330Y011912D03*
X017700Y010062D03*
X017700Y010058D03*
X017700Y010054D03*
X017700Y010050D03*
X017700Y008857D03*
X017700Y008853D03*
X017700Y008849D03*
X017700Y008845D03*
X015944Y008845D03*
X015944Y008841D03*
X015944Y008837D03*
X015944Y008849D03*
X015589Y008798D03*
X015944Y009672D03*
X015944Y009676D03*
X015944Y009680D03*
X015944Y009684D03*
X014526Y010074D03*
X014526Y010078D03*
X014526Y010082D03*
X014526Y008834D03*
X014526Y008830D03*
X014526Y008826D03*
D109*
X016922Y008798D03*
X019359Y009515D03*
D110*
X018536Y009802D03*
X017698Y010066D03*
X017698Y010070D03*
X017698Y010074D03*
X017698Y008841D03*
X017698Y008837D03*
X017698Y008834D03*
X018548Y008798D03*
X019485Y011251D03*
X019501Y011385D03*
X019733Y011790D03*
X019107Y012034D03*
X020332Y011908D03*
X020347Y012038D03*
X020804Y011471D03*
X020804Y011467D03*
X020804Y011463D03*
X020804Y011460D03*
X020804Y011456D03*
X020804Y011452D03*
X020804Y011448D03*
X020804Y011444D03*
X020804Y011440D03*
X020804Y011436D03*
X020804Y011432D03*
X020804Y011428D03*
X020804Y011424D03*
X020804Y011420D03*
X020804Y011416D03*
X020804Y011412D03*
X020804Y011408D03*
X020804Y011404D03*
X020804Y011400D03*
X020804Y011397D03*
X020804Y011393D03*
X020804Y011389D03*
X020804Y011385D03*
X020804Y011381D03*
X020804Y011377D03*
X021308Y011467D03*
X021859Y011247D03*
X021859Y011243D03*
X021859Y011239D03*
X021977Y011660D03*
X022458Y011597D03*
X022965Y011180D03*
X022954Y011046D03*
X022954Y011042D03*
X022761Y010755D03*
X022749Y010652D03*
X022560Y010928D03*
X022560Y010932D03*
X022895Y010145D03*
X022879Y010019D03*
X023320Y010050D03*
X023505Y010479D03*
X023505Y010483D03*
X023505Y010487D03*
X023493Y010637D03*
X023513Y010877D03*
X023513Y010881D03*
X023513Y010885D03*
X023513Y010889D03*
X023513Y010893D03*
X023513Y010897D03*
X023513Y010900D03*
X023513Y010928D03*
X023513Y010932D03*
X023513Y010936D03*
X023513Y010940D03*
X023513Y010944D03*
X023513Y010948D03*
X023961Y010771D03*
X023725Y011408D03*
X023725Y011412D03*
X023725Y011416D03*
X023072Y011790D03*
X021851Y010070D03*
X021851Y010066D03*
X021851Y010062D03*
X021454Y009271D03*
X021454Y009267D03*
X021454Y009263D03*
X021454Y009259D03*
X021454Y009255D03*
X021454Y009251D03*
X021454Y009247D03*
X021454Y009243D03*
X021454Y009239D03*
X021454Y009235D03*
X021454Y009231D03*
X021454Y009227D03*
X021454Y009223D03*
X021454Y009219D03*
X021454Y009215D03*
X021454Y009211D03*
X021454Y009208D03*
X021454Y009204D03*
X021454Y009200D03*
X021454Y009196D03*
X021454Y009192D03*
X021454Y009188D03*
X021454Y009184D03*
X021454Y009180D03*
X021454Y009176D03*
X021454Y009172D03*
X021454Y009168D03*
X021454Y009164D03*
X021454Y009160D03*
X021454Y009156D03*
X021454Y009152D03*
X021454Y009149D03*
X021454Y009145D03*
X021454Y009141D03*
X021454Y009137D03*
X021454Y009133D03*
X021454Y009129D03*
X021454Y009125D03*
X021454Y009121D03*
X021454Y009117D03*
X021454Y009113D03*
X021851Y008837D03*
X021851Y008834D03*
X021851Y008830D03*
X015938Y009873D03*
X015922Y010003D03*
X015560Y010113D03*
X014528Y010089D03*
X014528Y010086D03*
D111*
X019332Y008798D03*
X020910Y008837D03*
D112*
X020912Y008798D03*
X020983Y009771D03*
D113*
X021849Y010105D03*
X022755Y010637D03*
X022759Y010771D03*
X023334Y010086D03*
X023326Y010074D03*
X023952Y010625D03*
X024503Y010271D03*
X023062Y011649D03*
X021987Y011645D03*
X021983Y011802D03*
X021857Y011400D03*
X021849Y011231D03*
X021314Y011589D03*
X019735Y011645D03*
X019743Y011806D03*
X019093Y012042D03*
X017700Y010105D03*
X017700Y008802D03*
X015944Y008802D03*
X015944Y009723D03*
X015932Y010015D03*
X014526Y008802D03*
D114*
X016918Y008802D03*
X019371Y009507D03*
X019501Y009408D03*
D115*
X019515Y009400D03*
X019337Y008802D03*
X021019Y009511D03*
D116*
X020912Y008802D03*
X019334Y010038D03*
D117*
X020337Y011897D03*
X020341Y012046D03*
X021318Y011586D03*
X021310Y011456D03*
X021983Y011649D03*
X021987Y011798D03*
X022960Y011192D03*
X022759Y010767D03*
X022889Y010152D03*
X022885Y010007D03*
X023499Y010475D03*
X024121Y009802D03*
X023515Y011003D03*
X023715Y011404D03*
X023719Y011574D03*
X023066Y011798D03*
X021849Y010101D03*
X021849Y010097D03*
X021849Y008810D03*
X015944Y008806D03*
X015944Y009715D03*
X015944Y009719D03*
X015932Y009861D03*
X014526Y010105D03*
X014526Y008806D03*
D118*
X016914Y008806D03*
X019387Y009495D03*
X019391Y009491D03*
X019481Y009420D03*
X021005Y009503D03*
X020910Y008853D03*
D119*
X020908Y008849D03*
X021011Y009507D03*
X019377Y009503D03*
X019345Y008806D03*
D120*
X019259Y009558D03*
X019326Y010023D03*
X021003Y009739D03*
X020912Y008806D03*
D121*
X021849Y008818D03*
X021849Y010086D03*
X021849Y010089D03*
X021849Y010093D03*
X022893Y010149D03*
X023322Y010062D03*
X023353Y010097D03*
X023515Y010830D03*
X023515Y010834D03*
X023515Y010837D03*
X023515Y010841D03*
X023515Y010983D03*
X023515Y010987D03*
X023515Y010991D03*
X023515Y010995D03*
X023058Y011656D03*
X022960Y011034D03*
X022759Y010763D03*
X021310Y011460D03*
X020806Y011499D03*
X020334Y011900D03*
X019735Y011802D03*
X019101Y012038D03*
X019491Y011243D03*
X015936Y009865D03*
X015944Y009708D03*
X015944Y009704D03*
X015562Y010117D03*
X015944Y008818D03*
X014526Y008814D03*
X014526Y008810D03*
D122*
X016908Y008810D03*
X019412Y009475D03*
X019416Y009471D03*
X019456Y009440D03*
X019460Y009436D03*
X020999Y009499D03*
X020908Y008857D03*
D123*
X019475Y009424D03*
X019471Y009428D03*
X019397Y009487D03*
X019349Y008810D03*
D124*
X019310Y009991D03*
X021019Y009711D03*
X020912Y008810D03*
D125*
X020993Y009495D03*
X016906Y008814D03*
D126*
X016292Y009030D03*
X016292Y009597D03*
X016296Y009601D03*
X018524Y009786D03*
X018906Y009857D03*
X018910Y009865D03*
X018899Y009649D03*
X018540Y008814D03*
X019977Y009046D03*
X019973Y009298D03*
X020347Y009274D03*
X021434Y009341D03*
X021434Y009589D03*
X021430Y009593D03*
X022871Y009448D03*
X023308Y010015D03*
X023399Y010117D03*
X022765Y010731D03*
X021312Y011511D03*
X021316Y011523D03*
X021320Y011530D03*
X021320Y011534D03*
D127*
X019446Y009448D03*
X019450Y009444D03*
X019430Y009460D03*
X019426Y009463D03*
X019422Y009467D03*
X019355Y008814D03*
D128*
X019278Y009554D03*
X020912Y008814D03*
X021034Y009688D03*
D129*
X021849Y010074D03*
X021849Y010078D03*
X021849Y010082D03*
X022881Y010015D03*
X023318Y010054D03*
X023361Y010101D03*
X023515Y010857D03*
X023515Y010861D03*
X023515Y010865D03*
X023515Y010869D03*
X023515Y010873D03*
X023515Y010952D03*
X023515Y010956D03*
X023515Y010960D03*
X023515Y010963D03*
X023515Y010967D03*
X023515Y010971D03*
X023944Y010637D03*
X023711Y011570D03*
X023054Y011660D03*
X022967Y011184D03*
X022956Y011038D03*
X022759Y010759D03*
X022751Y010649D03*
X022444Y011440D03*
X022444Y011444D03*
X021979Y011656D03*
X021991Y011794D03*
X021857Y011235D03*
X021322Y011578D03*
X020806Y011373D03*
X019735Y011794D03*
X019735Y011798D03*
X019093Y011877D03*
X019093Y011881D03*
X019487Y011247D03*
X015944Y009696D03*
X015944Y009692D03*
X015944Y009688D03*
X015944Y008834D03*
X015944Y008830D03*
X015944Y008826D03*
X014526Y008822D03*
X014526Y008818D03*
X014526Y010093D03*
D130*
X016899Y009798D03*
X016902Y008818D03*
X019359Y008818D03*
X020906Y008865D03*
D131*
X020912Y008818D03*
D132*
X021416Y008991D03*
X021420Y009609D03*
X021416Y009613D03*
X019960Y009318D03*
X018912Y009621D03*
X018920Y009881D03*
X018924Y009885D03*
X016310Y009617D03*
X016306Y009011D03*
X015578Y008822D03*
X015546Y010089D03*
X024562Y010290D03*
D133*
X020983Y009487D03*
X020908Y008869D03*
X019365Y008822D03*
X016897Y008822D03*
X016897Y009794D03*
D134*
X016304Y009613D03*
X018521Y009778D03*
X018910Y009625D03*
X018536Y008822D03*
X019965Y009026D03*
X019961Y009314D03*
X020363Y009294D03*
X020363Y009007D03*
X021418Y008995D03*
X022879Y009452D03*
X023410Y010121D03*
X022761Y010711D03*
X022765Y010719D03*
X024564Y010298D03*
X024564Y010294D03*
D135*
X020979Y009483D03*
X020908Y008873D03*
X016897Y008826D03*
X016893Y009790D03*
D136*
X016308Y009007D03*
X018532Y008826D03*
X018918Y009613D03*
X018914Y009617D03*
X018926Y009889D03*
X019961Y009023D03*
X020367Y009003D03*
X020367Y009298D03*
X024060Y009778D03*
X024560Y010286D03*
D137*
X019367Y008826D03*
D138*
X020912Y008826D03*
D139*
X016893Y008830D03*
X016889Y009786D03*
D140*
X019371Y008830D03*
X020906Y008877D03*
X020973Y009479D03*
D141*
X020381Y009310D03*
X020381Y008991D03*
X019952Y009011D03*
X019944Y009334D03*
X018932Y009597D03*
X018928Y009601D03*
X021400Y008979D03*
X016322Y008995D03*
X015570Y008834D03*
X015538Y010078D03*
D142*
X016889Y008834D03*
D143*
X018524Y008834D03*
X018513Y009767D03*
X018934Y009897D03*
X018938Y009900D03*
X020375Y009306D03*
X021402Y009625D03*
X024052Y009774D03*
D144*
X020969Y009475D03*
X020906Y008881D03*
X019375Y008834D03*
X016887Y009782D03*
D145*
X019540Y009389D03*
X020910Y008834D03*
X021036Y009519D03*
D146*
X020904Y008885D03*
X016885Y008837D03*
D147*
X016324Y009629D03*
X015536Y010074D03*
X018509Y009763D03*
X018524Y008837D03*
X019938Y009337D03*
X021399Y009629D03*
X023434Y010129D03*
D148*
X020965Y009471D03*
X019379Y008837D03*
X016883Y009778D03*
D149*
X016881Y009774D03*
X016885Y008841D03*
X020904Y008889D03*
X020963Y009467D03*
D150*
X019383Y008841D03*
D151*
X019521Y009397D03*
X020910Y008841D03*
D152*
X021387Y008971D03*
X020395Y008983D03*
X020391Y009318D03*
X019938Y008999D03*
X018942Y009589D03*
X018517Y008845D03*
X016332Y008987D03*
X015560Y008845D03*
X015532Y010066D03*
X023446Y010133D03*
D153*
X020960Y009463D03*
X020904Y008893D03*
X016881Y008845D03*
X016877Y009771D03*
D154*
X016877Y009767D03*
X019385Y008845D03*
X020904Y008897D03*
X020956Y009460D03*
D155*
X020910Y008845D03*
D156*
X021385Y009637D03*
X021853Y009826D03*
X019928Y009345D03*
X018948Y009586D03*
X018499Y009751D03*
X018515Y008849D03*
X016337Y009637D03*
X015558Y008849D03*
X024030Y009767D03*
D157*
X016879Y008849D03*
D158*
X016875Y008853D03*
X019387Y008849D03*
D159*
X019391Y008853D03*
X020902Y008904D03*
X020950Y009452D03*
X016871Y009759D03*
X016871Y008861D03*
D160*
X016345Y008979D03*
X016345Y009641D03*
X015523Y010054D03*
X015550Y008857D03*
X019928Y008991D03*
X020790Y009845D03*
X021377Y009641D03*
X021377Y008967D03*
X024023Y009763D03*
D161*
X020952Y009456D03*
X020904Y008900D03*
X016873Y008857D03*
X016873Y009763D03*
D162*
X016867Y009751D03*
X016867Y008865D03*
X019395Y008857D03*
X019473Y008971D03*
X020902Y008908D03*
X020946Y009448D03*
D163*
X020406Y009326D03*
X020410Y008975D03*
X019914Y009353D03*
X018965Y009916D03*
X018489Y009739D03*
X018501Y008861D03*
X015548Y008861D03*
X022918Y009467D03*
X023469Y010141D03*
D164*
X020944Y009444D03*
X019397Y008861D03*
X016865Y008869D03*
X016802Y008960D03*
X016865Y009747D03*
D165*
X016904Y009802D03*
X019436Y009456D03*
X019440Y009452D03*
X020908Y008861D03*
D166*
X018499Y008865D03*
X018483Y009735D03*
X015519Y010050D03*
X024511Y010381D03*
D167*
X020942Y009440D03*
X020902Y008912D03*
X019399Y008865D03*
X016863Y008873D03*
X016863Y009743D03*
D168*
X016353Y008975D03*
X015538Y008869D03*
X015511Y010042D03*
X018495Y008869D03*
X018963Y009578D03*
X019920Y008987D03*
X020420Y008971D03*
X020416Y009330D03*
X024011Y009759D03*
D169*
X020938Y009436D03*
X019402Y008869D03*
X016859Y008881D03*
X016808Y009660D03*
X016859Y009735D03*
D170*
X015507Y010038D03*
X018471Y009723D03*
X018487Y008877D03*
X018491Y008873D03*
X021381Y009530D03*
X022928Y009471D03*
D171*
X020936Y009432D03*
X020900Y008920D03*
X019463Y008967D03*
X019404Y008873D03*
X016857Y008885D03*
X016857Y009731D03*
D172*
X016363Y008971D03*
X015532Y008877D03*
X015505Y010034D03*
X018469Y009719D03*
X019910Y008983D03*
X021363Y008963D03*
X024001Y009755D03*
X024501Y010377D03*
D173*
X020900Y008916D03*
X016861Y008877D03*
X016861Y009739D03*
D174*
X016855Y009727D03*
X016816Y009664D03*
X016812Y008956D03*
X016855Y008889D03*
X019406Y008877D03*
X020899Y008924D03*
X020934Y009428D03*
D175*
X020932Y009424D03*
X019408Y008881D03*
X016853Y008893D03*
X016849Y008897D03*
X016818Y008952D03*
X016818Y009668D03*
X016849Y009719D03*
X016853Y009723D03*
D176*
X016367Y009649D03*
X015501Y010030D03*
X015497Y010026D03*
X015524Y008885D03*
X018465Y009715D03*
X020426Y009334D03*
X021355Y009649D03*
D177*
X020432Y008967D03*
X018479Y008885D03*
X018475Y008889D03*
X018460Y009711D03*
X022936Y009475D03*
D178*
X020930Y009420D03*
X020899Y008928D03*
X019458Y008963D03*
X019410Y008885D03*
X016847Y008900D03*
X016847Y008904D03*
X016824Y009672D03*
X016847Y009711D03*
X016847Y009715D03*
D179*
X015493Y010023D03*
X015517Y008893D03*
X015521Y008889D03*
X018458Y009708D03*
X019891Y009361D03*
X023989Y009751D03*
D180*
X020928Y009416D03*
X020897Y008932D03*
X019452Y008960D03*
X019412Y008889D03*
X016845Y008908D03*
X016841Y008912D03*
X016841Y008916D03*
X016826Y008944D03*
X016822Y008948D03*
X016826Y009676D03*
X016830Y009680D03*
X016834Y009688D03*
X016837Y009696D03*
X016841Y009700D03*
X016841Y009704D03*
X016845Y009708D03*
D181*
X016836Y009692D03*
X016832Y009684D03*
X016828Y008940D03*
X016832Y008936D03*
X016832Y008932D03*
X016836Y008928D03*
X016836Y008924D03*
X016839Y008920D03*
X019414Y008893D03*
X020899Y008936D03*
X020926Y009412D03*
D182*
X018446Y009700D03*
X018465Y008897D03*
X016375Y008967D03*
X015513Y008897D03*
X015509Y008900D03*
X015485Y010015D03*
D183*
X019416Y008897D03*
X019420Y008904D03*
X019448Y008956D03*
X020897Y008940D03*
X020924Y009408D03*
D184*
X018444Y009696D03*
X018463Y008900D03*
X015503Y008904D03*
X015475Y010007D03*
X015479Y010011D03*
D185*
X019418Y008900D03*
X019422Y008908D03*
X019446Y008952D03*
X020922Y009404D03*
D186*
X020438Y009337D03*
X018458Y008904D03*
X018438Y009692D03*
X015497Y008908D03*
X022946Y009479D03*
X023521Y010156D03*
D187*
X023979Y009747D03*
X020806Y009841D03*
X018432Y009688D03*
X018428Y009684D03*
X018452Y008908D03*
X015495Y008912D03*
X015467Y009999D03*
X015471Y010003D03*
D188*
X015461Y009995D03*
X016383Y009652D03*
X015489Y008916D03*
X015485Y008920D03*
X018442Y008916D03*
X018446Y008912D03*
X018422Y009680D03*
X020450Y008963D03*
X021336Y009652D03*
X024481Y010369D03*
D189*
X020920Y009400D03*
X020897Y008948D03*
X020897Y008944D03*
X019440Y008948D03*
X019436Y008940D03*
X019428Y008924D03*
X019428Y008920D03*
X019424Y008916D03*
X019424Y008912D03*
D190*
X018430Y008924D03*
X018426Y008928D03*
X018091Y009483D03*
X018084Y009479D03*
X018072Y009471D03*
X018064Y009467D03*
X018056Y009463D03*
X018044Y009456D03*
X018036Y009452D03*
X018017Y009440D03*
X017997Y009428D03*
X018103Y009491D03*
X018111Y009495D03*
X018119Y009499D03*
X018131Y009507D03*
X018139Y009511D03*
X018147Y009515D03*
X018150Y009519D03*
X018158Y009523D03*
X018166Y009526D03*
X018170Y009530D03*
X018178Y009534D03*
X018186Y009538D03*
X018194Y009542D03*
X018198Y009546D03*
X018206Y009550D03*
X018213Y009554D03*
X018217Y009558D03*
X018225Y009562D03*
X018233Y009566D03*
X018245Y009574D03*
X018253Y009578D03*
X018261Y009582D03*
X018265Y009586D03*
X018273Y009589D03*
X018280Y009593D03*
X018284Y009597D03*
X018292Y009601D03*
X018300Y009605D03*
X018312Y009613D03*
X018320Y009617D03*
X018332Y009625D03*
X018339Y009629D03*
X018351Y009637D03*
X018359Y009641D03*
X018371Y009649D03*
X018379Y009652D03*
X018391Y009660D03*
X018399Y009664D03*
X015446Y009983D03*
X015442Y009979D03*
X015154Y009798D03*
X015123Y009778D03*
X015091Y009759D03*
X015080Y009751D03*
X015060Y009739D03*
X015048Y009731D03*
X015040Y009727D03*
X015028Y009719D03*
X015017Y009711D03*
X015005Y009704D03*
X014997Y009700D03*
X014985Y009692D03*
X014973Y009684D03*
X014965Y009680D03*
X014961Y009676D03*
X014954Y009672D03*
X014946Y009668D03*
X014942Y009664D03*
X014934Y009660D03*
X014930Y009656D03*
X014922Y009652D03*
X014914Y009649D03*
X014910Y009645D03*
X014902Y009641D03*
X014895Y009637D03*
X014891Y009633D03*
X014883Y009629D03*
X014875Y009625D03*
X014863Y009617D03*
X015450Y008944D03*
X015461Y008936D03*
X023532Y010160D03*
X023969Y009743D03*
D191*
X020918Y009397D03*
X019438Y008944D03*
X019434Y008936D03*
X019434Y008932D03*
X019430Y008928D03*
D192*
X018420Y008932D03*
X018408Y008940D03*
X018349Y008975D03*
X018330Y008987D03*
X018322Y008991D03*
X018310Y008999D03*
X018302Y009003D03*
X018282Y009015D03*
X018263Y009026D03*
X018243Y009038D03*
X018223Y009050D03*
X018239Y009570D03*
X018306Y009609D03*
X018326Y009621D03*
X015436Y009975D03*
X015424Y009967D03*
X015294Y009885D03*
X015274Y009873D03*
X015263Y009865D03*
X015243Y009853D03*
X015231Y009845D03*
X015223Y009841D03*
X015211Y009834D03*
X015200Y009826D03*
X015192Y009822D03*
X015188Y009818D03*
X015180Y009814D03*
X015172Y009810D03*
X015168Y009806D03*
X015160Y009802D03*
X015149Y009794D03*
X015141Y009790D03*
X015137Y009786D03*
X015129Y009782D03*
X015117Y009774D03*
X015109Y009771D03*
X015105Y009767D03*
X015097Y009763D03*
X015086Y009755D03*
X015074Y009747D03*
X015066Y009743D03*
X015054Y009735D03*
X015034Y009723D03*
X015023Y009715D03*
X015011Y009708D03*
X014991Y009696D03*
X014979Y009688D03*
X014869Y009621D03*
X014857Y009613D03*
X014849Y009609D03*
X014841Y009605D03*
X014830Y009597D03*
X014822Y009593D03*
X014948Y009259D03*
X014979Y009239D03*
X014999Y009227D03*
X015011Y009219D03*
X015019Y009215D03*
X015030Y009208D03*
X015042Y009200D03*
X015050Y009196D03*
X015062Y009188D03*
X015070Y009184D03*
X015074Y009180D03*
X015082Y009176D03*
X015093Y009168D03*
X015101Y009164D03*
X015113Y009156D03*
X015125Y009149D03*
X015133Y009145D03*
X015145Y009137D03*
X015156Y009129D03*
X015164Y009125D03*
X015176Y009117D03*
X015188Y009109D03*
X015196Y009105D03*
X015208Y009097D03*
X015227Y009086D03*
X015239Y009078D03*
X015259Y009066D03*
X015271Y009058D03*
X015282Y009050D03*
X015290Y009046D03*
X015302Y009038D03*
X015314Y009030D03*
X015334Y009019D03*
X015345Y009011D03*
X015365Y008999D03*
X015377Y008991D03*
X015389Y008983D03*
X015397Y008979D03*
X015408Y008971D03*
X015420Y008963D03*
X015428Y008960D03*
X015432Y008956D03*
X015440Y008952D03*
X015444Y008948D03*
X015456Y008940D03*
X022956Y009483D03*
D193*
X018414Y008936D03*
X018402Y008944D03*
X018395Y008948D03*
X018391Y008952D03*
X018383Y008956D03*
X018371Y008963D03*
X018363Y008967D03*
X018355Y008971D03*
X018343Y008979D03*
X018336Y008983D03*
X018316Y008995D03*
X018296Y009007D03*
X018288Y009011D03*
X018276Y009019D03*
X018269Y009023D03*
X018257Y009030D03*
X018249Y009034D03*
X018237Y009042D03*
X018229Y009046D03*
X018217Y009054D03*
X018210Y009058D03*
X018202Y009062D03*
X018198Y009066D03*
X018190Y009070D03*
X018182Y009074D03*
X018178Y009078D03*
X018170Y009082D03*
X018162Y009086D03*
X018154Y009089D03*
X018150Y009093D03*
X018143Y009097D03*
X018135Y009101D03*
X018123Y009109D03*
X018115Y009113D03*
X018107Y009117D03*
X018095Y009125D03*
X018087Y009129D03*
X018068Y009141D03*
X018060Y009145D03*
X017796Y009306D03*
X016391Y008963D03*
X015414Y008967D03*
X015402Y008975D03*
X015383Y008987D03*
X015371Y008995D03*
X015359Y009003D03*
X015351Y009007D03*
X015339Y009015D03*
X015328Y009023D03*
X015320Y009026D03*
X015308Y009034D03*
X015296Y009042D03*
X015276Y009054D03*
X015265Y009062D03*
X015253Y009070D03*
X015245Y009074D03*
X015233Y009082D03*
X015221Y009089D03*
X015213Y009093D03*
X015202Y009101D03*
X015182Y009113D03*
X015170Y009121D03*
X015150Y009133D03*
X015139Y009141D03*
X015119Y009152D03*
X015107Y009160D03*
X015087Y009172D03*
X015056Y009192D03*
X015036Y009204D03*
X015024Y009211D03*
X015005Y009223D03*
X014993Y009231D03*
X014985Y009235D03*
X014973Y009243D03*
X014965Y009247D03*
X014961Y009251D03*
X014954Y009255D03*
X014942Y009263D03*
X014934Y009267D03*
X014930Y009271D03*
X014922Y009274D03*
X014914Y009278D03*
X014910Y009282D03*
X014902Y009286D03*
X014891Y009294D03*
X014883Y009298D03*
X014871Y009306D03*
X014851Y009318D03*
X014836Y009601D03*
X015206Y009830D03*
X015217Y009837D03*
X015237Y009849D03*
X015249Y009857D03*
X015257Y009861D03*
X015269Y009869D03*
X015280Y009877D03*
X015288Y009881D03*
X015300Y009889D03*
X015308Y009893D03*
X015312Y009897D03*
X015320Y009900D03*
X015324Y009904D03*
X015332Y009908D03*
X015339Y009912D03*
X015343Y009916D03*
X015351Y009920D03*
X015355Y009924D03*
X015363Y009928D03*
X015371Y009932D03*
X015375Y009936D03*
X015383Y009940D03*
X015387Y009944D03*
X015395Y009948D03*
X015402Y009952D03*
X015406Y009956D03*
X015414Y009960D03*
X015418Y009963D03*
X015430Y009971D03*
D194*
X020916Y009393D03*
X020916Y009389D03*
X020897Y008956D03*
X020897Y008952D03*
D195*
X020456Y009341D03*
X018377Y008960D03*
X018129Y009105D03*
X018101Y009121D03*
X018082Y009133D03*
X018074Y009137D03*
X018054Y009149D03*
X018046Y009152D03*
X018038Y009156D03*
X018034Y009160D03*
X018026Y009164D03*
X018019Y009168D03*
X017999Y009180D03*
X017798Y009310D03*
X014897Y009290D03*
X014877Y009302D03*
X014865Y009310D03*
X014857Y009314D03*
X014845Y009322D03*
X014837Y009326D03*
X014625Y009463D03*
X023546Y010164D03*
D196*
X020914Y009385D03*
X020895Y008960D03*
D197*
X020402Y008979D03*
X020399Y009322D03*
X019934Y008995D03*
X018958Y009912D03*
X016339Y008983D03*
X015528Y010062D03*
X022906Y009463D03*
X024517Y010385D03*
D198*
X024558Y010274D03*
X022889Y009456D03*
X021416Y009345D03*
X021408Y009621D03*
X020377Y008995D03*
X019956Y009015D03*
X019948Y009330D03*
X018924Y009605D03*
X018515Y009771D03*
X016318Y009625D03*
X016318Y008999D03*
X015542Y010082D03*
D199*
X014719Y009589D03*
X014719Y009341D03*
X017893Y009188D03*
X023235Y009566D03*
X023601Y009645D03*
D200*
X023530Y009629D03*
X023259Y009570D03*
X017889Y009192D03*
X014715Y009345D03*
X014715Y009586D03*
D201*
X014710Y009578D03*
X014710Y009353D03*
X017883Y009200D03*
X023446Y009609D03*
X023461Y009613D03*
D202*
X017875Y009404D03*
X017875Y009208D03*
X014702Y009365D03*
D203*
X014700Y009566D03*
X017873Y009211D03*
D204*
X017865Y009219D03*
X017865Y009393D03*
X014692Y009377D03*
D205*
X014690Y009554D03*
X017863Y009223D03*
X023032Y009515D03*
D206*
X017855Y009381D03*
X017855Y009231D03*
X014682Y009389D03*
X014682Y009542D03*
D207*
X014680Y009393D03*
X017853Y009235D03*
X023023Y009511D03*
D208*
X017843Y009247D03*
X014670Y009404D03*
D209*
X014660Y009416D03*
X014660Y009515D03*
X017834Y009259D03*
X023916Y009723D03*
D210*
X024217Y010306D03*
X017832Y009353D03*
X017832Y009263D03*
X014658Y009420D03*
D211*
X014654Y009424D03*
X014654Y009507D03*
X017828Y009267D03*
X022993Y009499D03*
D212*
X023635Y010188D03*
X023926Y009727D03*
X024194Y010302D03*
X017824Y009341D03*
X017824Y009271D03*
X014650Y009503D03*
D213*
X014649Y009499D03*
X014649Y009432D03*
X017822Y009274D03*
X022983Y009495D03*
X023652Y010192D03*
X023672Y010196D03*
X023692Y010200D03*
X023711Y010204D03*
X023999Y010263D03*
X024019Y010267D03*
X024038Y010271D03*
X024058Y010274D03*
X024074Y010278D03*
X024093Y010282D03*
D214*
X023861Y010235D03*
X023841Y010231D03*
X023786Y010219D03*
X017818Y009334D03*
X017818Y009278D03*
X014645Y009495D03*
D215*
X015946Y010026D03*
X019509Y011227D03*
X019477Y011404D03*
X019725Y011633D03*
X019757Y011814D03*
X020804Y011330D03*
X021308Y011605D03*
X021875Y011408D03*
X022473Y011428D03*
X023048Y011814D03*
X022753Y010786D03*
X022761Y010621D03*
X024773Y009286D03*
X024773Y009282D03*
X024769Y009278D03*
D216*
X023938Y009731D03*
X023879Y010239D03*
X023899Y010243D03*
X023918Y010247D03*
X023954Y010255D03*
X023603Y010180D03*
X017816Y009282D03*
X014643Y009440D03*
X014643Y009491D03*
D217*
X017806Y009294D03*
X023574Y010172D03*
D218*
X023560Y010168D03*
X017804Y009318D03*
X017804Y009298D03*
X014631Y009456D03*
X014631Y009475D03*
D219*
X014629Y009471D03*
X017802Y009314D03*
X022963Y009487D03*
D220*
X017808Y009322D03*
X014635Y009452D03*
X014635Y009479D03*
D221*
X014641Y009487D03*
X014641Y009444D03*
X017814Y009330D03*
X023936Y010251D03*
D222*
X024383Y010326D03*
X023855Y009696D03*
X023670Y009660D03*
X023654Y009656D03*
X014725Y009334D03*
D223*
X014713Y009349D03*
X017887Y009420D03*
X023060Y009526D03*
X023497Y009621D03*
X023513Y009625D03*
D224*
X020904Y009353D03*
X020904Y009349D03*
D225*
X021963Y009641D03*
X023318Y009582D03*
X023337Y009586D03*
X023353Y009589D03*
X023373Y009593D03*
X023393Y009597D03*
X023408Y009601D03*
X023428Y009605D03*
X017881Y009412D03*
X014708Y009357D03*
D226*
X014662Y009519D03*
X017836Y009357D03*
D227*
X020906Y009357D03*
X020906Y009361D03*
D228*
X021956Y009822D03*
X017877Y009408D03*
X014704Y009361D03*
X014704Y009570D03*
D229*
X014668Y009526D03*
X017841Y009365D03*
X023908Y009719D03*
D230*
X020908Y009369D03*
X020908Y009365D03*
D231*
X017845Y009369D03*
X014672Y009400D03*
X014672Y009530D03*
D232*
X014694Y009558D03*
X014694Y009373D03*
X017867Y009397D03*
D233*
X019351Y010066D03*
X019643Y009373D03*
D234*
X020910Y009373D03*
D235*
X023899Y009715D03*
X017851Y009377D03*
X014678Y009538D03*
D236*
X019584Y009377D03*
D237*
X020912Y009377D03*
X020912Y009381D03*
D238*
X023889Y009711D03*
X017861Y009389D03*
X014688Y009381D03*
X014688Y009550D03*
D239*
X019310Y009542D03*
X019562Y009381D03*
D240*
X019507Y009404D03*
X019365Y009511D03*
X016916Y009814D03*
D241*
X016910Y009810D03*
X019493Y009412D03*
D242*
X019487Y009416D03*
X019381Y009499D03*
D243*
X019347Y010113D03*
X020887Y009834D03*
X023548Y009633D03*
X023568Y009637D03*
X023584Y009641D03*
X023863Y009700D03*
X024391Y010330D03*
X017891Y009424D03*
D244*
X016906Y009806D03*
X019402Y009483D03*
X019406Y009479D03*
X019465Y009432D03*
D245*
X020987Y009491D03*
D246*
X021026Y009515D03*
X019345Y009523D03*
D247*
X019353Y009519D03*
X016920Y009818D03*
D248*
X021048Y009523D03*
D249*
X021062Y009526D03*
D250*
X019334Y009530D03*
D251*
X019328Y009534D03*
D252*
X019318Y009538D03*
D253*
X021973Y009818D03*
X023091Y009538D03*
X023717Y009672D03*
D254*
X019300Y009546D03*
D255*
X021973Y009814D03*
X023111Y009546D03*
X023828Y009684D03*
D256*
X019290Y009550D03*
D257*
X023131Y009554D03*
D258*
X023143Y009558D03*
X021973Y009668D03*
X021973Y009794D03*
D259*
X021393Y009633D03*
X018948Y009908D03*
X018503Y009755D03*
D260*
X020904Y009830D03*
X021975Y009645D03*
D261*
X021975Y009649D03*
D262*
X021975Y009652D03*
D263*
X016869Y009755D03*
X016798Y009656D03*
D264*
X019267Y009928D03*
X019318Y010011D03*
X021007Y009731D03*
X021011Y009727D03*
X021070Y009656D03*
D265*
X021973Y009656D03*
D266*
X021060Y009660D03*
X021017Y009715D03*
X019312Y009995D03*
X019276Y009936D03*
D267*
X019282Y009944D03*
X019286Y009948D03*
X019298Y009967D03*
X019298Y009971D03*
X019302Y009975D03*
X021026Y009700D03*
X021046Y009672D03*
X021050Y009668D03*
X021054Y009664D03*
D268*
X023688Y009664D03*
D269*
X023706Y009668D03*
D270*
X021044Y009676D03*
X021040Y009680D03*
X021036Y009684D03*
X021032Y009692D03*
X021028Y009696D03*
X019296Y009963D03*
X019292Y009960D03*
X019292Y009956D03*
X019288Y009952D03*
D271*
X021971Y009774D03*
X021971Y009771D03*
X021971Y009692D03*
D272*
X023845Y009692D03*
X024373Y010322D03*
D273*
X021971Y009763D03*
X021971Y009759D03*
X021971Y009755D03*
X021971Y009751D03*
X021971Y009747D03*
X021971Y009743D03*
X021971Y009739D03*
X021971Y009727D03*
X021971Y009723D03*
X021971Y009719D03*
X021971Y009715D03*
X021971Y009711D03*
X021971Y009708D03*
X021971Y009704D03*
D274*
X021015Y009719D03*
X019314Y009999D03*
X019271Y009932D03*
D275*
X019316Y010003D03*
X019316Y010007D03*
X021013Y009723D03*
D276*
X021005Y009735D03*
X019324Y010019D03*
X019320Y010015D03*
D277*
X019257Y009924D03*
X021001Y009743D03*
D278*
X021337Y011412D03*
X021944Y011826D03*
X022743Y010814D03*
X020298Y012074D03*
X015952Y009747D03*
X015889Y009834D03*
D279*
X020997Y009747D03*
D280*
X020995Y009751D03*
X019330Y010030D03*
D281*
X019332Y010034D03*
X020993Y009755D03*
D282*
X020991Y009759D03*
D283*
X020989Y009763D03*
X019339Y010046D03*
D284*
X019343Y010054D03*
X020985Y009767D03*
D285*
X020979Y009774D03*
X019345Y010058D03*
D286*
X020975Y009778D03*
D287*
X020969Y009786D03*
X019355Y010074D03*
D288*
X020965Y009790D03*
D289*
X021971Y009790D03*
D290*
X020958Y009798D03*
X019363Y010086D03*
D291*
X019365Y010089D03*
X020952Y009802D03*
D292*
X020948Y009806D03*
D293*
X021971Y009806D03*
X024345Y010310D03*
D294*
X020942Y009810D03*
D295*
X021973Y009810D03*
D296*
X016926Y009822D03*
D297*
X018546Y009822D03*
X019526Y011215D03*
X022589Y011109D03*
X022767Y010597D03*
X023452Y010460D03*
D298*
X023005Y011834D03*
X021280Y011645D03*
X019434Y011424D03*
X015871Y009826D03*
D299*
X015881Y009830D03*
X019794Y011830D03*
X020286Y012078D03*
X020806Y011326D03*
X021286Y011637D03*
X021790Y011215D03*
X021932Y011830D03*
X023900Y010810D03*
D300*
X023920Y010802D03*
X021952Y011822D03*
X021298Y011621D03*
X021330Y011420D03*
X020306Y012070D03*
X019774Y011822D03*
X015900Y009837D03*
D301*
X020700Y009849D03*
X021841Y010125D03*
X022853Y010180D03*
X023983Y010605D03*
X023755Y011589D03*
X023093Y011621D03*
X023030Y011826D03*
X021334Y011416D03*
X021294Y011625D03*
D302*
X019336Y010042D03*
X019245Y009920D03*
D303*
X020381Y011869D03*
X021290Y011633D03*
X022928Y009971D03*
X023987Y010601D03*
D304*
X022769Y010593D03*
X022505Y011420D03*
X022021Y011621D03*
X023021Y011830D03*
X019154Y011857D03*
X015973Y010042D03*
D305*
X015987Y010046D03*
X014530Y010129D03*
X020389Y011865D03*
X021282Y011641D03*
D306*
X019341Y010050D03*
D307*
X019347Y010062D03*
D308*
X019357Y010078D03*
D309*
X019361Y010082D03*
D310*
X019369Y010093D03*
D311*
X019446Y011420D03*
X022741Y010818D03*
X022843Y010184D03*
X023103Y011617D03*
X015560Y010129D03*
D312*
X022771Y010589D03*
D313*
X022765Y010605D03*
X023536Y010656D03*
D314*
X021891Y011416D03*
X021343Y011408D03*
X019532Y011211D03*
D315*
X021353Y011404D03*
X022932Y011215D03*
D316*
X014736Y007231D02*
X014736Y006870D01*
X014736Y007141D02*
X015097Y007141D01*
X015097Y007231D02*
X015097Y006870D01*
X015280Y006870D02*
X015280Y007231D01*
X015551Y007231D01*
X015641Y007141D01*
X015641Y006870D01*
X015914Y006961D02*
X016004Y006870D01*
X015914Y006961D02*
X015914Y007321D01*
X015824Y007231D02*
X016004Y007231D01*
X016187Y007141D02*
X016277Y007231D01*
X016457Y007231D01*
X016547Y007141D01*
X016547Y007051D01*
X016187Y007051D01*
X016187Y006961D02*
X016187Y007141D01*
X016187Y006961D02*
X016277Y006870D01*
X016457Y006870D01*
X016730Y006870D02*
X016730Y007231D01*
X017001Y007231D01*
X017091Y007141D01*
X017091Y006870D01*
X017274Y006870D02*
X017274Y007231D01*
X017545Y007231D01*
X017635Y007141D01*
X017635Y006870D01*
X017818Y006961D02*
X017908Y007051D01*
X018179Y007051D01*
X018179Y007141D02*
X018179Y006870D01*
X017908Y006870D01*
X017818Y006961D01*
X017908Y007231D02*
X018088Y007231D01*
X018179Y007141D01*
X018905Y007141D02*
X019176Y007141D01*
X019266Y007051D01*
X019266Y006961D01*
X019176Y006870D01*
X018905Y006870D01*
X018905Y007411D01*
X019176Y007411D01*
X019266Y007321D01*
X019266Y007231D01*
X019176Y007141D01*
X019449Y007141D02*
X019449Y006961D01*
X019539Y006870D01*
X019720Y006870D01*
X019810Y006961D01*
X019810Y007141D01*
X019720Y007231D01*
X019539Y007231D01*
X019449Y007141D01*
X019993Y006961D02*
X020083Y007051D01*
X020354Y007051D01*
X020354Y007141D02*
X020354Y006870D01*
X020083Y006870D01*
X019993Y006961D01*
X020083Y007231D02*
X020263Y007231D01*
X020354Y007141D01*
X020537Y007231D02*
X020537Y006870D01*
X020537Y007051D02*
X020717Y007231D01*
X020807Y007231D01*
X020990Y007141D02*
X021080Y007231D01*
X021351Y007231D01*
X021351Y007411D02*
X021351Y006870D01*
X021080Y006870D01*
X020990Y006961D01*
X020990Y007141D01*
X022077Y007051D02*
X022258Y006870D01*
X022438Y007051D01*
X022438Y007411D01*
X022621Y007231D02*
X022802Y007411D01*
X022802Y006870D01*
X022982Y006870D02*
X022621Y006870D01*
X023165Y006870D02*
X023255Y006870D01*
X023255Y006961D01*
X023165Y006961D01*
X023165Y006870D01*
X023437Y006961D02*
X023437Y007321D01*
X023527Y007411D01*
X023707Y007411D01*
X023798Y007321D01*
X023437Y006961D01*
X023527Y006870D01*
X023707Y006870D01*
X023798Y006961D01*
X023798Y007321D01*
X022077Y007411D02*
X022077Y007051D01*
X015097Y007231D02*
X014917Y007411D01*
X014736Y007231D01*
D317*
X019038Y017818D02*
X019904Y017818D01*
X020731Y018645D02*
X020731Y019511D01*
X019904Y020337D02*
X019038Y020337D01*
X018211Y019511D02*
X018211Y018645D01*
X018802Y019078D02*
X018804Y019129D01*
X018810Y019180D01*
X018820Y019230D01*
X018833Y019280D01*
X018851Y019328D01*
X018871Y019375D01*
X018896Y019420D01*
X018924Y019463D01*
X018955Y019504D01*
X018989Y019542D01*
X019026Y019577D01*
X019065Y019610D01*
X019107Y019640D01*
X019151Y019666D01*
X019197Y019688D01*
X019245Y019708D01*
X019294Y019723D01*
X019344Y019735D01*
X019394Y019743D01*
X019445Y019747D01*
X019497Y019747D01*
X019548Y019743D01*
X019598Y019735D01*
X019648Y019723D01*
X019697Y019708D01*
X019745Y019688D01*
X019791Y019666D01*
X019835Y019640D01*
X019877Y019610D01*
X019916Y019577D01*
X019953Y019542D01*
X019987Y019504D01*
X020018Y019463D01*
X020046Y019420D01*
X020071Y019375D01*
X020091Y019328D01*
X020109Y019280D01*
X020122Y019230D01*
X020132Y019180D01*
X020138Y019129D01*
X020140Y019078D01*
X020138Y019027D01*
X020132Y018976D01*
X020122Y018926D01*
X020109Y018876D01*
X020091Y018828D01*
X020071Y018781D01*
X020046Y018736D01*
X020018Y018693D01*
X019987Y018652D01*
X019953Y018614D01*
X019916Y018579D01*
X019877Y018546D01*
X019835Y018516D01*
X019791Y018490D01*
X019745Y018468D01*
X019697Y018448D01*
X019648Y018433D01*
X019598Y018421D01*
X019548Y018413D01*
X019497Y018409D01*
X019445Y018409D01*
X019394Y018413D01*
X019344Y018421D01*
X019294Y018433D01*
X019245Y018448D01*
X019197Y018468D01*
X019151Y018490D01*
X019107Y018516D01*
X019065Y018546D01*
X019026Y018579D01*
X018989Y018614D01*
X018955Y018652D01*
X018924Y018693D01*
X018896Y018736D01*
X018871Y018781D01*
X018851Y018828D01*
X018833Y018876D01*
X018820Y018926D01*
X018810Y018976D01*
X018804Y019027D01*
X018802Y019078D01*
M02*
