G75*
%MOIN*%
%OFA0B0*%
%FSLAX24Y24*%
%IPPOS*%
%LPD*%
%AMOC8*
5,1,8,0,0,1.08239X$1,22.5*
%
%ADD10C,0.0000*%
%ADD11C,0.0750*%
%ADD12C,0.1050*%
%ADD13R,0.0157X0.0295*%
%ADD14C,0.1266*%
%ADD15C,0.0160*%
%ADD16C,0.1181*%
%ADD17C,0.0240*%
D10*
X000180Y004117D02*
X000180Y034826D01*
X004117Y034826D01*
X004117Y038763D01*
X034826Y038763D01*
X034826Y034826D01*
X038763Y034826D01*
X038763Y004117D01*
X034826Y004117D01*
X034826Y000180D01*
X004117Y000180D01*
X004117Y004117D01*
X000180Y004117D01*
X001873Y017306D02*
X001873Y021637D01*
X002660Y022424D02*
X002714Y022422D01*
X002767Y022417D01*
X002820Y022408D01*
X002872Y022395D01*
X002924Y022379D01*
X002974Y022359D01*
X003022Y022336D01*
X003069Y022309D01*
X003114Y022280D01*
X003157Y022247D01*
X003197Y022212D01*
X003235Y022174D01*
X003270Y022134D01*
X003303Y022091D01*
X003332Y022046D01*
X003359Y021999D01*
X003382Y021951D01*
X003402Y021901D01*
X003418Y021849D01*
X003431Y021797D01*
X003440Y021744D01*
X003445Y021691D01*
X003447Y021637D01*
X003448Y021637D02*
X003448Y017306D01*
X002660Y016519D02*
X002606Y016521D01*
X002553Y016526D01*
X002500Y016535D01*
X002448Y016548D01*
X002396Y016564D01*
X002346Y016584D01*
X002298Y016607D01*
X002251Y016634D01*
X002206Y016663D01*
X002163Y016696D01*
X002123Y016731D01*
X002085Y016769D01*
X002050Y016809D01*
X002017Y016852D01*
X001988Y016897D01*
X001961Y016944D01*
X001938Y016992D01*
X001918Y017042D01*
X001902Y017094D01*
X001889Y017146D01*
X001880Y017199D01*
X001875Y017252D01*
X001873Y017306D01*
X002660Y016519D02*
X002714Y016521D01*
X002767Y016526D01*
X002820Y016535D01*
X002872Y016548D01*
X002924Y016564D01*
X002974Y016584D01*
X003022Y016607D01*
X003069Y016634D01*
X003114Y016663D01*
X003157Y016696D01*
X003197Y016731D01*
X003235Y016769D01*
X003270Y016809D01*
X003303Y016852D01*
X003332Y016897D01*
X003359Y016944D01*
X003382Y016992D01*
X003402Y017042D01*
X003418Y017094D01*
X003431Y017146D01*
X003440Y017199D01*
X003445Y017252D01*
X003447Y017306D01*
X005810Y017306D02*
X005810Y021637D01*
X006597Y022424D02*
X006651Y022422D01*
X006704Y022417D01*
X006757Y022408D01*
X006809Y022395D01*
X006861Y022379D01*
X006911Y022359D01*
X006959Y022336D01*
X007006Y022309D01*
X007051Y022280D01*
X007094Y022247D01*
X007134Y022212D01*
X007172Y022174D01*
X007207Y022134D01*
X007240Y022091D01*
X007269Y022046D01*
X007296Y021999D01*
X007319Y021951D01*
X007339Y021901D01*
X007355Y021849D01*
X007368Y021797D01*
X007377Y021744D01*
X007382Y021691D01*
X007384Y021637D01*
X007385Y021637D02*
X007385Y017306D01*
X006597Y016519D02*
X006543Y016521D01*
X006490Y016526D01*
X006437Y016535D01*
X006385Y016548D01*
X006333Y016564D01*
X006283Y016584D01*
X006235Y016607D01*
X006188Y016634D01*
X006143Y016663D01*
X006100Y016696D01*
X006060Y016731D01*
X006022Y016769D01*
X005987Y016809D01*
X005954Y016852D01*
X005925Y016897D01*
X005898Y016944D01*
X005875Y016992D01*
X005855Y017042D01*
X005839Y017094D01*
X005826Y017146D01*
X005817Y017199D01*
X005812Y017252D01*
X005810Y017306D01*
X006597Y016519D02*
X006651Y016521D01*
X006704Y016526D01*
X006757Y016535D01*
X006809Y016548D01*
X006861Y016564D01*
X006911Y016584D01*
X006959Y016607D01*
X007006Y016634D01*
X007051Y016663D01*
X007094Y016696D01*
X007134Y016731D01*
X007172Y016769D01*
X007207Y016809D01*
X007240Y016852D01*
X007269Y016897D01*
X007296Y016944D01*
X007319Y016992D01*
X007339Y017042D01*
X007355Y017094D01*
X007368Y017146D01*
X007377Y017199D01*
X007382Y017252D01*
X007384Y017306D01*
X009747Y017306D02*
X009747Y021637D01*
X010534Y022424D02*
X010588Y022422D01*
X010641Y022417D01*
X010694Y022408D01*
X010746Y022395D01*
X010798Y022379D01*
X010848Y022359D01*
X010896Y022336D01*
X010943Y022309D01*
X010988Y022280D01*
X011031Y022247D01*
X011071Y022212D01*
X011109Y022174D01*
X011144Y022134D01*
X011177Y022091D01*
X011206Y022046D01*
X011233Y021999D01*
X011256Y021951D01*
X011276Y021901D01*
X011292Y021849D01*
X011305Y021797D01*
X011314Y021744D01*
X011319Y021691D01*
X011321Y021637D01*
X011322Y021637D02*
X011322Y017306D01*
X010534Y016519D02*
X010480Y016521D01*
X010427Y016526D01*
X010374Y016535D01*
X010322Y016548D01*
X010270Y016564D01*
X010220Y016584D01*
X010172Y016607D01*
X010125Y016634D01*
X010080Y016663D01*
X010037Y016696D01*
X009997Y016731D01*
X009959Y016769D01*
X009924Y016809D01*
X009891Y016852D01*
X009862Y016897D01*
X009835Y016944D01*
X009812Y016992D01*
X009792Y017042D01*
X009776Y017094D01*
X009763Y017146D01*
X009754Y017199D01*
X009749Y017252D01*
X009747Y017306D01*
X010534Y016519D02*
X010588Y016521D01*
X010641Y016526D01*
X010694Y016535D01*
X010746Y016548D01*
X010798Y016564D01*
X010848Y016584D01*
X010896Y016607D01*
X010943Y016634D01*
X010988Y016663D01*
X011031Y016696D01*
X011071Y016731D01*
X011109Y016769D01*
X011144Y016809D01*
X011177Y016852D01*
X011206Y016897D01*
X011233Y016944D01*
X011256Y016992D01*
X011276Y017042D01*
X011292Y017094D01*
X011305Y017146D01*
X011314Y017199D01*
X011319Y017252D01*
X011321Y017306D01*
X009747Y021637D02*
X009749Y021691D01*
X009754Y021744D01*
X009763Y021797D01*
X009776Y021849D01*
X009792Y021901D01*
X009812Y021951D01*
X009835Y021999D01*
X009862Y022046D01*
X009891Y022091D01*
X009924Y022134D01*
X009959Y022174D01*
X009997Y022212D01*
X010037Y022247D01*
X010080Y022280D01*
X010125Y022309D01*
X010172Y022336D01*
X010220Y022359D01*
X010270Y022379D01*
X010322Y022395D01*
X010374Y022408D01*
X010427Y022417D01*
X010480Y022422D01*
X010534Y022424D01*
X006597Y022424D02*
X006543Y022422D01*
X006490Y022417D01*
X006437Y022408D01*
X006385Y022395D01*
X006333Y022379D01*
X006283Y022359D01*
X006235Y022336D01*
X006188Y022309D01*
X006143Y022280D01*
X006100Y022247D01*
X006060Y022212D01*
X006022Y022174D01*
X005987Y022134D01*
X005954Y022091D01*
X005925Y022046D01*
X005898Y021999D01*
X005875Y021951D01*
X005855Y021901D01*
X005839Y021849D01*
X005826Y021797D01*
X005817Y021744D01*
X005812Y021691D01*
X005810Y021637D01*
X002660Y022424D02*
X002606Y022422D01*
X002553Y022417D01*
X002500Y022408D01*
X002448Y022395D01*
X002396Y022379D01*
X002346Y022359D01*
X002298Y022336D01*
X002251Y022309D01*
X002206Y022280D01*
X002163Y022247D01*
X002123Y022212D01*
X002085Y022174D01*
X002050Y022134D01*
X002017Y022091D01*
X001988Y022046D01*
X001961Y021999D01*
X001938Y021951D01*
X001918Y021901D01*
X001902Y021849D01*
X001889Y021797D01*
X001880Y021744D01*
X001875Y021691D01*
X001873Y021637D01*
X027621Y021637D02*
X027621Y017306D01*
X027623Y017252D01*
X027628Y017199D01*
X027637Y017146D01*
X027650Y017094D01*
X027666Y017042D01*
X027686Y016992D01*
X027709Y016944D01*
X027736Y016897D01*
X027765Y016852D01*
X027798Y016809D01*
X027833Y016769D01*
X027871Y016731D01*
X027911Y016696D01*
X027954Y016663D01*
X027999Y016634D01*
X028046Y016607D01*
X028094Y016584D01*
X028144Y016564D01*
X028196Y016548D01*
X028248Y016535D01*
X028301Y016526D01*
X028354Y016521D01*
X028408Y016519D01*
X028462Y016521D01*
X028515Y016526D01*
X028568Y016535D01*
X028620Y016548D01*
X028672Y016564D01*
X028722Y016584D01*
X028770Y016607D01*
X028817Y016634D01*
X028862Y016663D01*
X028905Y016696D01*
X028945Y016731D01*
X028983Y016769D01*
X029018Y016809D01*
X029051Y016852D01*
X029080Y016897D01*
X029107Y016944D01*
X029130Y016992D01*
X029150Y017042D01*
X029166Y017094D01*
X029179Y017146D01*
X029188Y017199D01*
X029193Y017252D01*
X029195Y017306D01*
X029196Y017306D02*
X029196Y021637D01*
X029195Y021637D02*
X029193Y021691D01*
X029188Y021744D01*
X029179Y021797D01*
X029166Y021849D01*
X029150Y021901D01*
X029130Y021951D01*
X029107Y021999D01*
X029080Y022046D01*
X029051Y022091D01*
X029018Y022134D01*
X028983Y022174D01*
X028945Y022212D01*
X028905Y022247D01*
X028862Y022280D01*
X028817Y022309D01*
X028770Y022336D01*
X028722Y022359D01*
X028672Y022379D01*
X028620Y022395D01*
X028568Y022408D01*
X028515Y022417D01*
X028462Y022422D01*
X028408Y022424D01*
X028354Y022422D01*
X028301Y022417D01*
X028248Y022408D01*
X028196Y022395D01*
X028144Y022379D01*
X028094Y022359D01*
X028046Y022336D01*
X027999Y022309D01*
X027954Y022280D01*
X027911Y022247D01*
X027871Y022212D01*
X027833Y022174D01*
X027798Y022134D01*
X027765Y022091D01*
X027736Y022046D01*
X027709Y021999D01*
X027686Y021951D01*
X027666Y021901D01*
X027650Y021849D01*
X027637Y021797D01*
X027628Y021744D01*
X027623Y021691D01*
X027621Y021637D01*
X031558Y021637D02*
X031558Y017306D01*
X031560Y017252D01*
X031565Y017199D01*
X031574Y017146D01*
X031587Y017094D01*
X031603Y017042D01*
X031623Y016992D01*
X031646Y016944D01*
X031673Y016897D01*
X031702Y016852D01*
X031735Y016809D01*
X031770Y016769D01*
X031808Y016731D01*
X031848Y016696D01*
X031891Y016663D01*
X031936Y016634D01*
X031983Y016607D01*
X032031Y016584D01*
X032081Y016564D01*
X032133Y016548D01*
X032185Y016535D01*
X032238Y016526D01*
X032291Y016521D01*
X032345Y016519D01*
X032399Y016521D01*
X032452Y016526D01*
X032505Y016535D01*
X032557Y016548D01*
X032609Y016564D01*
X032659Y016584D01*
X032707Y016607D01*
X032754Y016634D01*
X032799Y016663D01*
X032842Y016696D01*
X032882Y016731D01*
X032920Y016769D01*
X032955Y016809D01*
X032988Y016852D01*
X033017Y016897D01*
X033044Y016944D01*
X033067Y016992D01*
X033087Y017042D01*
X033103Y017094D01*
X033116Y017146D01*
X033125Y017199D01*
X033130Y017252D01*
X033132Y017306D01*
X033133Y017306D02*
X033133Y021637D01*
X033132Y021637D02*
X033130Y021691D01*
X033125Y021744D01*
X033116Y021797D01*
X033103Y021849D01*
X033087Y021901D01*
X033067Y021951D01*
X033044Y021999D01*
X033017Y022046D01*
X032988Y022091D01*
X032955Y022134D01*
X032920Y022174D01*
X032882Y022212D01*
X032842Y022247D01*
X032799Y022280D01*
X032754Y022309D01*
X032707Y022336D01*
X032659Y022359D01*
X032609Y022379D01*
X032557Y022395D01*
X032505Y022408D01*
X032452Y022417D01*
X032399Y022422D01*
X032345Y022424D01*
X032291Y022422D01*
X032238Y022417D01*
X032185Y022408D01*
X032133Y022395D01*
X032081Y022379D01*
X032031Y022359D01*
X031983Y022336D01*
X031936Y022309D01*
X031891Y022280D01*
X031848Y022247D01*
X031808Y022212D01*
X031770Y022174D01*
X031735Y022134D01*
X031702Y022091D01*
X031673Y022046D01*
X031646Y021999D01*
X031623Y021951D01*
X031603Y021901D01*
X031587Y021849D01*
X031574Y021797D01*
X031565Y021744D01*
X031560Y021691D01*
X031558Y021637D01*
X035495Y021637D02*
X035495Y017306D01*
X035497Y017252D01*
X035502Y017199D01*
X035511Y017146D01*
X035524Y017094D01*
X035540Y017042D01*
X035560Y016992D01*
X035583Y016944D01*
X035610Y016897D01*
X035639Y016852D01*
X035672Y016809D01*
X035707Y016769D01*
X035745Y016731D01*
X035785Y016696D01*
X035828Y016663D01*
X035873Y016634D01*
X035920Y016607D01*
X035968Y016584D01*
X036018Y016564D01*
X036070Y016548D01*
X036122Y016535D01*
X036175Y016526D01*
X036228Y016521D01*
X036282Y016519D01*
X036336Y016521D01*
X036389Y016526D01*
X036442Y016535D01*
X036494Y016548D01*
X036546Y016564D01*
X036596Y016584D01*
X036644Y016607D01*
X036691Y016634D01*
X036736Y016663D01*
X036779Y016696D01*
X036819Y016731D01*
X036857Y016769D01*
X036892Y016809D01*
X036925Y016852D01*
X036954Y016897D01*
X036981Y016944D01*
X037004Y016992D01*
X037024Y017042D01*
X037040Y017094D01*
X037053Y017146D01*
X037062Y017199D01*
X037067Y017252D01*
X037069Y017306D01*
X037070Y017306D02*
X037070Y021637D01*
X037069Y021637D02*
X037067Y021691D01*
X037062Y021744D01*
X037053Y021797D01*
X037040Y021849D01*
X037024Y021901D01*
X037004Y021951D01*
X036981Y021999D01*
X036954Y022046D01*
X036925Y022091D01*
X036892Y022134D01*
X036857Y022174D01*
X036819Y022212D01*
X036779Y022247D01*
X036736Y022280D01*
X036691Y022309D01*
X036644Y022336D01*
X036596Y022359D01*
X036546Y022379D01*
X036494Y022395D01*
X036442Y022408D01*
X036389Y022417D01*
X036336Y022422D01*
X036282Y022424D01*
X036228Y022422D01*
X036175Y022417D01*
X036122Y022408D01*
X036070Y022395D01*
X036018Y022379D01*
X035968Y022359D01*
X035920Y022336D01*
X035873Y022309D01*
X035828Y022280D01*
X035785Y022247D01*
X035745Y022212D01*
X035707Y022174D01*
X035672Y022134D01*
X035639Y022091D01*
X035610Y022046D01*
X035583Y021999D01*
X035560Y021951D01*
X035540Y021901D01*
X035524Y021849D01*
X035511Y021797D01*
X035502Y021744D01*
X035497Y021691D01*
X035495Y021637D01*
D11*
X019471Y019078D03*
D12*
X018467Y018074D03*
X018467Y020082D03*
X020475Y020082D03*
X020475Y018074D03*
D13*
X019629Y020859D03*
X019314Y020859D03*
X019314Y021627D03*
X019629Y021627D03*
D14*
X030377Y019471D03*
X032463Y006479D03*
X008566Y019471D03*
X006479Y006479D03*
X006479Y032463D03*
X032463Y032463D03*
D15*
X021834Y021834D02*
X021528Y021834D01*
X020830Y021135D01*
X020562Y021024D01*
X020271Y021024D01*
X020002Y021135D01*
X019797Y021341D01*
X019788Y021362D01*
X019766Y021339D01*
X019492Y021339D01*
X019471Y021360D01*
X019451Y021339D01*
X019177Y021339D01*
X019154Y021362D01*
X019146Y021341D01*
X018940Y021135D01*
X018672Y021024D01*
X018381Y021024D01*
X018113Y021135D01*
X017415Y021834D01*
X017109Y021834D01*
X017109Y017109D01*
X021834Y017109D01*
X021834Y021834D01*
X021834Y021736D02*
X021431Y021736D01*
X021272Y021578D02*
X021834Y021578D01*
X021834Y021419D02*
X021114Y021419D01*
X020955Y021261D02*
X021834Y021261D01*
X021834Y021102D02*
X020749Y021102D01*
X020702Y020751D02*
X020613Y020774D01*
X020555Y020782D01*
X020555Y020162D01*
X020395Y020162D01*
X020395Y020782D01*
X020337Y020774D01*
X020248Y020751D01*
X020163Y020715D01*
X020083Y020669D01*
X020009Y020613D01*
X019944Y020547D01*
X019888Y020474D01*
X019842Y020394D01*
X019806Y020309D01*
X019782Y020219D01*
X019775Y020162D01*
X020395Y020162D01*
X020395Y020002D01*
X019775Y020002D01*
X019782Y019944D01*
X019806Y019854D01*
X019842Y019769D01*
X019888Y019689D01*
X019944Y019616D01*
X020009Y019550D01*
X020083Y019494D01*
X020163Y019448D01*
X020248Y019413D01*
X020337Y019389D01*
X020395Y019381D01*
X020395Y020002D01*
X020555Y020002D01*
X020555Y020162D01*
X021176Y020162D01*
X021168Y020219D01*
X021144Y020309D01*
X021109Y020394D01*
X021063Y020474D01*
X021006Y020547D01*
X020941Y020613D01*
X020868Y020669D01*
X020788Y020715D01*
X020702Y020751D01*
X020555Y020627D02*
X020395Y020627D01*
X020395Y020468D02*
X020555Y020468D01*
X020555Y020310D02*
X020395Y020310D01*
X020395Y020151D02*
X019534Y020151D01*
X019534Y019993D02*
X019776Y019993D01*
X019815Y019834D02*
X019534Y019834D01*
X019534Y019676D02*
X019898Y019676D01*
X019763Y019514D02*
X019908Y019369D01*
X019986Y019180D01*
X019986Y018975D01*
X019908Y018786D01*
X019763Y018641D01*
X019574Y018563D01*
X019369Y018563D01*
X019180Y018641D01*
X019035Y018786D01*
X018956Y018975D01*
X018956Y019180D01*
X019035Y019369D01*
X019094Y019428D01*
X019094Y019757D01*
X019055Y019689D01*
X018999Y019616D01*
X018933Y019550D01*
X018860Y019494D01*
X018780Y019448D01*
X018695Y019413D01*
X018605Y019389D01*
X018547Y019381D01*
X018547Y020002D01*
X018387Y020002D01*
X017767Y020002D01*
X017775Y019944D01*
X017798Y019854D01*
X017834Y019769D01*
X017880Y019689D01*
X017936Y019616D01*
X018002Y019550D01*
X018075Y019494D01*
X018155Y019448D01*
X018240Y019413D01*
X018330Y019389D01*
X018387Y019381D01*
X018387Y020002D01*
X018387Y020162D01*
X018387Y020782D01*
X018330Y020774D01*
X018240Y020751D01*
X018155Y020715D01*
X018075Y020669D01*
X018002Y020613D01*
X017936Y020547D01*
X017880Y020474D01*
X017834Y020394D01*
X017798Y020309D01*
X017775Y020219D01*
X017767Y020162D01*
X018387Y020162D01*
X018547Y020162D01*
X018547Y020782D01*
X018605Y020774D01*
X018695Y020751D01*
X018780Y020715D01*
X018860Y020669D01*
X018933Y020613D01*
X018999Y020547D01*
X019055Y020474D01*
X019094Y020407D01*
X019094Y020950D01*
X019095Y020952D01*
X019095Y021065D01*
X019177Y021147D01*
X019436Y021147D01*
X019440Y021151D01*
X019481Y021175D01*
X019526Y021187D01*
X019629Y021187D01*
X019629Y020859D01*
X019629Y020859D01*
X019888Y020859D01*
X019888Y020688D01*
X019875Y020642D01*
X019852Y020601D01*
X019818Y020567D01*
X019777Y020544D01*
X019731Y020531D01*
X019629Y020531D01*
X019629Y020859D01*
X019629Y020859D01*
X019888Y020859D01*
X019888Y021030D01*
X019875Y021076D01*
X019852Y021117D01*
X019818Y021151D01*
X019777Y021175D01*
X019731Y021187D01*
X019629Y021187D01*
X019629Y020859D01*
X019629Y020531D01*
X019534Y020531D01*
X019534Y019593D01*
X019574Y019593D01*
X019763Y019514D01*
X019756Y019517D02*
X020053Y019517D01*
X019912Y019359D02*
X021834Y019359D01*
X021834Y019517D02*
X020898Y019517D01*
X020868Y019494D02*
X020941Y019550D01*
X021006Y019616D01*
X021063Y019689D01*
X021109Y019769D01*
X021144Y019854D01*
X021168Y019944D01*
X021176Y020002D01*
X020555Y020002D01*
X020555Y019381D01*
X020613Y019389D01*
X020702Y019413D01*
X020788Y019448D01*
X020868Y019494D01*
X021052Y019676D02*
X021834Y019676D01*
X021834Y019834D02*
X021136Y019834D01*
X021175Y019993D02*
X021834Y019993D01*
X021834Y020151D02*
X020555Y020151D01*
X020555Y019993D02*
X020395Y019993D01*
X020395Y019834D02*
X020555Y019834D01*
X020555Y019676D02*
X020395Y019676D01*
X020395Y019517D02*
X020555Y019517D01*
X019978Y019200D02*
X021834Y019200D01*
X021834Y019042D02*
X019986Y019042D01*
X019948Y018883D02*
X021834Y018883D01*
X021834Y018725D02*
X020746Y018725D01*
X020788Y018707D02*
X020702Y018743D01*
X020613Y018767D01*
X020555Y018774D01*
X020555Y018154D01*
X020395Y018154D01*
X020395Y018774D01*
X020337Y018767D01*
X020248Y018743D01*
X020163Y018707D01*
X020083Y018661D01*
X020009Y018605D01*
X019944Y018540D01*
X019888Y018466D01*
X019842Y018386D01*
X019806Y018301D01*
X019782Y018212D01*
X019775Y018154D01*
X020395Y018154D01*
X020395Y017994D01*
X019775Y017994D01*
X019782Y017936D01*
X019806Y017847D01*
X019842Y017761D01*
X019888Y017681D01*
X019944Y017608D01*
X020009Y017543D01*
X020083Y017486D01*
X020163Y017440D01*
X020248Y017405D01*
X020337Y017381D01*
X020395Y017373D01*
X020395Y017994D01*
X020555Y017994D01*
X020555Y018154D01*
X021176Y018154D01*
X021168Y018212D01*
X021144Y018301D01*
X021109Y018386D01*
X021063Y018466D01*
X021006Y018540D01*
X020941Y018605D01*
X020868Y018661D01*
X020788Y018707D01*
X020555Y018725D02*
X020395Y018725D01*
X020395Y018566D02*
X020555Y018566D01*
X020555Y018408D02*
X020395Y018408D01*
X020395Y018249D02*
X020555Y018249D01*
X020555Y018091D02*
X021834Y018091D01*
X021834Y018249D02*
X021158Y018249D01*
X021097Y018408D02*
X021834Y018408D01*
X021834Y018566D02*
X020980Y018566D01*
X021176Y017994D02*
X020555Y017994D01*
X020555Y017373D01*
X020613Y017381D01*
X020702Y017405D01*
X020788Y017440D01*
X020868Y017486D01*
X020941Y017543D01*
X021006Y017608D01*
X021063Y017681D01*
X021109Y017761D01*
X021144Y017847D01*
X021168Y017936D01*
X021176Y017994D01*
X021167Y017932D02*
X021834Y017932D01*
X021834Y017774D02*
X021114Y017774D01*
X021012Y017615D02*
X021834Y017615D01*
X021834Y017457D02*
X020816Y017457D01*
X020555Y017457D02*
X020395Y017457D01*
X020395Y017615D02*
X020555Y017615D01*
X020555Y017774D02*
X020395Y017774D01*
X020395Y017932D02*
X020555Y017932D01*
X020395Y018091D02*
X018547Y018091D01*
X018547Y018154D02*
X019168Y018154D01*
X019160Y018212D01*
X019136Y018301D01*
X019101Y018386D01*
X019055Y018466D01*
X018999Y018540D01*
X018933Y018605D01*
X018860Y018661D01*
X018780Y018707D01*
X018695Y018743D01*
X018605Y018767D01*
X018547Y018774D01*
X018547Y018154D01*
X018387Y018154D01*
X018387Y017994D01*
X017767Y017994D01*
X017775Y017936D01*
X017798Y017847D01*
X017834Y017761D01*
X017880Y017681D01*
X017936Y017608D01*
X018002Y017543D01*
X018075Y017486D01*
X018155Y017440D01*
X018240Y017405D01*
X018330Y017381D01*
X018387Y017373D01*
X018387Y017994D01*
X018547Y017994D01*
X018547Y017373D01*
X018605Y017381D01*
X018695Y017405D01*
X018780Y017440D01*
X018860Y017486D01*
X018933Y017543D01*
X018999Y017608D01*
X019055Y017681D01*
X019101Y017761D01*
X019136Y017847D01*
X019160Y017936D01*
X019168Y017994D01*
X018547Y017994D01*
X018547Y018154D01*
X018547Y018249D02*
X018387Y018249D01*
X018387Y018154D02*
X018387Y018774D01*
X018330Y018767D01*
X018240Y018743D01*
X018155Y018707D01*
X018075Y018661D01*
X018002Y018605D01*
X017936Y018540D01*
X017880Y018466D01*
X017834Y018386D01*
X017798Y018301D01*
X017775Y018212D01*
X017767Y018154D01*
X018387Y018154D01*
X018387Y018091D02*
X017109Y018091D01*
X017109Y018249D02*
X017785Y018249D01*
X017846Y018408D02*
X017109Y018408D01*
X017109Y018566D02*
X017963Y018566D01*
X018196Y018725D02*
X017109Y018725D01*
X017109Y018883D02*
X018995Y018883D01*
X018956Y019042D02*
X017109Y019042D01*
X017109Y019200D02*
X018965Y019200D01*
X019030Y019359D02*
X017109Y019359D01*
X017109Y019517D02*
X018045Y019517D01*
X017890Y019676D02*
X017109Y019676D01*
X017109Y019834D02*
X017807Y019834D01*
X017768Y019993D02*
X017109Y019993D01*
X017109Y020151D02*
X018387Y020151D01*
X018387Y019993D02*
X018547Y019993D01*
X018547Y019834D02*
X018387Y019834D01*
X018387Y019676D02*
X018547Y019676D01*
X018547Y019517D02*
X018387Y019517D01*
X018890Y019517D02*
X019094Y019517D01*
X019094Y019676D02*
X019045Y019676D01*
X019314Y019235D02*
X019471Y019078D01*
X019314Y019235D02*
X019314Y020859D01*
X019094Y020785D02*
X017109Y020785D01*
X017109Y020627D02*
X018020Y020627D01*
X017877Y020468D02*
X017109Y020468D01*
X017109Y020310D02*
X017799Y020310D01*
X018387Y020310D02*
X018547Y020310D01*
X018547Y020468D02*
X018387Y020468D01*
X018387Y020627D02*
X018547Y020627D01*
X018915Y020627D02*
X019094Y020627D01*
X019094Y020468D02*
X019058Y020468D01*
X019094Y020944D02*
X017109Y020944D01*
X017109Y021102D02*
X018193Y021102D01*
X017988Y021261D02*
X017109Y021261D01*
X017109Y021419D02*
X017829Y021419D01*
X017671Y021578D02*
X017109Y021578D01*
X017109Y021736D02*
X017512Y021736D01*
X018860Y021102D02*
X019132Y021102D01*
X019065Y021261D02*
X019877Y021261D01*
X019860Y021102D02*
X020083Y021102D01*
X019888Y020944D02*
X021834Y020944D01*
X021834Y020785D02*
X019888Y020785D01*
X019866Y020627D02*
X020027Y020627D01*
X019884Y020468D02*
X019534Y020468D01*
X019534Y020310D02*
X019807Y020310D01*
X019629Y020627D02*
X019629Y020627D01*
X019629Y020785D02*
X019629Y020785D01*
X019629Y020859D02*
X019629Y020859D01*
X019629Y020944D02*
X019629Y020944D01*
X019629Y021102D02*
X019629Y021102D01*
X020923Y020627D02*
X021834Y020627D01*
X021834Y020468D02*
X021066Y020468D01*
X021144Y020310D02*
X021834Y020310D01*
X020204Y018725D02*
X019847Y018725D01*
X019971Y018566D02*
X019582Y018566D01*
X019361Y018566D02*
X018972Y018566D01*
X019089Y018408D02*
X019854Y018408D01*
X019792Y018249D02*
X019150Y018249D01*
X019159Y017932D02*
X019783Y017932D01*
X019837Y017774D02*
X019106Y017774D01*
X019004Y017615D02*
X019939Y017615D01*
X020134Y017457D02*
X018808Y017457D01*
X018547Y017457D02*
X018387Y017457D01*
X018387Y017615D02*
X018547Y017615D01*
X018547Y017774D02*
X018387Y017774D01*
X018387Y017932D02*
X018547Y017932D01*
X018547Y018408D02*
X018387Y018408D01*
X018387Y018566D02*
X018547Y018566D01*
X018547Y018725D02*
X018387Y018725D01*
X018739Y018725D02*
X019096Y018725D01*
X017931Y017615D02*
X017109Y017615D01*
X017109Y017457D02*
X018126Y017457D01*
X017829Y017774D02*
X017109Y017774D01*
X017109Y017932D02*
X017776Y017932D01*
X017109Y017298D02*
X021834Y017298D01*
X021834Y017140D02*
X017109Y017140D01*
D16*
X018526Y021755D02*
X016479Y023802D01*
X008566Y023802D01*
X008566Y019471D01*
X020416Y021755D02*
X022463Y023802D01*
X030416Y023802D01*
X030416Y019471D01*
X030377Y019471D01*
D17*
X020416Y021755D02*
X020288Y021627D01*
X019629Y021627D01*
X019314Y021627D02*
X018654Y021627D01*
X018526Y021755D01*
M02*
