G75*
%MOIN*%
%OFA0B0*%
%FSLAX24Y24*%
%IPPOS*%
%LPD*%
%AMOC8*
5,1,8,0,0,1.08239X$1,22.5*
%
%ADD10C,0.0750*%
%ADD11C,0.1050*%
%ADD12R,0.1575X0.4724*%
%ADD13C,0.1266*%
%ADD14C,0.0160*%
D10*
X019471Y019078D03*
D11*
X018467Y018074D03*
X018467Y020082D03*
X020475Y020082D03*
X020475Y018074D03*
D12*
X030377Y019471D03*
X008566Y019471D03*
D13*
X008566Y019471D03*
X006479Y006479D03*
X030377Y019471D03*
X032463Y006479D03*
X032463Y032463D03*
X006479Y032463D03*
D14*
X000410Y015928D02*
X000410Y004347D01*
X004212Y004347D01*
X004347Y004212D01*
X004347Y000410D01*
X034596Y000410D01*
X034596Y004212D01*
X034730Y004347D01*
X038533Y004347D01*
X038533Y015928D01*
X025771Y015928D01*
X025771Y023015D01*
X038533Y023015D01*
X038533Y034596D01*
X034730Y034596D01*
X034596Y034730D01*
X034596Y038533D01*
X004347Y038533D01*
X004347Y034730D01*
X004212Y034596D01*
X000410Y034596D01*
X000410Y023015D01*
X013172Y023015D01*
X013172Y015928D01*
X000410Y015928D01*
X000410Y015872D02*
X038533Y015872D01*
X038533Y015713D02*
X000410Y015713D01*
X000410Y015555D02*
X038533Y015555D01*
X038533Y015396D02*
X000410Y015396D01*
X000410Y015238D02*
X038533Y015238D01*
X038533Y015079D02*
X000410Y015079D01*
X000410Y014921D02*
X038533Y014921D01*
X038533Y014762D02*
X000410Y014762D01*
X000410Y014604D02*
X038533Y014604D01*
X038533Y014445D02*
X000410Y014445D01*
X000410Y014287D02*
X038533Y014287D01*
X038533Y014128D02*
X000410Y014128D01*
X000410Y013970D02*
X038533Y013970D01*
X038533Y013811D02*
X000410Y013811D01*
X000410Y013653D02*
X038533Y013653D01*
X038533Y013494D02*
X000410Y013494D01*
X000410Y013336D02*
X038533Y013336D01*
X038533Y013177D02*
X000410Y013177D01*
X000410Y013019D02*
X038533Y013019D01*
X038533Y012860D02*
X000410Y012860D01*
X000410Y012702D02*
X038533Y012702D01*
X038533Y012543D02*
X000410Y012543D01*
X000410Y012385D02*
X038533Y012385D01*
X038533Y012226D02*
X000410Y012226D01*
X000410Y012068D02*
X038533Y012068D01*
X038533Y011909D02*
X000410Y011909D01*
X000410Y011751D02*
X038533Y011751D01*
X038533Y011592D02*
X000410Y011592D01*
X000410Y011434D02*
X038533Y011434D01*
X038533Y011275D02*
X000410Y011275D01*
X000410Y011117D02*
X038533Y011117D01*
X038533Y010958D02*
X000410Y010958D01*
X000410Y010800D02*
X038533Y010800D01*
X038533Y010641D02*
X000410Y010641D01*
X000410Y010483D02*
X038533Y010483D01*
X038533Y010324D02*
X000410Y010324D01*
X000410Y010166D02*
X038533Y010166D01*
X038533Y010007D02*
X000410Y010007D01*
X000410Y009849D02*
X038533Y009849D01*
X038533Y009690D02*
X000410Y009690D01*
X000410Y009532D02*
X038533Y009532D01*
X038533Y009373D02*
X000410Y009373D01*
X000410Y009215D02*
X038533Y009215D01*
X038533Y009056D02*
X000410Y009056D01*
X000410Y008898D02*
X038533Y008898D01*
X038533Y008739D02*
X000410Y008739D01*
X000410Y008581D02*
X038533Y008581D01*
X038533Y008422D02*
X000410Y008422D01*
X000410Y008264D02*
X038533Y008264D01*
X038533Y008105D02*
X000410Y008105D01*
X000410Y007947D02*
X038533Y007947D01*
X038533Y007788D02*
X000410Y007788D01*
X000410Y007630D02*
X038533Y007630D01*
X038533Y007471D02*
X000410Y007471D01*
X000410Y007313D02*
X038533Y007313D01*
X038533Y007154D02*
X000410Y007154D01*
X000410Y006996D02*
X038533Y006996D01*
X038533Y006837D02*
X000410Y006837D01*
X000410Y006679D02*
X038533Y006679D01*
X038533Y006520D02*
X000410Y006520D01*
X000410Y006362D02*
X038533Y006362D01*
X038533Y006203D02*
X000410Y006203D01*
X000410Y006045D02*
X038533Y006045D01*
X038533Y005886D02*
X000410Y005886D01*
X000410Y005728D02*
X038533Y005728D01*
X038533Y005569D02*
X000410Y005569D01*
X000410Y005411D02*
X038533Y005411D01*
X038533Y005252D02*
X000410Y005252D01*
X000410Y005094D02*
X038533Y005094D01*
X038533Y004935D02*
X000410Y004935D01*
X000410Y004777D02*
X038533Y004777D01*
X038533Y004618D02*
X000410Y004618D01*
X000410Y004460D02*
X038533Y004460D01*
X034684Y004301D02*
X004258Y004301D01*
X004347Y004143D02*
X034596Y004143D01*
X034596Y003984D02*
X004347Y003984D01*
X004347Y003826D02*
X034596Y003826D01*
X034596Y003667D02*
X004347Y003667D01*
X004347Y003509D02*
X034596Y003509D01*
X034596Y003350D02*
X004347Y003350D01*
X004347Y003192D02*
X034596Y003192D01*
X034596Y003033D02*
X004347Y003033D01*
X004347Y002875D02*
X034596Y002875D01*
X034596Y002716D02*
X004347Y002716D01*
X004347Y002558D02*
X034596Y002558D01*
X034596Y002399D02*
X004347Y002399D01*
X004347Y002241D02*
X034596Y002241D01*
X034596Y002082D02*
X004347Y002082D01*
X004347Y001924D02*
X034596Y001924D01*
X034596Y001765D02*
X004347Y001765D01*
X004347Y001607D02*
X034596Y001607D01*
X034596Y001448D02*
X004347Y001448D01*
X004347Y001290D02*
X034596Y001290D01*
X034596Y001131D02*
X004347Y001131D01*
X004347Y000973D02*
X034596Y000973D01*
X034596Y000814D02*
X004347Y000814D01*
X004347Y000656D02*
X034596Y000656D01*
X034596Y000497D02*
X004347Y000497D01*
X013172Y016030D02*
X025771Y016030D01*
X025771Y016189D02*
X013172Y016189D01*
X013172Y016347D02*
X025771Y016347D01*
X025771Y016506D02*
X013172Y016506D01*
X013172Y016664D02*
X025771Y016664D01*
X025771Y016823D02*
X013172Y016823D01*
X013172Y016981D02*
X025771Y016981D01*
X025771Y017140D02*
X013172Y017140D01*
X013172Y017298D02*
X025771Y017298D01*
X025771Y017457D02*
X020816Y017457D01*
X020788Y017440D02*
X020868Y017486D01*
X020941Y017543D01*
X021006Y017608D01*
X021063Y017681D01*
X021109Y017761D01*
X021144Y017847D01*
X021168Y017936D01*
X021176Y017994D01*
X020555Y017994D01*
X020555Y018154D01*
X020395Y018154D01*
X020395Y018774D01*
X020337Y018767D01*
X020248Y018743D01*
X020163Y018707D01*
X020083Y018661D01*
X020009Y018605D01*
X019944Y018540D01*
X019888Y018466D01*
X019842Y018386D01*
X019806Y018301D01*
X019782Y018212D01*
X019775Y018154D01*
X020395Y018154D01*
X020395Y017994D01*
X019775Y017994D01*
X019782Y017936D01*
X019806Y017847D01*
X019842Y017761D01*
X019888Y017681D01*
X019944Y017608D01*
X020009Y017543D01*
X020083Y017486D01*
X020163Y017440D01*
X020248Y017405D01*
X020337Y017381D01*
X020395Y017373D01*
X020395Y017994D01*
X020555Y017994D01*
X020555Y017373D01*
X020613Y017381D01*
X020702Y017405D01*
X020788Y017440D01*
X020555Y017457D02*
X020395Y017457D01*
X020395Y017615D02*
X020555Y017615D01*
X020555Y017774D02*
X020395Y017774D01*
X020395Y017932D02*
X020555Y017932D01*
X020555Y018091D02*
X025771Y018091D01*
X025771Y018249D02*
X021158Y018249D01*
X021168Y018212D02*
X021144Y018301D01*
X021109Y018386D01*
X021063Y018466D01*
X021006Y018540D01*
X020941Y018605D01*
X020868Y018661D01*
X020788Y018707D01*
X020702Y018743D01*
X020613Y018767D01*
X020555Y018774D01*
X020555Y018154D01*
X021176Y018154D01*
X021168Y018212D01*
X021097Y018408D02*
X025771Y018408D01*
X025771Y018566D02*
X020980Y018566D01*
X020746Y018725D02*
X025771Y018725D01*
X025771Y018883D02*
X019948Y018883D01*
X019986Y018975D02*
X019908Y018786D01*
X019763Y018641D01*
X019574Y018563D01*
X019369Y018563D01*
X019180Y018641D01*
X019035Y018786D01*
X018956Y018975D01*
X018956Y019180D01*
X019035Y019369D01*
X019180Y019514D01*
X019369Y019593D01*
X019574Y019593D01*
X019763Y019514D01*
X019908Y019369D01*
X019986Y019180D01*
X019986Y018975D01*
X019986Y019042D02*
X025771Y019042D01*
X025771Y019200D02*
X019978Y019200D01*
X019912Y019359D02*
X025771Y019359D01*
X025771Y019517D02*
X020898Y019517D01*
X020868Y019494D02*
X020941Y019550D01*
X021006Y019616D01*
X021063Y019689D01*
X021109Y019769D01*
X021144Y019854D01*
X021168Y019944D01*
X021176Y020002D01*
X020555Y020002D01*
X020555Y020162D01*
X020395Y020162D01*
X020395Y020782D01*
X020337Y020774D01*
X020248Y020751D01*
X020163Y020715D01*
X020083Y020669D01*
X020009Y020613D01*
X019944Y020547D01*
X019888Y020474D01*
X019842Y020394D01*
X019806Y020309D01*
X019782Y020219D01*
X019775Y020162D01*
X020395Y020162D01*
X020395Y020002D01*
X019775Y020002D01*
X019782Y019944D01*
X019806Y019854D01*
X019842Y019769D01*
X019888Y019689D01*
X019944Y019616D01*
X020009Y019550D01*
X020083Y019494D01*
X020163Y019448D01*
X020248Y019413D01*
X020337Y019389D01*
X020395Y019381D01*
X020395Y020002D01*
X020555Y020002D01*
X020555Y019381D01*
X020613Y019389D01*
X020702Y019413D01*
X020788Y019448D01*
X020868Y019494D01*
X021052Y019676D02*
X025771Y019676D01*
X025771Y019834D02*
X021136Y019834D01*
X021175Y019993D02*
X025771Y019993D01*
X025771Y020151D02*
X020555Y020151D01*
X020555Y020162D02*
X021176Y020162D01*
X021168Y020219D01*
X021144Y020309D01*
X021109Y020394D01*
X021063Y020474D01*
X021006Y020547D01*
X020941Y020613D01*
X020868Y020669D01*
X020788Y020715D01*
X020702Y020751D01*
X020613Y020774D01*
X020555Y020782D01*
X020555Y020162D01*
X020555Y020310D02*
X020395Y020310D01*
X020395Y020468D02*
X020555Y020468D01*
X020555Y020627D02*
X020395Y020627D01*
X020027Y020627D02*
X018915Y020627D01*
X018933Y020613D02*
X018860Y020669D01*
X018780Y020715D01*
X018695Y020751D01*
X018605Y020774D01*
X018547Y020782D01*
X018547Y020162D01*
X018387Y020162D01*
X018387Y020782D01*
X018330Y020774D01*
X018240Y020751D01*
X018155Y020715D01*
X018075Y020669D01*
X018002Y020613D01*
X017936Y020547D01*
X017880Y020474D01*
X017834Y020394D01*
X017798Y020309D01*
X017775Y020219D01*
X017767Y020162D01*
X018387Y020162D01*
X018387Y020002D01*
X017767Y020002D01*
X017775Y019944D01*
X017798Y019854D01*
X017834Y019769D01*
X017880Y019689D01*
X017936Y019616D01*
X018002Y019550D01*
X018075Y019494D01*
X018155Y019448D01*
X018240Y019413D01*
X018330Y019389D01*
X018387Y019381D01*
X018387Y020002D01*
X018547Y020002D01*
X018547Y019381D01*
X018605Y019389D01*
X018695Y019413D01*
X018780Y019448D01*
X018860Y019494D01*
X018933Y019550D01*
X018999Y019616D01*
X019055Y019689D01*
X019101Y019769D01*
X019136Y019854D01*
X019160Y019944D01*
X019168Y020002D01*
X018547Y020002D01*
X018547Y020162D01*
X019168Y020162D01*
X019160Y020219D01*
X019136Y020309D01*
X019136Y020310D02*
X019807Y020310D01*
X019884Y020468D02*
X019058Y020468D01*
X019055Y020474D02*
X018999Y020547D01*
X018933Y020613D01*
X019055Y020474D02*
X019101Y020394D01*
X019136Y020309D01*
X019167Y019993D02*
X019776Y019993D01*
X019815Y019834D02*
X019128Y019834D01*
X019045Y019676D02*
X019898Y019676D01*
X019756Y019517D02*
X020053Y019517D01*
X020395Y019517D02*
X020555Y019517D01*
X020555Y019676D02*
X020395Y019676D01*
X020395Y019834D02*
X020555Y019834D01*
X020555Y019993D02*
X020395Y019993D01*
X020395Y020151D02*
X018547Y020151D01*
X018547Y019993D02*
X018387Y019993D01*
X018387Y020151D02*
X013172Y020151D01*
X013172Y019993D02*
X017768Y019993D01*
X017807Y019834D02*
X013172Y019834D01*
X013172Y019676D02*
X017890Y019676D01*
X018045Y019517D02*
X013172Y019517D01*
X013172Y019359D02*
X019030Y019359D01*
X018965Y019200D02*
X013172Y019200D01*
X013172Y019042D02*
X018956Y019042D01*
X018995Y018883D02*
X013172Y018883D01*
X013172Y018725D02*
X018196Y018725D01*
X018155Y018707D02*
X018075Y018661D01*
X018002Y018605D01*
X017936Y018540D01*
X017880Y018466D01*
X017834Y018386D01*
X017798Y018301D01*
X017775Y018212D01*
X017767Y018154D01*
X018387Y018154D01*
X018387Y017994D01*
X017767Y017994D01*
X017775Y017936D01*
X017798Y017847D01*
X017834Y017761D01*
X017880Y017681D01*
X017936Y017608D01*
X018002Y017543D01*
X018075Y017486D01*
X018155Y017440D01*
X018240Y017405D01*
X018330Y017381D01*
X018387Y017373D01*
X018387Y017994D01*
X018547Y017994D01*
X018547Y017373D01*
X018605Y017381D01*
X018695Y017405D01*
X018780Y017440D01*
X018860Y017486D01*
X018933Y017543D01*
X018999Y017608D01*
X019055Y017681D01*
X019101Y017761D01*
X019136Y017847D01*
X019160Y017936D01*
X019168Y017994D01*
X018547Y017994D01*
X018547Y018154D01*
X018387Y018154D01*
X018387Y018774D01*
X018330Y018767D01*
X018240Y018743D01*
X018155Y018707D01*
X018387Y018725D02*
X018547Y018725D01*
X018547Y018774D02*
X018605Y018767D01*
X018695Y018743D01*
X018780Y018707D01*
X018860Y018661D01*
X018933Y018605D01*
X018999Y018540D01*
X019055Y018466D01*
X019101Y018386D01*
X019136Y018301D01*
X019160Y018212D01*
X019168Y018154D01*
X018547Y018154D01*
X018547Y018774D01*
X018739Y018725D02*
X019096Y018725D01*
X018972Y018566D02*
X019361Y018566D01*
X019582Y018566D02*
X019971Y018566D01*
X019854Y018408D02*
X019089Y018408D01*
X019150Y018249D02*
X019792Y018249D01*
X019783Y017932D02*
X019159Y017932D01*
X019106Y017774D02*
X019837Y017774D01*
X019939Y017615D02*
X019004Y017615D01*
X018808Y017457D02*
X020134Y017457D01*
X020395Y018091D02*
X018547Y018091D01*
X018547Y018249D02*
X018387Y018249D01*
X018387Y018091D02*
X013172Y018091D01*
X013172Y018249D02*
X017785Y018249D01*
X017846Y018408D02*
X013172Y018408D01*
X013172Y018566D02*
X017963Y018566D01*
X018387Y018566D02*
X018547Y018566D01*
X018547Y018408D02*
X018387Y018408D01*
X018387Y017932D02*
X018547Y017932D01*
X018547Y017774D02*
X018387Y017774D01*
X018387Y017615D02*
X018547Y017615D01*
X018547Y017457D02*
X018387Y017457D01*
X018126Y017457D02*
X013172Y017457D01*
X013172Y017615D02*
X017931Y017615D01*
X017829Y017774D02*
X013172Y017774D01*
X013172Y017932D02*
X017776Y017932D01*
X018387Y019517D02*
X018547Y019517D01*
X018547Y019676D02*
X018387Y019676D01*
X018387Y019834D02*
X018547Y019834D01*
X018890Y019517D02*
X019186Y019517D01*
X018547Y020310D02*
X018387Y020310D01*
X018387Y020468D02*
X018547Y020468D01*
X018547Y020627D02*
X018387Y020627D01*
X018020Y020627D02*
X013172Y020627D01*
X013172Y020785D02*
X025771Y020785D01*
X025771Y020627D02*
X020923Y020627D01*
X021066Y020468D02*
X025771Y020468D01*
X025771Y020310D02*
X021144Y020310D01*
X020555Y018725D02*
X020395Y018725D01*
X020395Y018566D02*
X020555Y018566D01*
X020555Y018408D02*
X020395Y018408D01*
X020395Y018249D02*
X020555Y018249D01*
X021012Y017615D02*
X025771Y017615D01*
X025771Y017774D02*
X021114Y017774D01*
X021167Y017932D02*
X025771Y017932D01*
X025771Y020944D02*
X013172Y020944D01*
X013172Y021102D02*
X025771Y021102D01*
X025771Y021261D02*
X013172Y021261D01*
X013172Y021419D02*
X025771Y021419D01*
X025771Y021578D02*
X013172Y021578D01*
X013172Y021736D02*
X025771Y021736D01*
X025771Y021895D02*
X013172Y021895D01*
X013172Y022053D02*
X025771Y022053D01*
X025771Y022212D02*
X013172Y022212D01*
X013172Y022370D02*
X025771Y022370D01*
X025771Y022529D02*
X013172Y022529D01*
X013172Y022687D02*
X025771Y022687D01*
X025771Y022846D02*
X013172Y022846D01*
X013172Y023004D02*
X025771Y023004D01*
X020204Y018725D02*
X019847Y018725D01*
X017799Y020310D02*
X013172Y020310D01*
X013172Y020468D02*
X017877Y020468D01*
X004347Y034733D02*
X034596Y034733D01*
X034596Y034892D02*
X004347Y034892D01*
X004347Y035050D02*
X034596Y035050D01*
X034596Y035209D02*
X004347Y035209D01*
X004347Y035367D02*
X034596Y035367D01*
X034596Y035526D02*
X004347Y035526D01*
X004347Y035684D02*
X034596Y035684D01*
X034596Y035843D02*
X004347Y035843D01*
X004347Y036001D02*
X034596Y036001D01*
X034596Y036160D02*
X004347Y036160D01*
X004347Y036318D02*
X034596Y036318D01*
X034596Y036477D02*
X004347Y036477D01*
X004347Y036635D02*
X034596Y036635D01*
X034596Y036794D02*
X004347Y036794D01*
X004347Y036952D02*
X034596Y036952D01*
X034596Y037111D02*
X004347Y037111D01*
X004347Y037269D02*
X034596Y037269D01*
X034596Y037428D02*
X004347Y037428D01*
X004347Y037586D02*
X034596Y037586D01*
X034596Y037745D02*
X004347Y037745D01*
X004347Y037903D02*
X034596Y037903D01*
X034596Y038062D02*
X004347Y038062D01*
X004347Y038220D02*
X034596Y038220D01*
X034596Y038379D02*
X004347Y038379D01*
X000410Y034575D02*
X038533Y034575D01*
X038533Y034416D02*
X000410Y034416D01*
X000410Y034258D02*
X038533Y034258D01*
X038533Y034099D02*
X000410Y034099D01*
X000410Y033941D02*
X038533Y033941D01*
X038533Y033782D02*
X000410Y033782D01*
X000410Y033624D02*
X038533Y033624D01*
X038533Y033465D02*
X000410Y033465D01*
X000410Y033307D02*
X038533Y033307D01*
X038533Y033148D02*
X000410Y033148D01*
X000410Y032990D02*
X038533Y032990D01*
X038533Y032831D02*
X000410Y032831D01*
X000410Y032673D02*
X038533Y032673D01*
X038533Y032514D02*
X000410Y032514D01*
X000410Y032356D02*
X038533Y032356D01*
X038533Y032197D02*
X000410Y032197D01*
X000410Y032039D02*
X038533Y032039D01*
X038533Y031880D02*
X000410Y031880D01*
X000410Y031722D02*
X038533Y031722D01*
X038533Y031563D02*
X000410Y031563D01*
X000410Y031405D02*
X038533Y031405D01*
X038533Y031246D02*
X000410Y031246D01*
X000410Y031088D02*
X038533Y031088D01*
X038533Y030929D02*
X000410Y030929D01*
X000410Y030771D02*
X038533Y030771D01*
X038533Y030612D02*
X000410Y030612D01*
X000410Y030454D02*
X038533Y030454D01*
X038533Y030295D02*
X000410Y030295D01*
X000410Y030137D02*
X038533Y030137D01*
X038533Y029978D02*
X000410Y029978D01*
X000410Y029820D02*
X038533Y029820D01*
X038533Y029661D02*
X000410Y029661D01*
X000410Y029503D02*
X038533Y029503D01*
X038533Y029344D02*
X000410Y029344D01*
X000410Y029186D02*
X038533Y029186D01*
X038533Y029027D02*
X000410Y029027D01*
X000410Y028869D02*
X038533Y028869D01*
X038533Y028710D02*
X000410Y028710D01*
X000410Y028552D02*
X038533Y028552D01*
X038533Y028393D02*
X000410Y028393D01*
X000410Y028235D02*
X038533Y028235D01*
X038533Y028076D02*
X000410Y028076D01*
X000410Y027918D02*
X038533Y027918D01*
X038533Y027759D02*
X000410Y027759D01*
X000410Y027601D02*
X038533Y027601D01*
X038533Y027442D02*
X000410Y027442D01*
X000410Y027284D02*
X038533Y027284D01*
X038533Y027125D02*
X000410Y027125D01*
X000410Y026967D02*
X038533Y026967D01*
X038533Y026808D02*
X000410Y026808D01*
X000410Y026650D02*
X038533Y026650D01*
X038533Y026491D02*
X000410Y026491D01*
X000410Y026333D02*
X038533Y026333D01*
X038533Y026174D02*
X000410Y026174D01*
X000410Y026016D02*
X038533Y026016D01*
X038533Y025857D02*
X000410Y025857D01*
X000410Y025699D02*
X038533Y025699D01*
X038533Y025540D02*
X000410Y025540D01*
X000410Y025382D02*
X038533Y025382D01*
X038533Y025223D02*
X000410Y025223D01*
X000410Y025065D02*
X038533Y025065D01*
X038533Y024906D02*
X000410Y024906D01*
X000410Y024748D02*
X038533Y024748D01*
X038533Y024589D02*
X000410Y024589D01*
X000410Y024431D02*
X038533Y024431D01*
X038533Y024272D02*
X000410Y024272D01*
X000410Y024114D02*
X038533Y024114D01*
X038533Y023955D02*
X000410Y023955D01*
X000410Y023797D02*
X038533Y023797D01*
X038533Y023638D02*
X000410Y023638D01*
X000410Y023480D02*
X038533Y023480D01*
X038533Y023321D02*
X000410Y023321D01*
X000410Y023163D02*
X038533Y023163D01*
M02*
